  0
SECTION
  2
HEADER
  9
$ANGBASE
  50
0.0
  9
$ANGDIR
  70
1
  9
$MEASUREMENT
  70
0
  0
ENDSEC
  0
SECTION
  2
TABLES
  0
TABLE
  2
LTYPE
  70
4
  0
LTYPE
  5
40F
  2
CONTINUOUS
  70
0
  3
Solid line
  72
65
  73
0
  40
0.0
  0
LTYPE
  5
410
  2
DASHDOT
 70
0
  3
Dash Dot ____ _ ____ _
 72
65
 73
4
 40
2.0
 49
1.25
 49
-0.25
 49
0.25
 49
-0.25
  0
LTYPE
  5
411
  2
DASHED
 70
0
  3
Dashed __ __ __ __ __
 72
65
 73
2
 40
0.75
 49
0.5
 49
-0.25
  0
LTYPE
  5
43B
  2
DOTTED
 70
0
  3
Dotted .  .  .  .
 72
65
 73
2
 40
0.2
 49
0.0
 49
-0.2
  0
ENDTAB
  0
TABLE
  2
STYLE
  70
4
  0
STYLE
  2
KICAD
  70
0
  40
0
  41
1
  42
1
  50
0
  71
0
  3
isocp.shx
  0
STYLE
  2
KICADB
  70
0
  40
0
  41
1
  42
1
  50
0
  71
0
  3
isocp.shx
  0
STYLE
  2
KICADI
  70
0
  40
0
  41
1
  42
1
  50
15
  71
0
  3
isocp.shx
  0
STYLE
  2
KICADBI
  70
0
  40
0
  41
1
  42
1
  50
15
  71
0
  3
isocp.shx
  0
ENDTAB
  0
TABLE
  2
LAYER
  70
1
  0
LAYER
  2
BLACK
  70
0
  62
7
  6
CONTINUOUS
  0
ENDTAB
  0
ENDSEC
  0
SECTION
  2
ENTITIES
0
CIRCLE
8
BLACK
10
4.63268
20
-5.9876
40
0.125984
0
LINE
8
BLACK
6
CONTINUOUS
10
4.84508
20
-3.7876
11
1.59508
21
-3.7876
0
LINE
8
BLACK
6
CONTINUOUS
10
1.59508
20
-3.7876
11
1.59508
21
-6.1876
0
LINE
8
BLACK
6
CONTINUOUS
10
1.59508
20
-6.1876
11
4.84508
21
-6.1876
0
LINE
8
BLACK
6
CONTINUOUS
10
4.84508
20
-6.1876
11
4.84508
21
-3.7876
0
CIRCLE
8
BLACK
10
4.63268
20
-3.9876
40
0.125984
0
CIRCLE
8
BLACK
10
1.79508
20
-3.9876
40
0.125984
0
CIRCLE
8
BLACK
10
1.79508
20
-5.9876
40
0.125984
0
LINE
8
BLACK
6
CONTINUOUS
10
1.69454
20
-6.3118
11
1.69454
21
-6.23306
0
LINE
8
BLACK
6
CONTINUOUS
10
1.69454
20
-6.23306
11
1.71328
21
-6.23306
0
LINE
8
BLACK
6
CONTINUOUS
10
1.71328
20
-6.23306
11
1.72453
21
-6.23681
0
LINE
8
BLACK
6
CONTINUOUS
10
1.72453
20
-6.23681
11
1.73203
21
-6.24431
0
LINE
8
BLACK
6
CONTINUOUS
10
1.73203
20
-6.24431
11
1.73578
21
-6.25181
0
LINE
8
BLACK
6
CONTINUOUS
10
1.73578
20
-6.25181
11
1.73953
21
-6.26681
0
LINE
8
BLACK
6
CONTINUOUS
10
1.73953
20
-6.26681
11
1.73953
21
-6.27806
0
LINE
8
BLACK
6
CONTINUOUS
10
1.73953
20
-6.27806
11
1.73578
21
-6.29305
0
LINE
8
BLACK
6
CONTINUOUS
10
1.73578
20
-6.29305
11
1.73203
21
-6.30055
0
LINE
8
BLACK
6
CONTINUOUS
10
1.73203
20
-6.30055
11
1.72453
21
-6.30805
0
LINE
8
BLACK
6
CONTINUOUS
10
1.72453
20
-6.30805
11
1.71328
21
-6.3118
0
LINE
8
BLACK
6
CONTINUOUS
10
1.71328
20
-6.3118
11
1.69454
21
-6.3118
0
LINE
8
BLACK
6
CONTINUOUS
10
1.77328
20
-6.3118
11
1.77328
21
-6.25931
0
LINE
8
BLACK
6
CONTINUOUS
10
1.77328
20
-6.27431
11
1.77702
21
-6.26681
0
LINE
8
BLACK
6
CONTINUOUS
10
1.77702
20
-6.26681
11
1.78077
21
-6.26306
0
LINE
8
BLACK
6
CONTINUOUS
10
1.78077
20
-6.26306
11
1.78827
21
-6.25931
0
LINE
8
BLACK
6
CONTINUOUS
10
1.78827
20
-6.25931
11
1.79577
21
-6.25931
0
LINE
8
BLACK
6
CONTINUOUS
10
1.82202
20
-6.3118
11
1.82202
21
-6.25931
0
LINE
8
BLACK
6
CONTINUOUS
10
1.82202
20
-6.23306
11
1.81827
21
-6.23681
0
LINE
8
BLACK
6
CONTINUOUS
10
1.81827
20
-6.23681
11
1.82202
21
-6.24056
0
LINE
8
BLACK
6
CONTINUOUS
10
1.82202
20
-6.24056
11
1.82577
21
-6.23681
0
LINE
8
BLACK
6
CONTINUOUS
10
1.82577
20
-6.23681
11
1.82202
21
-6.23306
0
LINE
8
BLACK
6
CONTINUOUS
10
1.82202
20
-6.23306
11
1.82202
21
-6.24056
0
LINE
8
BLACK
6
CONTINUOUS
10
1.87076
20
-6.3118
11
1.86326
21
-6.30805
0
LINE
8
BLACK
6
CONTINUOUS
10
1.86326
20
-6.30805
11
1.85951
21
-6.30055
0
LINE
8
BLACK
6
CONTINUOUS
10
1.85951
20
-6.30055
11
1.85951
21
-6.23306
0
LINE
8
BLACK
6
CONTINUOUS
10
1.91201
20
-6.3118
11
1.90451
21
-6.30805
0
LINE
8
BLACK
6
CONTINUOUS
10
1.90451
20
-6.30805
11
1.90076
21
-6.30055
0
LINE
8
BLACK
6
CONTINUOUS
10
1.90076
20
-6.30055
11
1.90076
21
-6.23306
0
LINE
8
BLACK
6
CONTINUOUS
10
2.002
20
-6.3118
11
2.002
21
-6.23306
0
LINE
8
BLACK
6
CONTINUOUS
10
2.002
20
-6.23306
11
2.02824
21
-6.2893
0
LINE
8
BLACK
6
CONTINUOUS
10
2.02824
20
-6.2893
11
2.05449
21
-6.23306
0
LINE
8
BLACK
6
CONTINUOUS
10
2.05449
20
-6.23306
11
2.05449
21
-6.3118
0
LINE
8
BLACK
6
CONTINUOUS
10
2.12573
20
-6.3118
11
2.12573
21
-6.27056
0
LINE
8
BLACK
6
CONTINUOUS
10
2.12573
20
-6.27056
11
2.12198
21
-6.26306
0
LINE
8
BLACK
6
CONTINUOUS
10
2.12198
20
-6.26306
11
2.11448
21
-6.25931
0
LINE
8
BLACK
6
CONTINUOUS
10
2.11448
20
-6.25931
11
2.09948
21
-6.25931
0
LINE
8
BLACK
6
CONTINUOUS
10
2.09948
20
-6.25931
11
2.09199
21
-6.26306
0
LINE
8
BLACK
6
CONTINUOUS
10
2.12573
20
-6.30805
11
2.11823
21
-6.3118
0
LINE
8
BLACK
6
CONTINUOUS
10
2.11823
20
-6.3118
11
2.09948
21
-6.3118
0
LINE
8
BLACK
6
CONTINUOUS
10
2.09948
20
-6.3118
11
2.09199
21
-6.30805
0
LINE
8
BLACK
6
CONTINUOUS
10
2.09199
20
-6.30805
11
2.08824
21
-6.30055
0
LINE
8
BLACK
6
CONTINUOUS
10
2.08824
20
-6.30055
11
2.08824
21
-6.29305
0
LINE
8
BLACK
6
CONTINUOUS
10
2.08824
20
-6.29305
11
2.09199
21
-6.28555
0
LINE
8
BLACK
6
CONTINUOUS
10
2.09199
20
-6.28555
11
2.09948
21
-6.28181
0
LINE
8
BLACK
6
CONTINUOUS
10
2.09948
20
-6.28181
11
2.11823
21
-6.28181
0
LINE
8
BLACK
6
CONTINUOUS
10
2.11823
20
-6.28181
11
2.12573
21
-6.27806
0
LINE
8
BLACK
6
CONTINUOUS
10
2.16323
20
-6.25931
11
2.16323
21
-6.33805
0
LINE
8
BLACK
6
CONTINUOUS
10
2.16323
20
-6.26306
11
2.17073
21
-6.25931
0
LINE
8
BLACK
6
CONTINUOUS
10
2.17073
20
-6.25931
11
2.18572
21
-6.25931
0
LINE
8
BLACK
6
CONTINUOUS
10
2.18572
20
-6.25931
11
2.19322
21
-6.26306
0
LINE
8
BLACK
6
CONTINUOUS
10
2.19322
20
-6.26306
11
2.19697
21
-6.26681
0
LINE
8
BLACK
6
CONTINUOUS
10
2.19697
20
-6.26681
11
2.20072
21
-6.27431
0
LINE
8
BLACK
6
CONTINUOUS
10
2.20072
20
-6.27431
11
2.20072
21
-6.2968
0
LINE
8
BLACK
6
CONTINUOUS
10
2.20072
20
-6.2968
11
2.19697
21
-6.3043
0
LINE
8
BLACK
6
CONTINUOUS
10
2.19697
20
-6.3043
11
2.19322
21
-6.30805
0
LINE
8
BLACK
6
CONTINUOUS
10
2.19322
20
-6.30805
11
2.18572
21
-6.3118
0
LINE
8
BLACK
6
CONTINUOUS
10
2.18572
20
-6.3118
11
2.17073
21
-6.3118
0
LINE
8
BLACK
6
CONTINUOUS
10
2.17073
20
-6.3118
11
2.16323
21
-6.30805
0
LINE
8
BLACK
6
CONTINUOUS
10
2.23447
20
-6.3043
11
2.23822
21
-6.30805
0
LINE
8
BLACK
6
CONTINUOUS
10
2.23822
20
-6.30805
11
2.23447
21
-6.3118
0
LINE
8
BLACK
6
CONTINUOUS
10
2.23447
20
-6.3118
11
2.23072
21
-6.30805
0
LINE
8
BLACK
6
CONTINUOUS
10
2.23072
20
-6.30805
11
2.23447
21
-6.3043
0
LINE
8
BLACK
6
CONTINUOUS
10
2.23447
20
-6.3043
11
2.23447
21
-6.3118
0
LINE
8
BLACK
6
CONTINUOUS
10
2.23447
20
-6.26306
11
2.23822
21
-6.26681
0
LINE
8
BLACK
6
CONTINUOUS
10
2.23822
20
-6.26681
11
2.23447
21
-6.27056
0
LINE
8
BLACK
6
CONTINUOUS
10
2.23447
20
-6.27056
11
2.23072
21
-6.26681
0
LINE
8
BLACK
6
CONTINUOUS
10
2.23072
20
-6.26681
11
2.23447
21
-6.26306
0
LINE
8
BLACK
6
CONTINUOUS
10
2.23447
20
-6.26306
11
2.23447
21
-6.27056
  0
ENDSEC
  0
EOF
