  0
SECTION
  2
HEADER
  9
$ANGBASE
  50
0.0
  9
$ANGDIR
  70
1
  9
$MEASUREMENT
  70
0
  0
ENDSEC
  0
SECTION
  2
TABLES
  0
TABLE
  2
LTYPE
  70
4
  0
LTYPE
  5
40F
  2
CONTINUOUS
  70
0
  3
Solid line
  72
65
  73
0
  40
0.0
  0
LTYPE
  5
410
  2
DASHDOT
 70
0
  3
Dash Dot ____ _ ____ _
 72
65
 73
4
 40
2.0
 49
1.25
 49
-0.25
 49
0.25
 49
-0.25
  0
LTYPE
  5
411
  2
DASHED
 70
0
  3
Dashed __ __ __ __ __
 72
65
 73
2
 40
0.75
 49
0.5
 49
-0.25
  0
LTYPE
  5
43B
  2
DOTTED
 70
0
  3
Dotted .  .  .  .
 72
65
 73
2
 40
0.2
 49
0.0
 49
-0.2
  0
ENDTAB
  0
TABLE
  2
STYLE
  70
4
  0
STYLE
  2
KICAD
  70
0
  40
0
  41
1
  42
1
  50
0
  71
0
  3
isocp.shx
  0
STYLE
  2
KICADB
  70
0
  40
0
  41
1
  42
1
  50
0
  71
0
  3
isocp.shx
  0
STYLE
  2
KICADI
  70
0
  40
0
  41
1
  42
1
  50
15
  71
0
  3
isocp.shx
  0
STYLE
  2
KICADBI
  70
0
  40
0
  41
1
  42
1
  50
15
  71
0
  3
isocp.shx
  0
ENDTAB
  0
TABLE
  2
LAYER
  70
1
  0
LAYER
  2
BLACK
  70
0
  62
7
  6
CONTINUOUS
  0
ENDTAB
  0
ENDSEC
  0
SECTION
  2
ENTITIES
0
CIRCLE
8
BLACK
10
4.63268
20
-5.9876
40
0.125984
0
LINE
8
BLACK
6
CONTINUOUS
10
4.84508
20
-3.7876
11
1.59508
21
-3.7876
0
LINE
8
BLACK
6
CONTINUOUS
10
1.59508
20
-3.7876
11
1.59508
21
-6.1876
0
LINE
8
BLACK
6
CONTINUOUS
10
1.59508
20
-6.1876
11
4.84508
21
-6.1876
0
LINE
8
BLACK
6
CONTINUOUS
10
4.84508
20
-6.1876
11
4.84508
21
-3.7876
0
CIRCLE
8
BLACK
10
4.63268
20
-3.9876
40
0.125984
0
CIRCLE
8
BLACK
10
1.79508
20
-3.9876
40
0.125984
0
CIRCLE
8
BLACK
10
1.79508
20
-5.9876
40
0.125984
0
LINE
8
BLACK
6
CONTINUOUS
10
3.46594
20
-4.43465
11
3.49665
21
-4.46535
0
LINE
8
BLACK
6
CONTINUOUS
10
3.49665
20
-4.43465
11
3.46594
21
-4.46535
0
LINE
8
BLACK
6
CONTINUOUS
10
3.46594
20
-4.53465
11
3.49665
21
-4.56535
0
LINE
8
BLACK
6
CONTINUOUS
10
3.49665
20
-4.53465
11
3.46594
21
-4.56535
0
LINE
8
BLACK
6
CONTINUOUS
10
3.46594
20
-4.63465
11
3.49665
21
-4.66535
0
LINE
8
BLACK
6
CONTINUOUS
10
3.49665
20
-4.63465
11
3.46594
21
-4.66535
0
LINE
8
BLACK
6
CONTINUOUS
10
3.46594
20
-4.73465
11
3.49665
21
-4.76535
0
LINE
8
BLACK
6
CONTINUOUS
10
3.49665
20
-4.73465
11
3.46594
21
-4.76535
0
LINE
8
BLACK
6
CONTINUOUS
10
3.46594
20
-4.83465
11
3.49665
21
-4.86535
0
LINE
8
BLACK
6
CONTINUOUS
10
3.49665
20
-4.83465
11
3.46594
21
-4.86535
0
LINE
8
BLACK
6
CONTINUOUS
10
3.46594
20
-4.93465
11
3.49665
21
-4.96535
0
LINE
8
BLACK
6
CONTINUOUS
10
3.49665
20
-4.93465
11
3.46594
21
-4.96535
0
LINE
8
BLACK
6
CONTINUOUS
10
3.46594
20
-5.03465
11
3.49665
21
-5.06535
0
LINE
8
BLACK
6
CONTINUOUS
10
3.49665
20
-5.03465
11
3.46594
21
-5.06535
0
LINE
8
BLACK
6
CONTINUOUS
10
3.46594
20
-5.13465
11
3.49665
21
-5.16535
0
LINE
8
BLACK
6
CONTINUOUS
10
3.49665
20
-5.13465
11
3.46594
21
-5.16535
0
LINE
8
BLACK
6
CONTINUOUS
10
3.77854
20
-4.43465
11
3.80925
21
-4.46535
0
LINE
8
BLACK
6
CONTINUOUS
10
3.80925
20
-4.43465
11
3.77854
21
-4.46535
0
LINE
8
BLACK
6
CONTINUOUS
10
3.77854
20
-4.53465
11
3.80925
21
-4.56535
0
LINE
8
BLACK
6
CONTINUOUS
10
3.80925
20
-4.53465
11
3.77854
21
-4.56535
0
LINE
8
BLACK
6
CONTINUOUS
10
3.77854
20
-4.63465
11
3.80925
21
-4.66535
0
LINE
8
BLACK
6
CONTINUOUS
10
3.80925
20
-4.63465
11
3.77854
21
-4.66535
0
LINE
8
BLACK
6
CONTINUOUS
10
3.77854
20
-4.73465
11
3.80925
21
-4.76535
0
LINE
8
BLACK
6
CONTINUOUS
10
3.80925
20
-4.73465
11
3.77854
21
-4.76535
0
LINE
8
BLACK
6
CONTINUOUS
10
3.77854
20
-4.83465
11
3.80925
21
-4.86535
0
LINE
8
BLACK
6
CONTINUOUS
10
3.80925
20
-4.83465
11
3.77854
21
-4.86535
0
LINE
8
BLACK
6
CONTINUOUS
10
3.77854
20
-4.93465
11
3.80925
21
-4.96535
0
LINE
8
BLACK
6
CONTINUOUS
10
3.80925
20
-4.93465
11
3.77854
21
-4.96535
0
LINE
8
BLACK
6
CONTINUOUS
10
3.77854
20
-5.03465
11
3.80925
21
-5.06535
0
LINE
8
BLACK
6
CONTINUOUS
10
3.80925
20
-5.03465
11
3.77854
21
-5.06535
0
LINE
8
BLACK
6
CONTINUOUS
10
3.77854
20
-5.13465
11
3.80925
21
-5.16535
0
LINE
8
BLACK
6
CONTINUOUS
10
3.80925
20
-5.13465
11
3.77854
21
-5.16535
0
CIRCLE
8
BLACK
10
1.89508
20
-5.0876
40
0.015748
0
CIRCLE
8
BLACK
10
1.89508
20
-5.6876
40
0.015748
0
CIRCLE
8
BLACK
10
2.49508
20
-5.0876
40
0.015748
0
CIRCLE
8
BLACK
10
2.49508
20
-5.6876
40
0.015748
0
CIRCLE
8
BLACK
10
2.5
20
-4.2
40
0.015748
0
CIRCLE
8
BLACK
10
2.5
20
-4.8
40
0.015748
0
CIRCLE
8
BLACK
10
2.9
20
-5.3
40
0.015748
0
CIRCLE
8
BLACK
10
2.9
20
-5.4
40
0.015748
0
CIRCLE
8
BLACK
10
2.9
20
-5.5
40
0.015748
0
CIRCLE
8
BLACK
10
3.53268
20
-5.5876
40
0.015748
0
CIRCLE
8
BLACK
10
3.63268
20
-5.5876
40
0.015748
0
CIRCLE
8
BLACK
10
3.73268
20
-5.5876
40
0.015748
0
LINE
8
BLACK
6
CONTINUOUS
10
2.93268
20
-4.16791
11
2.93268
21
-4.20728
0
LINE
8
BLACK
6
CONTINUOUS
10
2.91299
20
-4.1876
11
2.95236
21
-4.1876
0
LINE
8
BLACK
6
CONTINUOUS
10
3.17028
20
-4.93031
11
3.17028
21
-4.96969
0
LINE
8
BLACK
6
CONTINUOUS
10
3.15059
20
-4.95
11
3.18996
21
-4.95
0
LINE
8
BLACK
6
CONTINUOUS
10
3.23819
20
-5.27343
11
3.23819
21
-5.3128
0
LINE
8
BLACK
6
CONTINUOUS
10
3.2185
20
-5.29311
11
3.25787
21
-5.29311
0
LINE
8
BLACK
6
CONTINUOUS
10
4.13268
20
-5.06791
11
4.13268
21
-5.10728
0
LINE
8
BLACK
6
CONTINUOUS
10
4.11299
20
-5.0876
11
4.15236
21
-5.0876
0
LINE
8
BLACK
6
CONTINUOUS
10
4.10821
20
-4.40152
11
4.10821
21
-4.37368
0
LINE
8
BLACK
6
CONTINUOUS
10
4.10821
20
-4.37368
11
4.08037
21
-4.37368
0
LINE
8
BLACK
6
CONTINUOUS
10
4.08037
20
-4.37368
11
4.08037
21
-4.40152
0
LINE
8
BLACK
6
CONTINUOUS
10
4.08037
20
-4.40152
11
4.10821
21
-4.40152
0
LINE
8
BLACK
6
CONTINUOUS
10
4.10821
20
-4.50152
11
4.10821
21
-4.47368
0
LINE
8
BLACK
6
CONTINUOUS
10
4.10821
20
-4.47368
11
4.08037
21
-4.47368
0
LINE
8
BLACK
6
CONTINUOUS
10
4.08037
20
-4.47368
11
4.08037
21
-4.50152
0
LINE
8
BLACK
6
CONTINUOUS
10
4.08037
20
-4.50152
11
4.10821
21
-4.50152
0
LINE
8
BLACK
6
CONTINUOUS
10
4.10821
20
-4.60152
11
4.10821
21
-4.57368
0
LINE
8
BLACK
6
CONTINUOUS
10
4.10821
20
-4.57368
11
4.08037
21
-4.57368
0
LINE
8
BLACK
6
CONTINUOUS
10
4.08037
20
-4.57368
11
4.08037
21
-4.60152
0
LINE
8
BLACK
6
CONTINUOUS
10
4.08037
20
-4.60152
11
4.10821
21
-4.60152
0
LINE
8
BLACK
6
CONTINUOUS
10
4.10821
20
-4.70152
11
4.10821
21
-4.67368
0
LINE
8
BLACK
6
CONTINUOUS
10
4.10821
20
-4.67368
11
4.08037
21
-4.67368
0
LINE
8
BLACK
6
CONTINUOUS
10
4.08037
20
-4.67368
11
4.08037
21
-4.70152
0
LINE
8
BLACK
6
CONTINUOUS
10
4.08037
20
-4.70152
11
4.10821
21
-4.70152
0
LINE
8
BLACK
6
CONTINUOUS
10
4.20821
20
-4.40152
11
4.20821
21
-4.37368
0
LINE
8
BLACK
6
CONTINUOUS
10
4.20821
20
-4.37368
11
4.18037
21
-4.37368
0
LINE
8
BLACK
6
CONTINUOUS
10
4.18037
20
-4.37368
11
4.18037
21
-4.40152
0
LINE
8
BLACK
6
CONTINUOUS
10
4.18037
20
-4.40152
11
4.20821
21
-4.40152
0
LINE
8
BLACK
6
CONTINUOUS
10
4.20821
20
-4.50152
11
4.20821
21
-4.47368
0
LINE
8
BLACK
6
CONTINUOUS
10
4.20821
20
-4.47368
11
4.18037
21
-4.47368
0
LINE
8
BLACK
6
CONTINUOUS
10
4.18037
20
-4.47368
11
4.18037
21
-4.50152
0
LINE
8
BLACK
6
CONTINUOUS
10
4.18037
20
-4.50152
11
4.20821
21
-4.50152
0
LINE
8
BLACK
6
CONTINUOUS
10
4.20821
20
-4.60152
11
4.20821
21
-4.57368
0
LINE
8
BLACK
6
CONTINUOUS
10
4.20821
20
-4.57368
11
4.18037
21
-4.57368
0
LINE
8
BLACK
6
CONTINUOUS
10
4.18037
20
-4.57368
11
4.18037
21
-4.60152
0
LINE
8
BLACK
6
CONTINUOUS
10
4.18037
20
-4.60152
11
4.20821
21
-4.60152
0
LINE
8
BLACK
6
CONTINUOUS
10
4.20821
20
-4.70152
11
4.20821
21
-4.67368
0
LINE
8
BLACK
6
CONTINUOUS
10
4.20821
20
-4.67368
11
4.18037
21
-4.67368
0
LINE
8
BLACK
6
CONTINUOUS
10
4.18037
20
-4.67368
11
4.18037
21
-4.70152
0
LINE
8
BLACK
6
CONTINUOUS
10
4.18037
20
-4.70152
11
4.20821
21
-4.70152
0
LINE
8
BLACK
6
CONTINUOUS
10
1.9
20
-4.48583
11
1.92362
21
-4.4622
0
LINE
8
BLACK
6
CONTINUOUS
10
1.92362
20
-4.4622
11
1.9
21
-4.43858
0
LINE
8
BLACK
6
CONTINUOUS
10
1.9
20
-4.43858
11
1.87638
21
-4.4622
0
LINE
8
BLACK
6
CONTINUOUS
10
1.87638
20
-4.4622
11
1.9
21
-4.48583
0
LINE
8
BLACK
6
CONTINUOUS
10
1.9
20
-4.62362
11
1.92362
21
-4.6
0
LINE
8
BLACK
6
CONTINUOUS
10
1.92362
20
-4.6
11
1.9
21
-4.57638
0
LINE
8
BLACK
6
CONTINUOUS
10
1.9
20
-4.57638
11
1.87638
21
-4.6
0
LINE
8
BLACK
6
CONTINUOUS
10
1.87638
20
-4.6
11
1.9
21
-4.62362
0
LINE
8
BLACK
6
CONTINUOUS
10
3.43268
20
-4.11122
11
3.4563
21
-4.0876
0
LINE
8
BLACK
6
CONTINUOUS
10
3.4563
20
-4.0876
11
3.43268
21
-4.06398
0
LINE
8
BLACK
6
CONTINUOUS
10
3.43268
20
-4.06398
11
3.40906
21
-4.0876
0
LINE
8
BLACK
6
CONTINUOUS
10
3.40906
20
-4.0876
11
3.43268
21
-4.11122
0
LINE
8
BLACK
6
CONTINUOUS
10
3.57047
20
-4.11122
11
3.59409
21
-4.0876
0
LINE
8
BLACK
6
CONTINUOUS
10
3.59409
20
-4.0876
11
3.57047
21
-4.06398
0
LINE
8
BLACK
6
CONTINUOUS
10
3.57047
20
-4.06398
11
3.54685
21
-4.0876
0
LINE
8
BLACK
6
CONTINUOUS
10
3.54685
20
-4.0876
11
3.57047
21
-4.11122
0
LINE
8
BLACK
6
CONTINUOUS
10
4.50059
20
-5.04232
11
4.52421
21
-5.0187
0
LINE
8
BLACK
6
CONTINUOUS
10
4.52421
20
-5.0187
11
4.50059
21
-4.99508
0
LINE
8
BLACK
6
CONTINUOUS
10
4.50059
20
-4.99508
11
4.47697
21
-5.0187
0
LINE
8
BLACK
6
CONTINUOUS
10
4.47697
20
-5.0187
11
4.50059
21
-5.04232
0
LINE
8
BLACK
6
CONTINUOUS
10
4.50059
20
-5.18012
11
4.52421
21
-5.1565
0
LINE
8
BLACK
6
CONTINUOUS
10
4.52421
20
-5.1565
11
4.50059
21
-5.13287
0
LINE
8
BLACK
6
CONTINUOUS
10
4.50059
20
-5.13287
11
4.47697
21
-5.1565
0
LINE
8
BLACK
6
CONTINUOUS
10
4.47697
20
-5.1565
11
4.50059
21
-5.18012
0
LINE
8
BLACK
6
CONTINUOUS
10
1.69454
20
-6.3118
11
1.69454
21
-6.23306
0
LINE
8
BLACK
6
CONTINUOUS
10
1.69454
20
-6.23306
11
1.71328
21
-6.23306
0
LINE
8
BLACK
6
CONTINUOUS
10
1.71328
20
-6.23306
11
1.72453
21
-6.23681
0
LINE
8
BLACK
6
CONTINUOUS
10
1.72453
20
-6.23681
11
1.73203
21
-6.24431
0
LINE
8
BLACK
6
CONTINUOUS
10
1.73203
20
-6.24431
11
1.73578
21
-6.25181
0
LINE
8
BLACK
6
CONTINUOUS
10
1.73578
20
-6.25181
11
1.73953
21
-6.26681
0
LINE
8
BLACK
6
CONTINUOUS
10
1.73953
20
-6.26681
11
1.73953
21
-6.27806
0
LINE
8
BLACK
6
CONTINUOUS
10
1.73953
20
-6.27806
11
1.73578
21
-6.29305
0
LINE
8
BLACK
6
CONTINUOUS
10
1.73578
20
-6.29305
11
1.73203
21
-6.30055
0
LINE
8
BLACK
6
CONTINUOUS
10
1.73203
20
-6.30055
11
1.72453
21
-6.30805
0
LINE
8
BLACK
6
CONTINUOUS
10
1.72453
20
-6.30805
11
1.71328
21
-6.3118
0
LINE
8
BLACK
6
CONTINUOUS
10
1.71328
20
-6.3118
11
1.69454
21
-6.3118
0
LINE
8
BLACK
6
CONTINUOUS
10
1.77328
20
-6.3118
11
1.77328
21
-6.25931
0
LINE
8
BLACK
6
CONTINUOUS
10
1.77328
20
-6.27431
11
1.77702
21
-6.26681
0
LINE
8
BLACK
6
CONTINUOUS
10
1.77702
20
-6.26681
11
1.78077
21
-6.26306
0
LINE
8
BLACK
6
CONTINUOUS
10
1.78077
20
-6.26306
11
1.78827
21
-6.25931
0
LINE
8
BLACK
6
CONTINUOUS
10
1.78827
20
-6.25931
11
1.79577
21
-6.25931
0
LINE
8
BLACK
6
CONTINUOUS
10
1.82202
20
-6.3118
11
1.82202
21
-6.25931
0
LINE
8
BLACK
6
CONTINUOUS
10
1.82202
20
-6.23306
11
1.81827
21
-6.23681
0
LINE
8
BLACK
6
CONTINUOUS
10
1.81827
20
-6.23681
11
1.82202
21
-6.24056
0
LINE
8
BLACK
6
CONTINUOUS
10
1.82202
20
-6.24056
11
1.82577
21
-6.23681
0
LINE
8
BLACK
6
CONTINUOUS
10
1.82577
20
-6.23681
11
1.82202
21
-6.23306
0
LINE
8
BLACK
6
CONTINUOUS
10
1.82202
20
-6.23306
11
1.82202
21
-6.24056
0
LINE
8
BLACK
6
CONTINUOUS
10
1.87076
20
-6.3118
11
1.86326
21
-6.30805
0
LINE
8
BLACK
6
CONTINUOUS
10
1.86326
20
-6.30805
11
1.85951
21
-6.30055
0
LINE
8
BLACK
6
CONTINUOUS
10
1.85951
20
-6.30055
11
1.85951
21
-6.23306
0
LINE
8
BLACK
6
CONTINUOUS
10
1.91201
20
-6.3118
11
1.90451
21
-6.30805
0
LINE
8
BLACK
6
CONTINUOUS
10
1.90451
20
-6.30805
11
1.90076
21
-6.30055
0
LINE
8
BLACK
6
CONTINUOUS
10
1.90076
20
-6.30055
11
1.90076
21
-6.23306
0
LINE
8
BLACK
6
CONTINUOUS
10
2.002
20
-6.3118
11
2.002
21
-6.23306
0
LINE
8
BLACK
6
CONTINUOUS
10
2.002
20
-6.23306
11
2.02824
21
-6.2893
0
LINE
8
BLACK
6
CONTINUOUS
10
2.02824
20
-6.2893
11
2.05449
21
-6.23306
0
LINE
8
BLACK
6
CONTINUOUS
10
2.05449
20
-6.23306
11
2.05449
21
-6.3118
0
LINE
8
BLACK
6
CONTINUOUS
10
2.12573
20
-6.3118
11
2.12573
21
-6.27056
0
LINE
8
BLACK
6
CONTINUOUS
10
2.12573
20
-6.27056
11
2.12198
21
-6.26306
0
LINE
8
BLACK
6
CONTINUOUS
10
2.12198
20
-6.26306
11
2.11448
21
-6.25931
0
LINE
8
BLACK
6
CONTINUOUS
10
2.11448
20
-6.25931
11
2.09948
21
-6.25931
0
LINE
8
BLACK
6
CONTINUOUS
10
2.09948
20
-6.25931
11
2.09199
21
-6.26306
0
LINE
8
BLACK
6
CONTINUOUS
10
2.12573
20
-6.30805
11
2.11823
21
-6.3118
0
LINE
8
BLACK
6
CONTINUOUS
10
2.11823
20
-6.3118
11
2.09948
21
-6.3118
0
LINE
8
BLACK
6
CONTINUOUS
10
2.09948
20
-6.3118
11
2.09199
21
-6.30805
0
LINE
8
BLACK
6
CONTINUOUS
10
2.09199
20
-6.30805
11
2.08824
21
-6.30055
0
LINE
8
BLACK
6
CONTINUOUS
10
2.08824
20
-6.30055
11
2.08824
21
-6.29305
0
LINE
8
BLACK
6
CONTINUOUS
10
2.08824
20
-6.29305
11
2.09199
21
-6.28555
0
LINE
8
BLACK
6
CONTINUOUS
10
2.09199
20
-6.28555
11
2.09948
21
-6.28181
0
LINE
8
BLACK
6
CONTINUOUS
10
2.09948
20
-6.28181
11
2.11823
21
-6.28181
0
LINE
8
BLACK
6
CONTINUOUS
10
2.11823
20
-6.28181
11
2.12573
21
-6.27806
0
LINE
8
BLACK
6
CONTINUOUS
10
2.16323
20
-6.25931
11
2.16323
21
-6.33805
0
LINE
8
BLACK
6
CONTINUOUS
10
2.16323
20
-6.26306
11
2.17073
21
-6.25931
0
LINE
8
BLACK
6
CONTINUOUS
10
2.17073
20
-6.25931
11
2.18572
21
-6.25931
0
LINE
8
BLACK
6
CONTINUOUS
10
2.18572
20
-6.25931
11
2.19322
21
-6.26306
0
LINE
8
BLACK
6
CONTINUOUS
10
2.19322
20
-6.26306
11
2.19697
21
-6.26681
0
LINE
8
BLACK
6
CONTINUOUS
10
2.19697
20
-6.26681
11
2.20072
21
-6.27431
0
LINE
8
BLACK
6
CONTINUOUS
10
2.20072
20
-6.27431
11
2.20072
21
-6.2968
0
LINE
8
BLACK
6
CONTINUOUS
10
2.20072
20
-6.2968
11
2.19697
21
-6.3043
0
LINE
8
BLACK
6
CONTINUOUS
10
2.19697
20
-6.3043
11
2.19322
21
-6.30805
0
LINE
8
BLACK
6
CONTINUOUS
10
2.19322
20
-6.30805
11
2.18572
21
-6.3118
0
LINE
8
BLACK
6
CONTINUOUS
10
2.18572
20
-6.3118
11
2.17073
21
-6.3118
0
LINE
8
BLACK
6
CONTINUOUS
10
2.17073
20
-6.3118
11
2.16323
21
-6.30805
0
LINE
8
BLACK
6
CONTINUOUS
10
2.23447
20
-6.3043
11
2.23822
21
-6.30805
0
LINE
8
BLACK
6
CONTINUOUS
10
2.23822
20
-6.30805
11
2.23447
21
-6.3118
0
LINE
8
BLACK
6
CONTINUOUS
10
2.23447
20
-6.3118
11
2.23072
21
-6.30805
0
LINE
8
BLACK
6
CONTINUOUS
10
2.23072
20
-6.30805
11
2.23447
21
-6.3043
0
LINE
8
BLACK
6
CONTINUOUS
10
2.23447
20
-6.3043
11
2.23447
21
-6.3118
0
LINE
8
BLACK
6
CONTINUOUS
10
2.23447
20
-6.26306
11
2.23822
21
-6.26681
0
LINE
8
BLACK
6
CONTINUOUS
10
2.23822
20
-6.26681
11
2.23447
21
-6.27056
0
LINE
8
BLACK
6
CONTINUOUS
10
2.23447
20
-6.27056
11
2.23072
21
-6.26681
0
LINE
8
BLACK
6
CONTINUOUS
10
2.23072
20
-6.26681
11
2.23447
21
-6.26306
0
LINE
8
BLACK
6
CONTINUOUS
10
2.23447
20
-6.26306
11
2.23447
21
-6.27056
0
LINE
8
BLACK
6
CONTINUOUS
10
1.5624
20
-6.42618
11
1.59311
21
-6.45689
0
LINE
8
BLACK
6
CONTINUOUS
10
1.59311
20
-6.42618
11
1.5624
21
-6.45689
0
LINE
8
BLACK
6
CONTINUOUS
10
1.70953
20
-6.39842
11
1.71703
21
-6.39842
0
LINE
8
BLACK
6
CONTINUOUS
10
1.71703
20
-6.39842
11
1.72453
21
-6.40217
0
LINE
8
BLACK
6
CONTINUOUS
10
1.72453
20
-6.40217
11
1.72828
21
-6.40591
0
LINE
8
BLACK
6
CONTINUOUS
10
1.72828
20
-6.40591
11
1.73203
21
-6.41341
0
LINE
8
BLACK
6
CONTINUOUS
10
1.73203
20
-6.41341
11
1.73578
21
-6.42841
0
LINE
8
BLACK
6
CONTINUOUS
10
1.73578
20
-6.42841
11
1.73578
21
-6.44716
0
LINE
8
BLACK
6
CONTINUOUS
10
1.73578
20
-6.44716
11
1.73203
21
-6.46216
0
LINE
8
BLACK
6
CONTINUOUS
10
1.73203
20
-6.46216
11
1.72828
21
-6.46966
0
LINE
8
BLACK
6
CONTINUOUS
10
1.72828
20
-6.46966
11
1.72453
21
-6.47341
0
LINE
8
BLACK
6
CONTINUOUS
10
1.72453
20
-6.47341
11
1.71703
21
-6.47716
0
LINE
8
BLACK
6
CONTINUOUS
10
1.71703
20
-6.47716
11
1.70953
21
-6.47716
0
LINE
8
BLACK
6
CONTINUOUS
10
1.70953
20
-6.47716
11
1.70203
21
-6.47341
0
LINE
8
BLACK
6
CONTINUOUS
10
1.70203
20
-6.47341
11
1.69828
21
-6.46966
0
LINE
8
BLACK
6
CONTINUOUS
10
1.69828
20
-6.46966
11
1.69454
21
-6.46216
0
LINE
8
BLACK
6
CONTINUOUS
10
1.69454
20
-6.46216
11
1.69079
21
-6.44716
0
LINE
8
BLACK
6
CONTINUOUS
10
1.69079
20
-6.44716
11
1.69079
21
-6.42841
0
LINE
8
BLACK
6
CONTINUOUS
10
1.69079
20
-6.42841
11
1.69454
21
-6.41341
0
LINE
8
BLACK
6
CONTINUOUS
10
1.69454
20
-6.41341
11
1.69828
21
-6.40591
0
LINE
8
BLACK
6
CONTINUOUS
10
1.69828
20
-6.40591
11
1.70203
21
-6.40217
0
LINE
8
BLACK
6
CONTINUOUS
10
1.70203
20
-6.40217
11
1.70953
21
-6.39842
0
LINE
8
BLACK
6
CONTINUOUS
10
1.76953
20
-6.46966
11
1.77328
21
-6.47341
0
LINE
8
BLACK
6
CONTINUOUS
10
1.77328
20
-6.47341
11
1.76953
21
-6.47716
0
LINE
8
BLACK
6
CONTINUOUS
10
1.76953
20
-6.47716
11
1.76578
21
-6.47341
0
LINE
8
BLACK
6
CONTINUOUS
10
1.76578
20
-6.47341
11
1.76953
21
-6.46966
0
LINE
8
BLACK
6
CONTINUOUS
10
1.76953
20
-6.46966
11
1.76953
21
-6.47716
0
LINE
8
BLACK
6
CONTINUOUS
10
1.79952
20
-6.39842
11
1.85202
21
-6.39842
0
LINE
8
BLACK
6
CONTINUOUS
10
1.85202
20
-6.39842
11
1.81827
21
-6.47716
0
LINE
8
BLACK
6
CONTINUOUS
10
1.89326
20
-6.43216
11
1.88576
21
-6.42841
0
LINE
8
BLACK
6
CONTINUOUS
10
1.88576
20
-6.42841
11
1.88201
21
-6.42466
0
LINE
8
BLACK
6
CONTINUOUS
10
1.88201
20
-6.42466
11
1.87826
21
-6.41716
0
LINE
8
BLACK
6
CONTINUOUS
10
1.87826
20
-6.41716
11
1.87826
21
-6.41341
0
LINE
8
BLACK
6
CONTINUOUS
10
1.87826
20
-6.41341
11
1.88201
21
-6.40591
0
LINE
8
BLACK
6
CONTINUOUS
10
1.88201
20
-6.40591
11
1.88576
21
-6.40217
0
LINE
8
BLACK
6
CONTINUOUS
10
1.88576
20
-6.40217
11
1.89326
21
-6.39842
0
LINE
8
BLACK
6
CONTINUOUS
10
1.89326
20
-6.39842
11
1.90826
21
-6.39842
0
LINE
8
BLACK
6
CONTINUOUS
10
1.90826
20
-6.39842
11
1.91576
21
-6.40217
0
LINE
8
BLACK
6
CONTINUOUS
10
1.91576
20
-6.40217
11
1.91951
21
-6.40591
0
LINE
8
BLACK
6
CONTINUOUS
10
1.91951
20
-6.40591
11
1.92326
21
-6.41341
0
LINE
8
BLACK
6
CONTINUOUS
10
1.92326
20
-6.41341
11
1.92326
21
-6.41716
0
LINE
8
BLACK
6
CONTINUOUS
10
1.92326
20
-6.41716
11
1.91951
21
-6.42466
0
LINE
8
BLACK
6
CONTINUOUS
10
1.91951
20
-6.42466
11
1.91576
21
-6.42841
0
LINE
8
BLACK
6
CONTINUOUS
10
1.91576
20
-6.42841
11
1.90826
21
-6.43216
0
LINE
8
BLACK
6
CONTINUOUS
10
1.90826
20
-6.43216
11
1.89326
21
-6.43216
0
LINE
8
BLACK
6
CONTINUOUS
10
1.89326
20
-6.43216
11
1.88576
21
-6.43591
0
LINE
8
BLACK
6
CONTINUOUS
10
1.88576
20
-6.43591
11
1.88201
21
-6.43966
0
LINE
8
BLACK
6
CONTINUOUS
10
1.88201
20
-6.43966
11
1.87826
21
-6.44716
0
LINE
8
BLACK
6
CONTINUOUS
10
1.87826
20
-6.44716
11
1.87826
21
-6.46216
0
LINE
8
BLACK
6
CONTINUOUS
10
1.87826
20
-6.46216
11
1.88201
21
-6.46966
0
LINE
8
BLACK
6
CONTINUOUS
10
1.88201
20
-6.46966
11
1.88576
21
-6.47341
0
LINE
8
BLACK
6
CONTINUOUS
10
1.88576
20
-6.47341
11
1.89326
21
-6.47716
0
LINE
8
BLACK
6
CONTINUOUS
10
1.89326
20
-6.47716
11
1.90826
21
-6.47716
0
LINE
8
BLACK
6
CONTINUOUS
10
1.90826
20
-6.47716
11
1.91576
21
-6.47341
0
LINE
8
BLACK
6
CONTINUOUS
10
1.91576
20
-6.47341
11
1.91951
21
-6.46966
0
LINE
8
BLACK
6
CONTINUOUS
10
1.91951
20
-6.46966
11
1.92326
21
-6.46216
0
LINE
8
BLACK
6
CONTINUOUS
10
1.92326
20
-6.46216
11
1.92326
21
-6.44716
0
LINE
8
BLACK
6
CONTINUOUS
10
1.92326
20
-6.44716
11
1.91951
21
-6.43966
0
LINE
8
BLACK
6
CONTINUOUS
10
1.91951
20
-6.43966
11
1.91576
21
-6.43591
0
LINE
8
BLACK
6
CONTINUOUS
10
1.91576
20
-6.43591
11
1.90826
21
-6.43216
0
LINE
8
BLACK
6
CONTINUOUS
10
1.972
20
-6.39842
11
1.9795
21
-6.39842
0
LINE
8
BLACK
6
CONTINUOUS
10
1.9795
20
-6.39842
11
1.987
21
-6.40217
0
LINE
8
BLACK
6
CONTINUOUS
10
1.987
20
-6.40217
11
1.99075
21
-6.40591
0
LINE
8
BLACK
6
CONTINUOUS
10
1.99075
20
-6.40591
11
1.9945
21
-6.41341
0
LINE
8
BLACK
6
CONTINUOUS
10
1.9945
20
-6.41341
11
1.99825
21
-6.42841
0
LINE
8
BLACK
6
CONTINUOUS
10
1.99825
20
-6.42841
11
1.99825
21
-6.44716
0
LINE
8
BLACK
6
CONTINUOUS
10
1.99825
20
-6.44716
11
1.9945
21
-6.46216
0
LINE
8
BLACK
6
CONTINUOUS
10
1.9945
20
-6.46216
11
1.99075
21
-6.46966
0
LINE
8
BLACK
6
CONTINUOUS
10
1.99075
20
-6.46966
11
1.987
21
-6.47341
0
LINE
8
BLACK
6
CONTINUOUS
10
1.987
20
-6.47341
11
1.9795
21
-6.47716
0
LINE
8
BLACK
6
CONTINUOUS
10
1.9795
20
-6.47716
11
1.972
21
-6.47716
0
LINE
8
BLACK
6
CONTINUOUS
10
1.972
20
-6.47716
11
1.9645
21
-6.47341
0
LINE
8
BLACK
6
CONTINUOUS
10
1.9645
20
-6.47341
11
1.96075
21
-6.46966
0
LINE
8
BLACK
6
CONTINUOUS
10
1.96075
20
-6.46966
11
1.957
21
-6.46216
0
LINE
8
BLACK
6
CONTINUOUS
10
1.957
20
-6.46216
11
1.95325
21
-6.44716
0
LINE
8
BLACK
6
CONTINUOUS
10
1.95325
20
-6.44716
11
1.95325
21
-6.42841
0
LINE
8
BLACK
6
CONTINUOUS
10
1.95325
20
-6.42841
11
1.957
21
-6.41341
0
LINE
8
BLACK
6
CONTINUOUS
10
1.957
20
-6.41341
11
1.96075
21
-6.40591
0
LINE
8
BLACK
6
CONTINUOUS
10
1.96075
20
-6.40591
11
1.9645
21
-6.40217
0
LINE
8
BLACK
6
CONTINUOUS
10
1.9645
20
-6.40217
11
1.972
21
-6.39842
0
LINE
8
BLACK
6
CONTINUOUS
10
2.03199
20
-6.47716
11
2.03199
21
-6.42466
0
LINE
8
BLACK
6
CONTINUOUS
10
2.03199
20
-6.43216
11
2.03574
21
-6.42841
0
LINE
8
BLACK
6
CONTINUOUS
10
2.03574
20
-6.42841
11
2.04324
21
-6.42466
0
LINE
8
BLACK
6
CONTINUOUS
10
2.04324
20
-6.42466
11
2.05449
21
-6.42466
0
LINE
8
BLACK
6
CONTINUOUS
10
2.05449
20
-6.42466
11
2.06199
21
-6.42841
0
LINE
8
BLACK
6
CONTINUOUS
10
2.06199
20
-6.42841
11
2.06574
21
-6.43591
0
LINE
8
BLACK
6
CONTINUOUS
10
2.06574
20
-6.43591
11
2.06574
21
-6.47716
0
LINE
8
BLACK
6
CONTINUOUS
10
2.06574
20
-6.43591
11
2.06949
21
-6.42841
0
LINE
8
BLACK
6
CONTINUOUS
10
2.06949
20
-6.42841
11
2.07699
21
-6.42466
0
LINE
8
BLACK
6
CONTINUOUS
10
2.07699
20
-6.42466
11
2.08824
21
-6.42466
0
LINE
8
BLACK
6
CONTINUOUS
10
2.08824
20
-6.42466
11
2.09573
21
-6.42841
0
LINE
8
BLACK
6
CONTINUOUS
10
2.09573
20
-6.42841
11
2.09948
21
-6.43591
0
LINE
8
BLACK
6
CONTINUOUS
10
2.09948
20
-6.43591
11
2.09948
21
-6.47716
0
LINE
8
BLACK
6
CONTINUOUS
10
2.13698
20
-6.47716
11
2.13698
21
-6.42466
0
LINE
8
BLACK
6
CONTINUOUS
10
2.13698
20
-6.43216
11
2.14073
21
-6.42841
0
LINE
8
BLACK
6
CONTINUOUS
10
2.14073
20
-6.42841
11
2.14823
21
-6.42466
0
LINE
8
BLACK
6
CONTINUOUS
10
2.14823
20
-6.42466
11
2.15948
21
-6.42466
0
LINE
8
BLACK
6
CONTINUOUS
10
2.15948
20
-6.42466
11
2.16698
21
-6.42841
0
LINE
8
BLACK
6
CONTINUOUS
10
2.16698
20
-6.42841
11
2.17073
21
-6.43591
0
LINE
8
BLACK
6
CONTINUOUS
10
2.17073
20
-6.43591
11
2.17073
21
-6.47716
0
LINE
8
BLACK
6
CONTINUOUS
10
2.17073
20
-6.43591
11
2.17448
21
-6.42841
0
LINE
8
BLACK
6
CONTINUOUS
10
2.17448
20
-6.42841
11
2.18197
21
-6.42466
0
LINE
8
BLACK
6
CONTINUOUS
10
2.18197
20
-6.42466
11
2.19322
21
-6.42466
0
LINE
8
BLACK
6
CONTINUOUS
10
2.19322
20
-6.42466
11
2.20072
21
-6.42841
0
LINE
8
BLACK
6
CONTINUOUS
10
2.20072
20
-6.42841
11
2.20447
21
-6.43591
0
LINE
8
BLACK
6
CONTINUOUS
10
2.20447
20
-6.43591
11
2.20447
21
-6.47716
0
LINE
8
BLACK
6
CONTINUOUS
10
2.3582
20
-6.39467
11
2.29071
21
-6.4959
0
LINE
8
BLACK
6
CONTINUOUS
10
2.45944
20
-6.39842
11
2.46694
21
-6.39842
0
LINE
8
BLACK
6
CONTINUOUS
10
2.46694
20
-6.39842
11
2.47444
21
-6.40217
0
LINE
8
BLACK
6
CONTINUOUS
10
2.47444
20
-6.40217
11
2.47819
21
-6.40591
0
LINE
8
BLACK
6
CONTINUOUS
10
2.47819
20
-6.40591
11
2.48194
21
-6.41341
0
LINE
8
BLACK
6
CONTINUOUS
10
2.48194
20
-6.41341
11
2.48569
21
-6.42841
0
LINE
8
BLACK
6
CONTINUOUS
10
2.48569
20
-6.42841
11
2.48569
21
-6.44716
0
LINE
8
BLACK
6
CONTINUOUS
10
2.48569
20
-6.44716
11
2.48194
21
-6.46216
0
LINE
8
BLACK
6
CONTINUOUS
10
2.48194
20
-6.46216
11
2.47819
21
-6.46966
0
LINE
8
BLACK
6
CONTINUOUS
10
2.47819
20
-6.46966
11
2.47444
21
-6.47341
0
LINE
8
BLACK
6
CONTINUOUS
10
2.47444
20
-6.47341
11
2.46694
21
-6.47716
0
LINE
8
BLACK
6
CONTINUOUS
10
2.46694
20
-6.47716
11
2.45944
21
-6.47716
0
LINE
8
BLACK
6
CONTINUOUS
10
2.45944
20
-6.47716
11
2.45194
21
-6.47341
0
LINE
8
BLACK
6
CONTINUOUS
10
2.45194
20
-6.47341
11
2.44819
21
-6.46966
0
LINE
8
BLACK
6
CONTINUOUS
10
2.44819
20
-6.46966
11
2.44444
21
-6.46216
0
LINE
8
BLACK
6
CONTINUOUS
10
2.44444
20
-6.46216
11
2.44069
21
-6.44716
0
LINE
8
BLACK
6
CONTINUOUS
10
2.44069
20
-6.44716
11
2.44069
21
-6.42841
0
LINE
8
BLACK
6
CONTINUOUS
10
2.44069
20
-6.42841
11
2.44444
21
-6.41341
0
LINE
8
BLACK
6
CONTINUOUS
10
2.44444
20
-6.41341
11
2.44819
21
-6.40591
0
LINE
8
BLACK
6
CONTINUOUS
10
2.44819
20
-6.40591
11
2.45194
21
-6.40217
0
LINE
8
BLACK
6
CONTINUOUS
10
2.45194
20
-6.40217
11
2.45944
21
-6.39842
0
LINE
8
BLACK
6
CONTINUOUS
10
2.51943
20
-6.46966
11
2.52318
21
-6.47341
0
LINE
8
BLACK
6
CONTINUOUS
10
2.52318
20
-6.47341
11
2.51943
21
-6.47716
0
LINE
8
BLACK
6
CONTINUOUS
10
2.51943
20
-6.47716
11
2.51568
21
-6.47341
0
LINE
8
BLACK
6
CONTINUOUS
10
2.51568
20
-6.47341
11
2.51943
21
-6.46966
0
LINE
8
BLACK
6
CONTINUOUS
10
2.51943
20
-6.46966
11
2.51943
21
-6.47716
0
LINE
8
BLACK
6
CONTINUOUS
10
2.57193
20
-6.39842
11
2.57942
21
-6.39842
0
LINE
8
BLACK
6
CONTINUOUS
10
2.57942
20
-6.39842
11
2.58692
21
-6.40217
0
LINE
8
BLACK
6
CONTINUOUS
10
2.58692
20
-6.40217
11
2.59067
21
-6.40591
0
LINE
8
BLACK
6
CONTINUOUS
10
2.59067
20
-6.40591
11
2.59442
21
-6.41341
0
LINE
8
BLACK
6
CONTINUOUS
10
2.59442
20
-6.41341
11
2.59817
21
-6.42841
0
LINE
8
BLACK
6
CONTINUOUS
10
2.59817
20
-6.42841
11
2.59817
21
-6.44716
0
LINE
8
BLACK
6
CONTINUOUS
10
2.59817
20
-6.44716
11
2.59442
21
-6.46216
0
LINE
8
BLACK
6
CONTINUOUS
10
2.59442
20
-6.46216
11
2.59067
21
-6.46966
0
LINE
8
BLACK
6
CONTINUOUS
10
2.59067
20
-6.46966
11
2.58692
21
-6.47341
0
LINE
8
BLACK
6
CONTINUOUS
10
2.58692
20
-6.47341
11
2.57942
21
-6.47716
0
LINE
8
BLACK
6
CONTINUOUS
10
2.57942
20
-6.47716
11
2.57193
21
-6.47716
0
LINE
8
BLACK
6
CONTINUOUS
10
2.57193
20
-6.47716
11
2.56443
21
-6.47341
0
LINE
8
BLACK
6
CONTINUOUS
10
2.56443
20
-6.47341
11
2.56068
21
-6.46966
0
LINE
8
BLACK
6
CONTINUOUS
10
2.56068
20
-6.46966
11
2.55693
21
-6.46216
0
LINE
8
BLACK
6
CONTINUOUS
10
2.55693
20
-6.46216
11
2.55318
21
-6.44716
0
LINE
8
BLACK
6
CONTINUOUS
10
2.55318
20
-6.44716
11
2.55318
21
-6.42841
0
LINE
8
BLACK
6
CONTINUOUS
10
2.55318
20
-6.42841
11
2.55693
21
-6.41341
0
LINE
8
BLACK
6
CONTINUOUS
10
2.55693
20
-6.41341
11
2.56068
21
-6.40591
0
LINE
8
BLACK
6
CONTINUOUS
10
2.56068
20
-6.40591
11
2.56443
21
-6.40217
0
LINE
8
BLACK
6
CONTINUOUS
10
2.56443
20
-6.40217
11
2.57193
21
-6.39842
0
LINE
8
BLACK
6
CONTINUOUS
10
2.62442
20
-6.39842
11
2.67316
21
-6.39842
0
LINE
8
BLACK
6
CONTINUOUS
10
2.67316
20
-6.39842
11
2.64692
21
-6.42841
0
LINE
8
BLACK
6
CONTINUOUS
10
2.64692
20
-6.42841
11
2.65816
21
-6.42841
0
LINE
8
BLACK
6
CONTINUOUS
10
2.65816
20
-6.42841
11
2.66566
21
-6.43216
0
LINE
8
BLACK
6
CONTINUOUS
10
2.66566
20
-6.43216
11
2.66941
21
-6.43591
0
LINE
8
BLACK
6
CONTINUOUS
10
2.66941
20
-6.43591
11
2.67316
21
-6.44341
0
LINE
8
BLACK
6
CONTINUOUS
10
2.67316
20
-6.44341
11
2.67316
21
-6.46216
0
LINE
8
BLACK
6
CONTINUOUS
10
2.67316
20
-6.46216
11
2.66941
21
-6.46966
0
LINE
8
BLACK
6
CONTINUOUS
10
2.66941
20
-6.46966
11
2.66566
21
-6.47341
0
LINE
8
BLACK
6
CONTINUOUS
10
2.66566
20
-6.47341
11
2.65816
21
-6.47716
0
LINE
8
BLACK
6
CONTINUOUS
10
2.65816
20
-6.47716
11
2.63567
21
-6.47716
0
LINE
8
BLACK
6
CONTINUOUS
10
2.63567
20
-6.47716
11
2.62817
21
-6.47341
0
LINE
8
BLACK
6
CONTINUOUS
10
2.62817
20
-6.47341
11
2.62442
21
-6.46966
0
LINE
8
BLACK
6
CONTINUOUS
10
2.72191
20
-6.39842
11
2.72941
21
-6.39842
0
LINE
8
BLACK
6
CONTINUOUS
10
2.72941
20
-6.39842
11
2.7369
21
-6.40217
0
LINE
8
BLACK
6
CONTINUOUS
10
2.7369
20
-6.40217
11
2.74065
21
-6.40591
0
LINE
8
BLACK
6
CONTINUOUS
10
2.74065
20
-6.40591
11
2.7444
21
-6.41341
0
LINE
8
BLACK
6
CONTINUOUS
10
2.7444
20
-6.41341
11
2.74815
21
-6.42841
0
LINE
8
BLACK
6
CONTINUOUS
10
2.74815
20
-6.42841
11
2.74815
21
-6.44716
0
LINE
8
BLACK
6
CONTINUOUS
10
2.74815
20
-6.44716
11
2.7444
21
-6.46216
0
LINE
8
BLACK
6
CONTINUOUS
10
2.7444
20
-6.46216
11
2.74065
21
-6.46966
0
LINE
8
BLACK
6
CONTINUOUS
10
2.74065
20
-6.46966
11
2.7369
21
-6.47341
0
LINE
8
BLACK
6
CONTINUOUS
10
2.7369
20
-6.47341
11
2.72941
21
-6.47716
0
LINE
8
BLACK
6
CONTINUOUS
10
2.72941
20
-6.47716
11
2.72191
21
-6.47716
0
LINE
8
BLACK
6
CONTINUOUS
10
2.72191
20
-6.47716
11
2.71441
21
-6.47341
0
LINE
8
BLACK
6
CONTINUOUS
10
2.71441
20
-6.47341
11
2.71066
21
-6.46966
0
LINE
8
BLACK
6
CONTINUOUS
10
2.71066
20
-6.46966
11
2.70691
21
-6.46216
0
LINE
8
BLACK
6
CONTINUOUS
10
2.70691
20
-6.46216
11
2.70316
21
-6.44716
0
LINE
8
BLACK
6
CONTINUOUS
10
2.70316
20
-6.44716
11
2.70316
21
-6.42841
0
LINE
8
BLACK
6
CONTINUOUS
10
2.70316
20
-6.42841
11
2.70691
21
-6.41341
0
LINE
8
BLACK
6
CONTINUOUS
10
2.70691
20
-6.41341
11
2.71066
21
-6.40591
0
LINE
8
BLACK
6
CONTINUOUS
10
2.71066
20
-6.40591
11
2.71441
21
-6.40217
0
LINE
8
BLACK
6
CONTINUOUS
10
2.71441
20
-6.40217
11
2.72191
21
-6.39842
0
LINE
8
BLACK
6
CONTINUOUS
10
2.7744
20
-6.39842
11
2.82689
21
-6.39842
0
LINE
8
BLACK
6
CONTINUOUS
10
2.82689
20
-6.39842
11
2.79315
21
-6.47716
0
LINE
8
BLACK
6
CONTINUOUS
10
2.85314
20
-6.39842
11
2.85314
21
-6.41341
0
LINE
8
BLACK
6
CONTINUOUS
10
2.88314
20
-6.39842
11
2.88314
21
-6.41341
0
LINE
8
BLACK
6
CONTINUOUS
10
2.99937
20
-6.50715
11
2.99562
21
-6.5034
0
LINE
8
BLACK
6
CONTINUOUS
10
2.99562
20
-6.5034
11
2.98812
21
-6.49215
0
LINE
8
BLACK
6
CONTINUOUS
10
2.98812
20
-6.49215
11
2.98437
21
-6.48466
0
LINE
8
BLACK
6
CONTINUOUS
10
2.98437
20
-6.48466
11
2.98062
21
-6.47341
0
LINE
8
BLACK
6
CONTINUOUS
10
2.98062
20
-6.47341
11
2.97687
21
-6.45466
0
LINE
8
BLACK
6
CONTINUOUS
10
2.97687
20
-6.45466
11
2.97687
21
-6.43966
0
LINE
8
BLACK
6
CONTINUOUS
10
2.97687
20
-6.43966
11
2.98062
21
-6.42091
0
LINE
8
BLACK
6
CONTINUOUS
10
2.98062
20
-6.42091
11
2.98437
21
-6.40966
0
LINE
8
BLACK
6
CONTINUOUS
10
2.98437
20
-6.40966
11
2.98812
21
-6.40217
0
LINE
8
BLACK
6
CONTINUOUS
10
2.98812
20
-6.40217
11
2.99562
21
-6.39092
0
LINE
8
BLACK
6
CONTINUOUS
10
2.99562
20
-6.39092
11
2.99937
21
-6.38717
0
LINE
8
BLACK
6
CONTINUOUS
10
3.07061
20
-6.47716
11
3.02562
21
-6.47716
0
LINE
8
BLACK
6
CONTINUOUS
10
3.04812
20
-6.47716
11
3.04812
21
-6.39842
0
LINE
8
BLACK
6
CONTINUOUS
10
3.04812
20
-6.39842
11
3.04062
21
-6.40966
0
LINE
8
BLACK
6
CONTINUOUS
10
3.04062
20
-6.40966
11
3.03312
21
-6.41716
0
LINE
8
BLACK
6
CONTINUOUS
10
3.03312
20
-6.41716
11
3.02562
21
-6.42091
0
LINE
8
BLACK
6
CONTINUOUS
10
3.1381
20
-6.39842
11
3.12311
21
-6.39842
0
LINE
8
BLACK
6
CONTINUOUS
10
3.12311
20
-6.39842
11
3.11561
21
-6.40217
0
LINE
8
BLACK
6
CONTINUOUS
10
3.11561
20
-6.40217
11
3.11186
21
-6.40591
0
LINE
8
BLACK
6
CONTINUOUS
10
3.11186
20
-6.40591
11
3.10436
21
-6.41716
0
LINE
8
BLACK
6
CONTINUOUS
10
3.10436
20
-6.41716
11
3.10061
21
-6.43216
0
LINE
8
BLACK
6
CONTINUOUS
10
3.10061
20
-6.43216
11
3.10061
21
-6.46216
0
LINE
8
BLACK
6
CONTINUOUS
10
3.10061
20
-6.46216
11
3.10436
21
-6.46966
0
LINE
8
BLACK
6
CONTINUOUS
10
3.10436
20
-6.46966
11
3.10811
21
-6.47341
0
LINE
8
BLACK
6
CONTINUOUS
10
3.10811
20
-6.47341
11
3.11561
21
-6.47716
0
LINE
8
BLACK
6
CONTINUOUS
10
3.11561
20
-6.47716
11
3.13061
21
-6.47716
0
LINE
8
BLACK
6
CONTINUOUS
10
3.13061
20
-6.47716
11
3.1381
21
-6.47341
0
LINE
8
BLACK
6
CONTINUOUS
10
3.1381
20
-6.47341
11
3.14185
21
-6.46966
0
LINE
8
BLACK
6
CONTINUOUS
10
3.14185
20
-6.46966
11
3.1456
21
-6.46216
0
LINE
8
BLACK
6
CONTINUOUS
10
3.1456
20
-6.46216
11
3.1456
21
-6.44341
0
LINE
8
BLACK
6
CONTINUOUS
10
3.1456
20
-6.44341
11
3.14185
21
-6.43591
0
LINE
8
BLACK
6
CONTINUOUS
10
3.14185
20
-6.43591
11
3.1381
21
-6.43216
0
LINE
8
BLACK
6
CONTINUOUS
10
3.1381
20
-6.43216
11
3.13061
21
-6.42841
0
LINE
8
BLACK
6
CONTINUOUS
10
3.13061
20
-6.42841
11
3.11561
21
-6.42841
0
LINE
8
BLACK
6
CONTINUOUS
10
3.11561
20
-6.42841
11
3.10811
21
-6.43216
0
LINE
8
BLACK
6
CONTINUOUS
10
3.10811
20
-6.43216
11
3.10436
21
-6.43591
0
LINE
8
BLACK
6
CONTINUOUS
10
3.10436
20
-6.43591
11
3.10061
21
-6.44341
0
LINE
8
BLACK
6
CONTINUOUS
10
3.23934
20
-6.47716
11
3.23934
21
-6.39842
0
LINE
8
BLACK
6
CONTINUOUS
10
3.27309
20
-6.47716
11
3.27309
21
-6.43591
0
LINE
8
BLACK
6
CONTINUOUS
10
3.27309
20
-6.43591
11
3.26934
21
-6.42841
0
LINE
8
BLACK
6
CONTINUOUS
10
3.26934
20
-6.42841
11
3.26184
21
-6.42466
0
LINE
8
BLACK
6
CONTINUOUS
10
3.26184
20
-6.42466
11
3.25059
21
-6.42466
0
LINE
8
BLACK
6
CONTINUOUS
10
3.25059
20
-6.42466
11
3.24309
21
-6.42841
0
LINE
8
BLACK
6
CONTINUOUS
10
3.24309
20
-6.42841
11
3.23934
21
-6.43216
0
LINE
8
BLACK
6
CONTINUOUS
10
3.32183
20
-6.47716
11
3.31433
21
-6.47341
0
LINE
8
BLACK
6
CONTINUOUS
10
3.31433
20
-6.47341
11
3.31058
21
-6.46966
0
LINE
8
BLACK
6
CONTINUOUS
10
3.31058
20
-6.46966
11
3.30683
21
-6.46216
0
LINE
8
BLACK
6
CONTINUOUS
10
3.30683
20
-6.46216
11
3.30683
21
-6.43966
0
LINE
8
BLACK
6
CONTINUOUS
10
3.30683
20
-6.43966
11
3.31058
21
-6.43216
0
LINE
8
BLACK
6
CONTINUOUS
10
3.31058
20
-6.43216
11
3.31433
21
-6.42841
0
LINE
8
BLACK
6
CONTINUOUS
10
3.31433
20
-6.42841
11
3.32183
21
-6.42466
0
LINE
8
BLACK
6
CONTINUOUS
10
3.32183
20
-6.42466
11
3.33308
21
-6.42466
0
LINE
8
BLACK
6
CONTINUOUS
10
3.33308
20
-6.42466
11
3.34058
21
-6.42841
0
LINE
8
BLACK
6
CONTINUOUS
10
3.34058
20
-6.42841
11
3.34433
21
-6.43216
0
LINE
8
BLACK
6
CONTINUOUS
10
3.34433
20
-6.43216
11
3.34808
21
-6.43966
0
LINE
8
BLACK
6
CONTINUOUS
10
3.34808
20
-6.43966
11
3.34808
21
-6.46216
0
LINE
8
BLACK
6
CONTINUOUS
10
3.34808
20
-6.46216
11
3.34433
21
-6.46966
0
LINE
8
BLACK
6
CONTINUOUS
10
3.34433
20
-6.46966
11
3.34058
21
-6.47341
0
LINE
8
BLACK
6
CONTINUOUS
10
3.34058
20
-6.47341
11
3.33308
21
-6.47716
0
LINE
8
BLACK
6
CONTINUOUS
10
3.33308
20
-6.47716
11
3.32183
21
-6.47716
0
LINE
8
BLACK
6
CONTINUOUS
10
3.39307
20
-6.47716
11
3.38557
21
-6.47341
0
LINE
8
BLACK
6
CONTINUOUS
10
3.38557
20
-6.47341
11
3.38182
21
-6.46591
0
LINE
8
BLACK
6
CONTINUOUS
10
3.38182
20
-6.46591
11
3.38182
21
-6.39842
0
LINE
8
BLACK
6
CONTINUOUS
10
3.45307
20
-6.47341
11
3.44557
21
-6.47716
0
LINE
8
BLACK
6
CONTINUOUS
10
3.44557
20
-6.47716
11
3.43057
21
-6.47716
0
LINE
8
BLACK
6
CONTINUOUS
10
3.43057
20
-6.47716
11
3.42307
21
-6.47341
0
LINE
8
BLACK
6
CONTINUOUS
10
3.42307
20
-6.47341
11
3.41932
21
-6.46591
0
LINE
8
BLACK
6
CONTINUOUS
10
3.41932
20
-6.46591
11
3.41932
21
-6.43591
0
LINE
8
BLACK
6
CONTINUOUS
10
3.41932
20
-6.43591
11
3.42307
21
-6.42841
0
LINE
8
BLACK
6
CONTINUOUS
10
3.42307
20
-6.42841
11
3.43057
21
-6.42466
0
LINE
8
BLACK
6
CONTINUOUS
10
3.43057
20
-6.42466
11
3.44557
21
-6.42466
0
LINE
8
BLACK
6
CONTINUOUS
10
3.44557
20
-6.42466
11
3.45307
21
-6.42841
0
LINE
8
BLACK
6
CONTINUOUS
10
3.45307
20
-6.42841
11
3.45681
21
-6.43591
0
LINE
8
BLACK
6
CONTINUOUS
10
3.45681
20
-6.43591
11
3.45681
21
-6.44341
0
LINE
8
BLACK
6
CONTINUOUS
10
3.45681
20
-6.44341
11
3.41932
21
-6.45091
0
LINE
8
BLACK
6
CONTINUOUS
10
3.48681
20
-6.47341
11
3.49431
21
-6.47716
0
LINE
8
BLACK
6
CONTINUOUS
10
3.49431
20
-6.47716
11
3.50931
21
-6.47716
0
LINE
8
BLACK
6
CONTINUOUS
10
3.50931
20
-6.47716
11
3.51681
21
-6.47341
0
LINE
8
BLACK
6
CONTINUOUS
10
3.51681
20
-6.47341
11
3.52056
21
-6.46591
0
LINE
8
BLACK
6
CONTINUOUS
10
3.52056
20
-6.46591
11
3.52056
21
-6.46216
0
LINE
8
BLACK
6
CONTINUOUS
10
3.52056
20
-6.46216
11
3.51681
21
-6.45466
0
LINE
8
BLACK
6
CONTINUOUS
10
3.51681
20
-6.45466
11
3.50931
21
-6.45091
0
LINE
8
BLACK
6
CONTINUOUS
10
3.50931
20
-6.45091
11
3.49806
21
-6.45091
0
LINE
8
BLACK
6
CONTINUOUS
10
3.49806
20
-6.45091
11
3.49056
21
-6.44716
0
LINE
8
BLACK
6
CONTINUOUS
10
3.49056
20
-6.44716
11
3.48681
21
-6.43966
0
LINE
8
BLACK
6
CONTINUOUS
10
3.48681
20
-6.43966
11
3.48681
21
-6.43591
0
LINE
8
BLACK
6
CONTINUOUS
10
3.48681
20
-6.43591
11
3.49056
21
-6.42841
0
LINE
8
BLACK
6
CONTINUOUS
10
3.49056
20
-6.42841
11
3.49806
21
-6.42466
0
LINE
8
BLACK
6
CONTINUOUS
10
3.49806
20
-6.42466
11
3.50931
21
-6.42466
0
LINE
8
BLACK
6
CONTINUOUS
10
3.50931
20
-6.42466
11
3.51681
21
-6.42841
0
LINE
8
BLACK
6
CONTINUOUS
10
3.5468
20
-6.50715
11
3.55055
21
-6.5034
0
LINE
8
BLACK
6
CONTINUOUS
10
3.55055
20
-6.5034
11
3.55805
21
-6.49215
0
LINE
8
BLACK
6
CONTINUOUS
10
3.55805
20
-6.49215
11
3.5618
21
-6.48466
0
LINE
8
BLACK
6
CONTINUOUS
10
3.5618
20
-6.48466
11
3.56555
21
-6.47341
0
LINE
8
BLACK
6
CONTINUOUS
10
3.56555
20
-6.47341
11
3.5693
21
-6.45466
0
LINE
8
BLACK
6
CONTINUOUS
10
3.5693
20
-6.45466
11
3.5693
21
-6.43966
0
LINE
8
BLACK
6
CONTINUOUS
10
3.5693
20
-6.43966
11
3.56555
21
-6.42091
0
LINE
8
BLACK
6
CONTINUOUS
10
3.56555
20
-6.42091
11
3.5618
21
-6.40966
0
LINE
8
BLACK
6
CONTINUOUS
10
3.5618
20
-6.40966
11
3.55805
21
-6.40217
0
LINE
8
BLACK
6
CONTINUOUS
10
3.55805
20
-6.40217
11
3.55055
21
-6.39092
0
LINE
8
BLACK
6
CONTINUOUS
10
3.55055
20
-6.39092
11
3.5468
21
-6.38717
0
CIRCLE
8
BLACK
10
1.57736
20
-6.54547
40
0.015748
0
LINE
8
BLACK
6
CONTINUOUS
10
1.70953
20
-6.50235
11
1.71703
21
-6.50235
0
LINE
8
BLACK
6
CONTINUOUS
10
1.71703
20
-6.50235
11
1.72453
21
-6.5061
0
LINE
8
BLACK
6
CONTINUOUS
10
1.72453
20
-6.5061
11
1.72828
21
-6.50985
0
LINE
8
BLACK
6
CONTINUOUS
10
1.72828
20
-6.50985
11
1.73203
21
-6.51735
0
LINE
8
BLACK
6
CONTINUOUS
10
1.73203
20
-6.51735
11
1.73578
21
-6.53235
0
LINE
8
BLACK
6
CONTINUOUS
10
1.73578
20
-6.53235
11
1.73578
21
-6.5511
0
LINE
8
BLACK
6
CONTINUOUS
10
1.73578
20
-6.5511
11
1.73203
21
-6.56609
0
LINE
8
BLACK
6
CONTINUOUS
10
1.73203
20
-6.56609
11
1.72828
21
-6.57359
0
LINE
8
BLACK
6
CONTINUOUS
10
1.72828
20
-6.57359
11
1.72453
21
-6.57734
0
LINE
8
BLACK
6
CONTINUOUS
10
1.72453
20
-6.57734
11
1.71703
21
-6.58109
0
LINE
8
BLACK
6
CONTINUOUS
10
1.71703
20
-6.58109
11
1.70953
21
-6.58109
0
LINE
8
BLACK
6
CONTINUOUS
10
1.70953
20
-6.58109
11
1.70203
21
-6.57734
0
LINE
8
BLACK
6
CONTINUOUS
10
1.70203
20
-6.57734
11
1.69828
21
-6.57359
0
LINE
8
BLACK
6
CONTINUOUS
10
1.69828
20
-6.57359
11
1.69454
21
-6.56609
0
LINE
8
BLACK
6
CONTINUOUS
10
1.69454
20
-6.56609
11
1.69079
21
-6.5511
0
LINE
8
BLACK
6
CONTINUOUS
10
1.69079
20
-6.5511
11
1.69079
21
-6.53235
0
LINE
8
BLACK
6
CONTINUOUS
10
1.69079
20
-6.53235
11
1.69454
21
-6.51735
0
LINE
8
BLACK
6
CONTINUOUS
10
1.69454
20
-6.51735
11
1.69828
21
-6.50985
0
LINE
8
BLACK
6
CONTINUOUS
10
1.69828
20
-6.50985
11
1.70203
21
-6.5061
0
LINE
8
BLACK
6
CONTINUOUS
10
1.70203
20
-6.5061
11
1.70953
21
-6.50235
0
LINE
8
BLACK
6
CONTINUOUS
10
1.76953
20
-6.57359
11
1.77328
21
-6.57734
0
LINE
8
BLACK
6
CONTINUOUS
10
1.77328
20
-6.57734
11
1.76953
21
-6.58109
0
LINE
8
BLACK
6
CONTINUOUS
10
1.76953
20
-6.58109
11
1.76578
21
-6.57734
0
LINE
8
BLACK
6
CONTINUOUS
10
1.76578
20
-6.57734
11
1.76953
21
-6.57359
0
LINE
8
BLACK
6
CONTINUOUS
10
1.76953
20
-6.57359
11
1.76953
21
-6.58109
0
LINE
8
BLACK
6
CONTINUOUS
10
1.81827
20
-6.5361
11
1.81077
21
-6.53235
0
LINE
8
BLACK
6
CONTINUOUS
10
1.81077
20
-6.53235
11
1.80702
21
-6.5286
0
LINE
8
BLACK
6
CONTINUOUS
10
1.80702
20
-6.5286
11
1.80327
21
-6.5211
0
LINE
8
BLACK
6
CONTINUOUS
10
1.80327
20
-6.5211
11
1.80327
21
-6.51735
0
LINE
8
BLACK
6
CONTINUOUS
10
1.80327
20
-6.51735
11
1.80702
21
-6.50985
0
LINE
8
BLACK
6
CONTINUOUS
10
1.80702
20
-6.50985
11
1.81077
21
-6.5061
0
LINE
8
BLACK
6
CONTINUOUS
10
1.81077
20
-6.5061
11
1.81827
21
-6.50235
0
LINE
8
BLACK
6
CONTINUOUS
10
1.81827
20
-6.50235
11
1.83327
21
-6.50235
0
LINE
8
BLACK
6
CONTINUOUS
10
1.83327
20
-6.50235
11
1.84077
21
-6.5061
0
LINE
8
BLACK
6
CONTINUOUS
10
1.84077
20
-6.5061
11
1.84452
21
-6.50985
0
LINE
8
BLACK
6
CONTINUOUS
10
1.84452
20
-6.50985
11
1.84827
21
-6.51735
0
LINE
8
BLACK
6
CONTINUOUS
10
1.84827
20
-6.51735
11
1.84827
21
-6.5211
0
LINE
8
BLACK
6
CONTINUOUS
10
1.84827
20
-6.5211
11
1.84452
21
-6.5286
0
LINE
8
BLACK
6
CONTINUOUS
10
1.84452
20
-6.5286
11
1.84077
21
-6.53235
0
LINE
8
BLACK
6
CONTINUOUS
10
1.84077
20
-6.53235
11
1.83327
21
-6.5361
0
LINE
8
BLACK
6
CONTINUOUS
10
1.83327
20
-6.5361
11
1.81827
21
-6.5361
0
LINE
8
BLACK
6
CONTINUOUS
10
1.81827
20
-6.5361
11
1.81077
21
-6.53985
0
LINE
8
BLACK
6
CONTINUOUS
10
1.81077
20
-6.53985
11
1.80702
21
-6.5436
0
LINE
8
BLACK
6
CONTINUOUS
10
1.80702
20
-6.5436
11
1.80327
21
-6.5511
0
LINE
8
BLACK
6
CONTINUOUS
10
1.80327
20
-6.5511
11
1.80327
21
-6.56609
0
LINE
8
BLACK
6
CONTINUOUS
10
1.80327
20
-6.56609
11
1.80702
21
-6.57359
0
LINE
8
BLACK
6
CONTINUOUS
10
1.80702
20
-6.57359
11
1.81077
21
-6.57734
0
LINE
8
BLACK
6
CONTINUOUS
10
1.81077
20
-6.57734
11
1.81827
21
-6.58109
0
LINE
8
BLACK
6
CONTINUOUS
10
1.81827
20
-6.58109
11
1.83327
21
-6.58109
0
LINE
8
BLACK
6
CONTINUOUS
10
1.83327
20
-6.58109
11
1.84077
21
-6.57734
0
LINE
8
BLACK
6
CONTINUOUS
10
1.84077
20
-6.57734
11
1.84452
21
-6.57359
0
LINE
8
BLACK
6
CONTINUOUS
10
1.84452
20
-6.57359
11
1.84827
21
-6.56609
0
LINE
8
BLACK
6
CONTINUOUS
10
1.84827
20
-6.56609
11
1.84827
21
-6.5511
0
LINE
8
BLACK
6
CONTINUOUS
10
1.84827
20
-6.5511
11
1.84452
21
-6.5436
0
LINE
8
BLACK
6
CONTINUOUS
10
1.84452
20
-6.5436
11
1.84077
21
-6.53985
0
LINE
8
BLACK
6
CONTINUOUS
10
1.84077
20
-6.53985
11
1.83327
21
-6.5361
0
LINE
8
BLACK
6
CONTINUOUS
10
1.89701
20
-6.50235
11
1.90451
21
-6.50235
0
LINE
8
BLACK
6
CONTINUOUS
10
1.90451
20
-6.50235
11
1.91201
21
-6.5061
0
LINE
8
BLACK
6
CONTINUOUS
10
1.91201
20
-6.5061
11
1.91576
21
-6.50985
0
LINE
8
BLACK
6
CONTINUOUS
10
1.91576
20
-6.50985
11
1.91951
21
-6.51735
0
LINE
8
BLACK
6
CONTINUOUS
10
1.91951
20
-6.51735
11
1.92326
21
-6.53235
0
LINE
8
BLACK
6
CONTINUOUS
10
1.92326
20
-6.53235
11
1.92326
21
-6.5511
0
LINE
8
BLACK
6
CONTINUOUS
10
1.92326
20
-6.5511
11
1.91951
21
-6.56609
0
LINE
8
BLACK
6
CONTINUOUS
10
1.91951
20
-6.56609
11
1.91576
21
-6.57359
0
LINE
8
BLACK
6
CONTINUOUS
10
1.91576
20
-6.57359
11
1.91201
21
-6.57734
0
LINE
8
BLACK
6
CONTINUOUS
10
1.91201
20
-6.57734
11
1.90451
21
-6.58109
0
LINE
8
BLACK
6
CONTINUOUS
10
1.90451
20
-6.58109
11
1.89701
21
-6.58109
0
LINE
8
BLACK
6
CONTINUOUS
10
1.89701
20
-6.58109
11
1.88951
21
-6.57734
0
LINE
8
BLACK
6
CONTINUOUS
10
1.88951
20
-6.57734
11
1.88576
21
-6.57359
0
LINE
8
BLACK
6
CONTINUOUS
10
1.88576
20
-6.57359
11
1.88201
21
-6.56609
0
LINE
8
BLACK
6
CONTINUOUS
10
1.88201
20
-6.56609
11
1.87826
21
-6.5511
0
LINE
8
BLACK
6
CONTINUOUS
10
1.87826
20
-6.5511
11
1.87826
21
-6.53235
0
LINE
8
BLACK
6
CONTINUOUS
10
1.87826
20
-6.53235
11
1.88201
21
-6.51735
0
LINE
8
BLACK
6
CONTINUOUS
10
1.88201
20
-6.51735
11
1.88576
21
-6.50985
0
LINE
8
BLACK
6
CONTINUOUS
10
1.88576
20
-6.50985
11
1.88951
21
-6.5061
0
LINE
8
BLACK
6
CONTINUOUS
10
1.88951
20
-6.5061
11
1.89701
21
-6.50235
0
LINE
8
BLACK
6
CONTINUOUS
10
1.972
20
-6.50235
11
1.9795
21
-6.50235
0
LINE
8
BLACK
6
CONTINUOUS
10
1.9795
20
-6.50235
11
1.987
21
-6.5061
0
LINE
8
BLACK
6
CONTINUOUS
10
1.987
20
-6.5061
11
1.99075
21
-6.50985
0
LINE
8
BLACK
6
CONTINUOUS
10
1.99075
20
-6.50985
11
1.9945
21
-6.51735
0
LINE
8
BLACK
6
CONTINUOUS
10
1.9945
20
-6.51735
11
1.99825
21
-6.53235
0
LINE
8
BLACK
6
CONTINUOUS
10
1.99825
20
-6.53235
11
1.99825
21
-6.5511
0
LINE
8
BLACK
6
CONTINUOUS
10
1.99825
20
-6.5511
11
1.9945
21
-6.56609
0
LINE
8
BLACK
6
CONTINUOUS
10
1.9945
20
-6.56609
11
1.99075
21
-6.57359
0
LINE
8
BLACK
6
CONTINUOUS
10
1.99075
20
-6.57359
11
1.987
21
-6.57734
0
LINE
8
BLACK
6
CONTINUOUS
10
1.987
20
-6.57734
11
1.9795
21
-6.58109
0
LINE
8
BLACK
6
CONTINUOUS
10
1.9795
20
-6.58109
11
1.972
21
-6.58109
0
LINE
8
BLACK
6
CONTINUOUS
10
1.972
20
-6.58109
11
1.9645
21
-6.57734
0
LINE
8
BLACK
6
CONTINUOUS
10
1.9645
20
-6.57734
11
1.96075
21
-6.57359
0
LINE
8
BLACK
6
CONTINUOUS
10
1.96075
20
-6.57359
11
1.957
21
-6.56609
0
LINE
8
BLACK
6
CONTINUOUS
10
1.957
20
-6.56609
11
1.95325
21
-6.5511
0
LINE
8
BLACK
6
CONTINUOUS
10
1.95325
20
-6.5511
11
1.95325
21
-6.53235
0
LINE
8
BLACK
6
CONTINUOUS
10
1.95325
20
-6.53235
11
1.957
21
-6.51735
0
LINE
8
BLACK
6
CONTINUOUS
10
1.957
20
-6.51735
11
1.96075
21
-6.50985
0
LINE
8
BLACK
6
CONTINUOUS
10
1.96075
20
-6.50985
11
1.9645
21
-6.5061
0
LINE
8
BLACK
6
CONTINUOUS
10
1.9645
20
-6.5061
11
1.972
21
-6.50235
0
LINE
8
BLACK
6
CONTINUOUS
10
2.03199
20
-6.58109
11
2.03199
21
-6.5286
0
LINE
8
BLACK
6
CONTINUOUS
10
2.03199
20
-6.5361
11
2.03574
21
-6.53235
0
LINE
8
BLACK
6
CONTINUOUS
10
2.03574
20
-6.53235
11
2.04324
21
-6.5286
0
LINE
8
BLACK
6
CONTINUOUS
10
2.04324
20
-6.5286
11
2.05449
21
-6.5286
0
LINE
8
BLACK
6
CONTINUOUS
10
2.05449
20
-6.5286
11
2.06199
21
-6.53235
0
LINE
8
BLACK
6
CONTINUOUS
10
2.06199
20
-6.53235
11
2.06574
21
-6.53985
0
LINE
8
BLACK
6
CONTINUOUS
10
2.06574
20
-6.53985
11
2.06574
21
-6.58109
0
LINE
8
BLACK
6
CONTINUOUS
10
2.06574
20
-6.53985
11
2.06949
21
-6.53235
0
LINE
8
BLACK
6
CONTINUOUS
10
2.06949
20
-6.53235
11
2.07699
21
-6.5286
0
LINE
8
BLACK
6
CONTINUOUS
10
2.07699
20
-6.5286
11
2.08824
21
-6.5286
0
LINE
8
BLACK
6
CONTINUOUS
10
2.08824
20
-6.5286
11
2.09573
21
-6.53235
0
LINE
8
BLACK
6
CONTINUOUS
10
2.09573
20
-6.53235
11
2.09948
21
-6.53985
0
LINE
8
BLACK
6
CONTINUOUS
10
2.09948
20
-6.53985
11
2.09948
21
-6.58109
0
LINE
8
BLACK
6
CONTINUOUS
10
2.13698
20
-6.58109
11
2.13698
21
-6.5286
0
LINE
8
BLACK
6
CONTINUOUS
10
2.13698
20
-6.5361
11
2.14073
21
-6.53235
0
LINE
8
BLACK
6
CONTINUOUS
10
2.14073
20
-6.53235
11
2.14823
21
-6.5286
0
LINE
8
BLACK
6
CONTINUOUS
10
2.14823
20
-6.5286
11
2.15948
21
-6.5286
0
LINE
8
BLACK
6
CONTINUOUS
10
2.15948
20
-6.5286
11
2.16698
21
-6.53235
0
LINE
8
BLACK
6
CONTINUOUS
10
2.16698
20
-6.53235
11
2.17073
21
-6.53985
0
LINE
8
BLACK
6
CONTINUOUS
10
2.17073
20
-6.53985
11
2.17073
21
-6.58109
0
LINE
8
BLACK
6
CONTINUOUS
10
2.17073
20
-6.53985
11
2.17448
21
-6.53235
0
LINE
8
BLACK
6
CONTINUOUS
10
2.17448
20
-6.53235
11
2.18197
21
-6.5286
0
LINE
8
BLACK
6
CONTINUOUS
10
2.18197
20
-6.5286
11
2.19322
21
-6.5286
0
LINE
8
BLACK
6
CONTINUOUS
10
2.19322
20
-6.5286
11
2.20072
21
-6.53235
0
LINE
8
BLACK
6
CONTINUOUS
10
2.20072
20
-6.53235
11
2.20447
21
-6.53985
0
LINE
8
BLACK
6
CONTINUOUS
10
2.20447
20
-6.53985
11
2.20447
21
-6.58109
0
LINE
8
BLACK
6
CONTINUOUS
10
2.3582
20
-6.4986
11
2.29071
21
-6.59984
0
LINE
8
BLACK
6
CONTINUOUS
10
2.45944
20
-6.50235
11
2.46694
21
-6.50235
0
LINE
8
BLACK
6
CONTINUOUS
10
2.46694
20
-6.50235
11
2.47444
21
-6.5061
0
LINE
8
BLACK
6
CONTINUOUS
10
2.47444
20
-6.5061
11
2.47819
21
-6.50985
0
LINE
8
BLACK
6
CONTINUOUS
10
2.47819
20
-6.50985
11
2.48194
21
-6.51735
0
LINE
8
BLACK
6
CONTINUOUS
10
2.48194
20
-6.51735
11
2.48569
21
-6.53235
0
LINE
8
BLACK
6
CONTINUOUS
10
2.48569
20
-6.53235
11
2.48569
21
-6.5511
0
LINE
8
BLACK
6
CONTINUOUS
10
2.48569
20
-6.5511
11
2.48194
21
-6.56609
0
LINE
8
BLACK
6
CONTINUOUS
10
2.48194
20
-6.56609
11
2.47819
21
-6.57359
0
LINE
8
BLACK
6
CONTINUOUS
10
2.47819
20
-6.57359
11
2.47444
21
-6.57734
0
LINE
8
BLACK
6
CONTINUOUS
10
2.47444
20
-6.57734
11
2.46694
21
-6.58109
0
LINE
8
BLACK
6
CONTINUOUS
10
2.46694
20
-6.58109
11
2.45944
21
-6.58109
0
LINE
8
BLACK
6
CONTINUOUS
10
2.45944
20
-6.58109
11
2.45194
21
-6.57734
0
LINE
8
BLACK
6
CONTINUOUS
10
2.45194
20
-6.57734
11
2.44819
21
-6.57359
0
LINE
8
BLACK
6
CONTINUOUS
10
2.44819
20
-6.57359
11
2.44444
21
-6.56609
0
LINE
8
BLACK
6
CONTINUOUS
10
2.44444
20
-6.56609
11
2.44069
21
-6.5511
0
LINE
8
BLACK
6
CONTINUOUS
10
2.44069
20
-6.5511
11
2.44069
21
-6.53235
0
LINE
8
BLACK
6
CONTINUOUS
10
2.44069
20
-6.53235
11
2.44444
21
-6.51735
0
LINE
8
BLACK
6
CONTINUOUS
10
2.44444
20
-6.51735
11
2.44819
21
-6.50985
0
LINE
8
BLACK
6
CONTINUOUS
10
2.44819
20
-6.50985
11
2.45194
21
-6.5061
0
LINE
8
BLACK
6
CONTINUOUS
10
2.45194
20
-6.5061
11
2.45944
21
-6.50235
0
LINE
8
BLACK
6
CONTINUOUS
10
2.51943
20
-6.57359
11
2.52318
21
-6.57734
0
LINE
8
BLACK
6
CONTINUOUS
10
2.52318
20
-6.57734
11
2.51943
21
-6.58109
0
LINE
8
BLACK
6
CONTINUOUS
10
2.51943
20
-6.58109
11
2.51568
21
-6.57734
0
LINE
8
BLACK
6
CONTINUOUS
10
2.51568
20
-6.57734
11
2.51943
21
-6.57359
0
LINE
8
BLACK
6
CONTINUOUS
10
2.51943
20
-6.57359
11
2.51943
21
-6.58109
0
LINE
8
BLACK
6
CONTINUOUS
10
2.57193
20
-6.50235
11
2.57942
21
-6.50235
0
LINE
8
BLACK
6
CONTINUOUS
10
2.57942
20
-6.50235
11
2.58692
21
-6.5061
0
LINE
8
BLACK
6
CONTINUOUS
10
2.58692
20
-6.5061
11
2.59067
21
-6.50985
0
LINE
8
BLACK
6
CONTINUOUS
10
2.59067
20
-6.50985
11
2.59442
21
-6.51735
0
LINE
8
BLACK
6
CONTINUOUS
10
2.59442
20
-6.51735
11
2.59817
21
-6.53235
0
LINE
8
BLACK
6
CONTINUOUS
10
2.59817
20
-6.53235
11
2.59817
21
-6.5511
0
LINE
8
BLACK
6
CONTINUOUS
10
2.59817
20
-6.5511
11
2.59442
21
-6.56609
0
LINE
8
BLACK
6
CONTINUOUS
10
2.59442
20
-6.56609
11
2.59067
21
-6.57359
0
LINE
8
BLACK
6
CONTINUOUS
10
2.59067
20
-6.57359
11
2.58692
21
-6.57734
0
LINE
8
BLACK
6
CONTINUOUS
10
2.58692
20
-6.57734
11
2.57942
21
-6.58109
0
LINE
8
BLACK
6
CONTINUOUS
10
2.57942
20
-6.58109
11
2.57193
21
-6.58109
0
LINE
8
BLACK
6
CONTINUOUS
10
2.57193
20
-6.58109
11
2.56443
21
-6.57734
0
LINE
8
BLACK
6
CONTINUOUS
10
2.56443
20
-6.57734
11
2.56068
21
-6.57359
0
LINE
8
BLACK
6
CONTINUOUS
10
2.56068
20
-6.57359
11
2.55693
21
-6.56609
0
LINE
8
BLACK
6
CONTINUOUS
10
2.55693
20
-6.56609
11
2.55318
21
-6.5511
0
LINE
8
BLACK
6
CONTINUOUS
10
2.55318
20
-6.5511
11
2.55318
21
-6.53235
0
LINE
8
BLACK
6
CONTINUOUS
10
2.55318
20
-6.53235
11
2.55693
21
-6.51735
0
LINE
8
BLACK
6
CONTINUOUS
10
2.55693
20
-6.51735
11
2.56068
21
-6.50985
0
LINE
8
BLACK
6
CONTINUOUS
10
2.56068
20
-6.50985
11
2.56443
21
-6.5061
0
LINE
8
BLACK
6
CONTINUOUS
10
2.56443
20
-6.5061
11
2.57193
21
-6.50235
0
LINE
8
BLACK
6
CONTINUOUS
10
2.62442
20
-6.50235
11
2.67316
21
-6.50235
0
LINE
8
BLACK
6
CONTINUOUS
10
2.67316
20
-6.50235
11
2.64692
21
-6.53235
0
LINE
8
BLACK
6
CONTINUOUS
10
2.64692
20
-6.53235
11
2.65816
21
-6.53235
0
LINE
8
BLACK
6
CONTINUOUS
10
2.65816
20
-6.53235
11
2.66566
21
-6.5361
0
LINE
8
BLACK
6
CONTINUOUS
10
2.66566
20
-6.5361
11
2.66941
21
-6.53985
0
LINE
8
BLACK
6
CONTINUOUS
10
2.66941
20
-6.53985
11
2.67316
21
-6.54735
0
LINE
8
BLACK
6
CONTINUOUS
10
2.67316
20
-6.54735
11
2.67316
21
-6.56609
0
LINE
8
BLACK
6
CONTINUOUS
10
2.67316
20
-6.56609
11
2.66941
21
-6.57359
0
LINE
8
BLACK
6
CONTINUOUS
10
2.66941
20
-6.57359
11
2.66566
21
-6.57734
0
LINE
8
BLACK
6
CONTINUOUS
10
2.66566
20
-6.57734
11
2.65816
21
-6.58109
0
LINE
8
BLACK
6
CONTINUOUS
10
2.65816
20
-6.58109
11
2.63567
21
-6.58109
0
LINE
8
BLACK
6
CONTINUOUS
10
2.63567
20
-6.58109
11
2.62817
21
-6.57734
0
LINE
8
BLACK
6
CONTINUOUS
10
2.62817
20
-6.57734
11
2.62442
21
-6.57359
0
LINE
8
BLACK
6
CONTINUOUS
10
2.74815
20
-6.58109
11
2.70316
21
-6.58109
0
LINE
8
BLACK
6
CONTINUOUS
10
2.72566
20
-6.58109
11
2.72566
21
-6.50235
0
LINE
8
BLACK
6
CONTINUOUS
10
2.72566
20
-6.50235
11
2.71816
21
-6.5136
0
LINE
8
BLACK
6
CONTINUOUS
10
2.71816
20
-6.5136
11
2.71066
21
-6.5211
0
LINE
8
BLACK
6
CONTINUOUS
10
2.71066
20
-6.5211
11
2.70316
21
-6.52485
0
LINE
8
BLACK
6
CONTINUOUS
10
2.81939
20
-6.50235
11
2.7819
21
-6.50235
0
LINE
8
BLACK
6
CONTINUOUS
10
2.7819
20
-6.50235
11
2.77815
21
-6.53985
0
LINE
8
BLACK
6
CONTINUOUS
10
2.77815
20
-6.53985
11
2.7819
21
-6.5361
0
LINE
8
BLACK
6
CONTINUOUS
10
2.7819
20
-6.5361
11
2.7894
21
-6.53235
0
LINE
8
BLACK
6
CONTINUOUS
10
2.7894
20
-6.53235
11
2.80815
21
-6.53235
0
LINE
8
BLACK
6
CONTINUOUS
10
2.80815
20
-6.53235
11
2.81564
21
-6.5361
0
LINE
8
BLACK
6
CONTINUOUS
10
2.81564
20
-6.5361
11
2.81939
21
-6.53985
0
LINE
8
BLACK
6
CONTINUOUS
10
2.81939
20
-6.53985
11
2.82314
21
-6.54735
0
LINE
8
BLACK
6
CONTINUOUS
10
2.82314
20
-6.54735
11
2.82314
21
-6.56609
0
LINE
8
BLACK
6
CONTINUOUS
10
2.82314
20
-6.56609
11
2.81939
21
-6.57359
0
LINE
8
BLACK
6
CONTINUOUS
10
2.81939
20
-6.57359
11
2.81564
21
-6.57734
0
LINE
8
BLACK
6
CONTINUOUS
10
2.81564
20
-6.57734
11
2.80815
21
-6.58109
0
LINE
8
BLACK
6
CONTINUOUS
10
2.80815
20
-6.58109
11
2.7894
21
-6.58109
0
LINE
8
BLACK
6
CONTINUOUS
10
2.7894
20
-6.58109
11
2.7819
21
-6.57734
0
LINE
8
BLACK
6
CONTINUOUS
10
2.7819
20
-6.57734
11
2.77815
21
-6.57359
0
LINE
8
BLACK
6
CONTINUOUS
10
2.85314
20
-6.50235
11
2.85314
21
-6.51735
0
LINE
8
BLACK
6
CONTINUOUS
10
2.88314
20
-6.50235
11
2.88314
21
-6.51735
0
LINE
8
BLACK
6
CONTINUOUS
10
2.99937
20
-6.61109
11
2.99562
21
-6.60734
0
LINE
8
BLACK
6
CONTINUOUS
10
2.99562
20
-6.60734
11
2.98812
21
-6.59609
0
LINE
8
BLACK
6
CONTINUOUS
10
2.98812
20
-6.59609
11
2.98437
21
-6.58859
0
LINE
8
BLACK
6
CONTINUOUS
10
2.98437
20
-6.58859
11
2.98062
21
-6.57734
0
LINE
8
BLACK
6
CONTINUOUS
10
2.98062
20
-6.57734
11
2.97687
21
-6.5586
0
LINE
8
BLACK
6
CONTINUOUS
10
2.97687
20
-6.5586
11
2.97687
21
-6.5436
0
LINE
8
BLACK
6
CONTINUOUS
10
2.97687
20
-6.5436
11
2.98062
21
-6.52485
0
LINE
8
BLACK
6
CONTINUOUS
10
2.98062
20
-6.52485
11
2.98437
21
-6.5136
0
LINE
8
BLACK
6
CONTINUOUS
10
2.98437
20
-6.5136
11
2.98812
21
-6.5061
0
LINE
8
BLACK
6
CONTINUOUS
10
2.98812
20
-6.5061
11
2.99562
21
-6.49485
0
LINE
8
BLACK
6
CONTINUOUS
10
2.99562
20
-6.49485
11
2.99937
21
-6.4911
0
LINE
8
BLACK
6
CONTINUOUS
10
3.07061
20
-6.58109
11
3.02562
21
-6.58109
0
LINE
8
BLACK
6
CONTINUOUS
10
3.04812
20
-6.58109
11
3.04812
21
-6.50235
0
LINE
8
BLACK
6
CONTINUOUS
10
3.04812
20
-6.50235
11
3.04062
21
-6.5136
0
LINE
8
BLACK
6
CONTINUOUS
10
3.04062
20
-6.5136
11
3.03312
21
-6.5211
0
LINE
8
BLACK
6
CONTINUOUS
10
3.03312
20
-6.5211
11
3.02562
21
-6.52485
0
LINE
8
BLACK
6
CONTINUOUS
10
3.10061
20
-6.50985
11
3.10436
21
-6.5061
0
LINE
8
BLACK
6
CONTINUOUS
10
3.10436
20
-6.5061
11
3.11186
21
-6.50235
0
LINE
8
BLACK
6
CONTINUOUS
10
3.11186
20
-6.50235
11
3.13061
21
-6.50235
0
LINE
8
BLACK
6
CONTINUOUS
10
3.13061
20
-6.50235
11
3.1381
21
-6.5061
0
LINE
8
BLACK
6
CONTINUOUS
10
3.1381
20
-6.5061
11
3.14185
21
-6.50985
0
LINE
8
BLACK
6
CONTINUOUS
10
3.14185
20
-6.50985
11
3.1456
21
-6.51735
0
LINE
8
BLACK
6
CONTINUOUS
10
3.1456
20
-6.51735
11
3.1456
21
-6.52485
0
LINE
8
BLACK
6
CONTINUOUS
10
3.1456
20
-6.52485
11
3.14185
21
-6.5361
0
LINE
8
BLACK
6
CONTINUOUS
10
3.14185
20
-6.5361
11
3.09686
21
-6.58109
0
LINE
8
BLACK
6
CONTINUOUS
10
3.09686
20
-6.58109
11
3.1456
21
-6.58109
0
LINE
8
BLACK
6
CONTINUOUS
10
3.23934
20
-6.58109
11
3.23934
21
-6.50235
0
LINE
8
BLACK
6
CONTINUOUS
10
3.27309
20
-6.58109
11
3.27309
21
-6.53985
0
LINE
8
BLACK
6
CONTINUOUS
10
3.27309
20
-6.53985
11
3.26934
21
-6.53235
0
LINE
8
BLACK
6
CONTINUOUS
10
3.26934
20
-6.53235
11
3.26184
21
-6.5286
0
LINE
8
BLACK
6
CONTINUOUS
10
3.26184
20
-6.5286
11
3.25059
21
-6.5286
0
LINE
8
BLACK
6
CONTINUOUS
10
3.25059
20
-6.5286
11
3.24309
21
-6.53235
0
LINE
8
BLACK
6
CONTINUOUS
10
3.24309
20
-6.53235
11
3.23934
21
-6.5361
0
LINE
8
BLACK
6
CONTINUOUS
10
3.32183
20
-6.58109
11
3.31433
21
-6.57734
0
LINE
8
BLACK
6
CONTINUOUS
10
3.31433
20
-6.57734
11
3.31058
21
-6.57359
0
LINE
8
BLACK
6
CONTINUOUS
10
3.31058
20
-6.57359
11
3.30683
21
-6.56609
0
LINE
8
BLACK
6
CONTINUOUS
10
3.30683
20
-6.56609
11
3.30683
21
-6.5436
0
LINE
8
BLACK
6
CONTINUOUS
10
3.30683
20
-6.5436
11
3.31058
21
-6.5361
0
LINE
8
BLACK
6
CONTINUOUS
10
3.31058
20
-6.5361
11
3.31433
21
-6.53235
0
LINE
8
BLACK
6
CONTINUOUS
10
3.31433
20
-6.53235
11
3.32183
21
-6.5286
0
LINE
8
BLACK
6
CONTINUOUS
10
3.32183
20
-6.5286
11
3.33308
21
-6.5286
0
LINE
8
BLACK
6
CONTINUOUS
10
3.33308
20
-6.5286
11
3.34058
21
-6.53235
0
LINE
8
BLACK
6
CONTINUOUS
10
3.34058
20
-6.53235
11
3.34433
21
-6.5361
0
LINE
8
BLACK
6
CONTINUOUS
10
3.34433
20
-6.5361
11
3.34808
21
-6.5436
0
LINE
8
BLACK
6
CONTINUOUS
10
3.34808
20
-6.5436
11
3.34808
21
-6.56609
0
LINE
8
BLACK
6
CONTINUOUS
10
3.34808
20
-6.56609
11
3.34433
21
-6.57359
0
LINE
8
BLACK
6
CONTINUOUS
10
3.34433
20
-6.57359
11
3.34058
21
-6.57734
0
LINE
8
BLACK
6
CONTINUOUS
10
3.34058
20
-6.57734
11
3.33308
21
-6.58109
0
LINE
8
BLACK
6
CONTINUOUS
10
3.33308
20
-6.58109
11
3.32183
21
-6.58109
0
LINE
8
BLACK
6
CONTINUOUS
10
3.39307
20
-6.58109
11
3.38557
21
-6.57734
0
LINE
8
BLACK
6
CONTINUOUS
10
3.38557
20
-6.57734
11
3.38182
21
-6.56984
0
LINE
8
BLACK
6
CONTINUOUS
10
3.38182
20
-6.56984
11
3.38182
21
-6.50235
0
LINE
8
BLACK
6
CONTINUOUS
10
3.45307
20
-6.57734
11
3.44557
21
-6.58109
0
LINE
8
BLACK
6
CONTINUOUS
10
3.44557
20
-6.58109
11
3.43057
21
-6.58109
0
LINE
8
BLACK
6
CONTINUOUS
10
3.43057
20
-6.58109
11
3.42307
21
-6.57734
0
LINE
8
BLACK
6
CONTINUOUS
10
3.42307
20
-6.57734
11
3.41932
21
-6.56984
0
LINE
8
BLACK
6
CONTINUOUS
10
3.41932
20
-6.56984
11
3.41932
21
-6.53985
0
LINE
8
BLACK
6
CONTINUOUS
10
3.41932
20
-6.53985
11
3.42307
21
-6.53235
0
LINE
8
BLACK
6
CONTINUOUS
10
3.42307
20
-6.53235
11
3.43057
21
-6.5286
0
LINE
8
BLACK
6
CONTINUOUS
10
3.43057
20
-6.5286
11
3.44557
21
-6.5286
0
LINE
8
BLACK
6
CONTINUOUS
10
3.44557
20
-6.5286
11
3.45307
21
-6.53235
0
LINE
8
BLACK
6
CONTINUOUS
10
3.45307
20
-6.53235
11
3.45681
21
-6.53985
0
LINE
8
BLACK
6
CONTINUOUS
10
3.45681
20
-6.53985
11
3.45681
21
-6.54735
0
LINE
8
BLACK
6
CONTINUOUS
10
3.45681
20
-6.54735
11
3.41932
21
-6.55485
0
LINE
8
BLACK
6
CONTINUOUS
10
3.48681
20
-6.57734
11
3.49431
21
-6.58109
0
LINE
8
BLACK
6
CONTINUOUS
10
3.49431
20
-6.58109
11
3.50931
21
-6.58109
0
LINE
8
BLACK
6
CONTINUOUS
10
3.50931
20
-6.58109
11
3.51681
21
-6.57734
0
LINE
8
BLACK
6
CONTINUOUS
10
3.51681
20
-6.57734
11
3.52056
21
-6.56984
0
LINE
8
BLACK
6
CONTINUOUS
10
3.52056
20
-6.56984
11
3.52056
21
-6.56609
0
LINE
8
BLACK
6
CONTINUOUS
10
3.52056
20
-6.56609
11
3.51681
21
-6.5586
0
LINE
8
BLACK
6
CONTINUOUS
10
3.51681
20
-6.5586
11
3.50931
21
-6.55485
0
LINE
8
BLACK
6
CONTINUOUS
10
3.50931
20
-6.55485
11
3.49806
21
-6.55485
0
LINE
8
BLACK
6
CONTINUOUS
10
3.49806
20
-6.55485
11
3.49056
21
-6.5511
0
LINE
8
BLACK
6
CONTINUOUS
10
3.49056
20
-6.5511
11
3.48681
21
-6.5436
0
LINE
8
BLACK
6
CONTINUOUS
10
3.48681
20
-6.5436
11
3.48681
21
-6.53985
0
LINE
8
BLACK
6
CONTINUOUS
10
3.48681
20
-6.53985
11
3.49056
21
-6.53235
0
LINE
8
BLACK
6
CONTINUOUS
10
3.49056
20
-6.53235
11
3.49806
21
-6.5286
0
LINE
8
BLACK
6
CONTINUOUS
10
3.49806
20
-6.5286
11
3.50931
21
-6.5286
0
LINE
8
BLACK
6
CONTINUOUS
10
3.50931
20
-6.5286
11
3.51681
21
-6.53235
0
LINE
8
BLACK
6
CONTINUOUS
10
3.5468
20
-6.61109
11
3.55055
21
-6.60734
0
LINE
8
BLACK
6
CONTINUOUS
10
3.55055
20
-6.60734
11
3.55805
21
-6.59609
0
LINE
8
BLACK
6
CONTINUOUS
10
3.55805
20
-6.59609
11
3.5618
21
-6.58859
0
LINE
8
BLACK
6
CONTINUOUS
10
3.5618
20
-6.58859
11
3.56555
21
-6.57734
0
LINE
8
BLACK
6
CONTINUOUS
10
3.56555
20
-6.57734
11
3.5693
21
-6.5586
0
LINE
8
BLACK
6
CONTINUOUS
10
3.5693
20
-6.5586
11
3.5693
21
-6.5436
0
LINE
8
BLACK
6
CONTINUOUS
10
3.5693
20
-6.5436
11
3.56555
21
-6.52485
0
LINE
8
BLACK
6
CONTINUOUS
10
3.56555
20
-6.52485
11
3.5618
21
-6.5136
0
LINE
8
BLACK
6
CONTINUOUS
10
3.5618
20
-6.5136
11
3.55805
21
-6.5061
0
LINE
8
BLACK
6
CONTINUOUS
10
3.55805
20
-6.5061
11
3.55055
21
-6.49485
0
LINE
8
BLACK
6
CONTINUOUS
10
3.55055
20
-6.49485
11
3.5468
21
-6.4911
0
LINE
8
BLACK
6
CONTINUOUS
10
1.57343
20
-6.62972
11
1.57343
21
-6.66909
0
LINE
8
BLACK
6
CONTINUOUS
10
1.55374
20
-6.64941
11
1.59311
21
-6.64941
0
LINE
8
BLACK
6
CONTINUOUS
10
1.73578
20
-6.68503
11
1.69079
21
-6.68503
0
LINE
8
BLACK
6
CONTINUOUS
10
1.71328
20
-6.68503
11
1.71328
21
-6.60629
0
LINE
8
BLACK
6
CONTINUOUS
10
1.71328
20
-6.60629
11
1.70578
21
-6.61754
0
LINE
8
BLACK
6
CONTINUOUS
10
1.70578
20
-6.61754
11
1.69828
21
-6.62504
0
LINE
8
BLACK
6
CONTINUOUS
10
1.69828
20
-6.62504
11
1.69079
21
-6.62879
0
LINE
8
BLACK
6
CONTINUOUS
10
1.76953
20
-6.67753
11
1.77328
21
-6.68128
0
LINE
8
BLACK
6
CONTINUOUS
10
1.77328
20
-6.68128
11
1.76953
21
-6.68503
0
LINE
8
BLACK
6
CONTINUOUS
10
1.76953
20
-6.68503
11
1.76578
21
-6.68128
0
LINE
8
BLACK
6
CONTINUOUS
10
1.76578
20
-6.68128
11
1.76953
21
-6.67753
0
LINE
8
BLACK
6
CONTINUOUS
10
1.76953
20
-6.67753
11
1.76953
21
-6.68503
0
LINE
8
BLACK
6
CONTINUOUS
10
1.82202
20
-6.60629
11
1.82952
21
-6.60629
0
LINE
8
BLACK
6
CONTINUOUS
10
1.82952
20
-6.60629
11
1.83702
21
-6.61004
0
LINE
8
BLACK
6
CONTINUOUS
10
1.83702
20
-6.61004
11
1.84077
21
-6.61379
0
LINE
8
BLACK
6
CONTINUOUS
10
1.84077
20
-6.61379
11
1.84452
21
-6.62129
0
LINE
8
BLACK
6
CONTINUOUS
10
1.84452
20
-6.62129
11
1.84827
21
-6.63629
0
LINE
8
BLACK
6
CONTINUOUS
10
1.84827
20
-6.63629
11
1.84827
21
-6.65503
0
LINE
8
BLACK
6
CONTINUOUS
10
1.84827
20
-6.65503
11
1.84452
21
-6.67003
0
LINE
8
BLACK
6
CONTINUOUS
10
1.84452
20
-6.67003
11
1.84077
21
-6.67753
0
LINE
8
BLACK
6
CONTINUOUS
10
1.84077
20
-6.67753
11
1.83702
21
-6.68128
0
LINE
8
BLACK
6
CONTINUOUS
10
1.83702
20
-6.68128
11
1.82952
21
-6.68503
0
LINE
8
BLACK
6
CONTINUOUS
10
1.82952
20
-6.68503
11
1.82202
21
-6.68503
0
LINE
8
BLACK
6
CONTINUOUS
10
1.82202
20
-6.68503
11
1.81452
21
-6.68128
0
LINE
8
BLACK
6
CONTINUOUS
10
1.81452
20
-6.68128
11
1.81077
21
-6.67753
0
LINE
8
BLACK
6
CONTINUOUS
10
1.81077
20
-6.67753
11
1.80702
21
-6.67003
0
LINE
8
BLACK
6
CONTINUOUS
10
1.80702
20
-6.67003
11
1.80327
21
-6.65503
0
LINE
8
BLACK
6
CONTINUOUS
10
1.80327
20
-6.65503
11
1.80327
21
-6.63629
0
LINE
8
BLACK
6
CONTINUOUS
10
1.80327
20
-6.63629
11
1.80702
21
-6.62129
0
LINE
8
BLACK
6
CONTINUOUS
10
1.80702
20
-6.62129
11
1.81077
21
-6.61379
0
LINE
8
BLACK
6
CONTINUOUS
10
1.81077
20
-6.61379
11
1.81452
21
-6.61004
0
LINE
8
BLACK
6
CONTINUOUS
10
1.81452
20
-6.61004
11
1.82202
21
-6.60629
0
LINE
8
BLACK
6
CONTINUOUS
10
1.89701
20
-6.60629
11
1.90451
21
-6.60629
0
LINE
8
BLACK
6
CONTINUOUS
10
1.90451
20
-6.60629
11
1.91201
21
-6.61004
0
LINE
8
BLACK
6
CONTINUOUS
10
1.91201
20
-6.61004
11
1.91576
21
-6.61379
0
LINE
8
BLACK
6
CONTINUOUS
10
1.91576
20
-6.61379
11
1.91951
21
-6.62129
0
LINE
8
BLACK
6
CONTINUOUS
10
1.91951
20
-6.62129
11
1.92326
21
-6.63629
0
LINE
8
BLACK
6
CONTINUOUS
10
1.92326
20
-6.63629
11
1.92326
21
-6.65503
0
LINE
8
BLACK
6
CONTINUOUS
10
1.92326
20
-6.65503
11
1.91951
21
-6.67003
0
LINE
8
BLACK
6
CONTINUOUS
10
1.91951
20
-6.67003
11
1.91576
21
-6.67753
0
LINE
8
BLACK
6
CONTINUOUS
10
1.91576
20
-6.67753
11
1.91201
21
-6.68128
0
LINE
8
BLACK
6
CONTINUOUS
10
1.91201
20
-6.68128
11
1.90451
21
-6.68503
0
LINE
8
BLACK
6
CONTINUOUS
10
1.90451
20
-6.68503
11
1.89701
21
-6.68503
0
LINE
8
BLACK
6
CONTINUOUS
10
1.89701
20
-6.68503
11
1.88951
21
-6.68128
0
LINE
8
BLACK
6
CONTINUOUS
10
1.88951
20
-6.68128
11
1.88576
21
-6.67753
0
LINE
8
BLACK
6
CONTINUOUS
10
1.88576
20
-6.67753
11
1.88201
21
-6.67003
0
LINE
8
BLACK
6
CONTINUOUS
10
1.88201
20
-6.67003
11
1.87826
21
-6.65503
0
LINE
8
BLACK
6
CONTINUOUS
10
1.87826
20
-6.65503
11
1.87826
21
-6.63629
0
LINE
8
BLACK
6
CONTINUOUS
10
1.87826
20
-6.63629
11
1.88201
21
-6.62129
0
LINE
8
BLACK
6
CONTINUOUS
10
1.88201
20
-6.62129
11
1.88576
21
-6.61379
0
LINE
8
BLACK
6
CONTINUOUS
10
1.88576
20
-6.61379
11
1.88951
21
-6.61004
0
LINE
8
BLACK
6
CONTINUOUS
10
1.88951
20
-6.61004
11
1.89701
21
-6.60629
0
LINE
8
BLACK
6
CONTINUOUS
10
1.972
20
-6.60629
11
1.9795
21
-6.60629
0
LINE
8
BLACK
6
CONTINUOUS
10
1.9795
20
-6.60629
11
1.987
21
-6.61004
0
LINE
8
BLACK
6
CONTINUOUS
10
1.987
20
-6.61004
11
1.99075
21
-6.61379
0
LINE
8
BLACK
6
CONTINUOUS
10
1.99075
20
-6.61379
11
1.9945
21
-6.62129
0
LINE
8
BLACK
6
CONTINUOUS
10
1.9945
20
-6.62129
11
1.99825
21
-6.63629
0
LINE
8
BLACK
6
CONTINUOUS
10
1.99825
20
-6.63629
11
1.99825
21
-6.65503
0
LINE
8
BLACK
6
CONTINUOUS
10
1.99825
20
-6.65503
11
1.9945
21
-6.67003
0
LINE
8
BLACK
6
CONTINUOUS
10
1.9945
20
-6.67003
11
1.99075
21
-6.67753
0
LINE
8
BLACK
6
CONTINUOUS
10
1.99075
20
-6.67753
11
1.987
21
-6.68128
0
LINE
8
BLACK
6
CONTINUOUS
10
1.987
20
-6.68128
11
1.9795
21
-6.68503
0
LINE
8
BLACK
6
CONTINUOUS
10
1.9795
20
-6.68503
11
1.972
21
-6.68503
0
LINE
8
BLACK
6
CONTINUOUS
10
1.972
20
-6.68503
11
1.9645
21
-6.68128
0
LINE
8
BLACK
6
CONTINUOUS
10
1.9645
20
-6.68128
11
1.96075
21
-6.67753
0
LINE
8
BLACK
6
CONTINUOUS
10
1.96075
20
-6.67753
11
1.957
21
-6.67003
0
LINE
8
BLACK
6
CONTINUOUS
10
1.957
20
-6.67003
11
1.95325
21
-6.65503
0
LINE
8
BLACK
6
CONTINUOUS
10
1.95325
20
-6.65503
11
1.95325
21
-6.63629
0
LINE
8
BLACK
6
CONTINUOUS
10
1.95325
20
-6.63629
11
1.957
21
-6.62129
0
LINE
8
BLACK
6
CONTINUOUS
10
1.957
20
-6.62129
11
1.96075
21
-6.61379
0
LINE
8
BLACK
6
CONTINUOUS
10
1.96075
20
-6.61379
11
1.9645
21
-6.61004
0
LINE
8
BLACK
6
CONTINUOUS
10
1.9645
20
-6.61004
11
1.972
21
-6.60629
0
LINE
8
BLACK
6
CONTINUOUS
10
2.03199
20
-6.68503
11
2.03199
21
-6.63254
0
LINE
8
BLACK
6
CONTINUOUS
10
2.03199
20
-6.64004
11
2.03574
21
-6.63629
0
LINE
8
BLACK
6
CONTINUOUS
10
2.03574
20
-6.63629
11
2.04324
21
-6.63254
0
LINE
8
BLACK
6
CONTINUOUS
10
2.04324
20
-6.63254
11
2.05449
21
-6.63254
0
LINE
8
BLACK
6
CONTINUOUS
10
2.05449
20
-6.63254
11
2.06199
21
-6.63629
0
LINE
8
BLACK
6
CONTINUOUS
10
2.06199
20
-6.63629
11
2.06574
21
-6.64379
0
LINE
8
BLACK
6
CONTINUOUS
10
2.06574
20
-6.64379
11
2.06574
21
-6.68503
0
LINE
8
BLACK
6
CONTINUOUS
10
2.06574
20
-6.64379
11
2.06949
21
-6.63629
0
LINE
8
BLACK
6
CONTINUOUS
10
2.06949
20
-6.63629
11
2.07699
21
-6.63254
0
LINE
8
BLACK
6
CONTINUOUS
10
2.07699
20
-6.63254
11
2.08824
21
-6.63254
0
LINE
8
BLACK
6
CONTINUOUS
10
2.08824
20
-6.63254
11
2.09573
21
-6.63629
0
LINE
8
BLACK
6
CONTINUOUS
10
2.09573
20
-6.63629
11
2.09948
21
-6.64379
0
LINE
8
BLACK
6
CONTINUOUS
10
2.09948
20
-6.64379
11
2.09948
21
-6.68503
0
LINE
8
BLACK
6
CONTINUOUS
10
2.13698
20
-6.68503
11
2.13698
21
-6.63254
0
LINE
8
BLACK
6
CONTINUOUS
10
2.13698
20
-6.64004
11
2.14073
21
-6.63629
0
LINE
8
BLACK
6
CONTINUOUS
10
2.14073
20
-6.63629
11
2.14823
21
-6.63254
0
LINE
8
BLACK
6
CONTINUOUS
10
2.14823
20
-6.63254
11
2.15948
21
-6.63254
0
LINE
8
BLACK
6
CONTINUOUS
10
2.15948
20
-6.63254
11
2.16698
21
-6.63629
0
LINE
8
BLACK
6
CONTINUOUS
10
2.16698
20
-6.63629
11
2.17073
21
-6.64379
0
LINE
8
BLACK
6
CONTINUOUS
10
2.17073
20
-6.64379
11
2.17073
21
-6.68503
0
LINE
8
BLACK
6
CONTINUOUS
10
2.17073
20
-6.64379
11
2.17448
21
-6.63629
0
LINE
8
BLACK
6
CONTINUOUS
10
2.17448
20
-6.63629
11
2.18197
21
-6.63254
0
LINE
8
BLACK
6
CONTINUOUS
10
2.18197
20
-6.63254
11
2.19322
21
-6.63254
0
LINE
8
BLACK
6
CONTINUOUS
10
2.19322
20
-6.63254
11
2.20072
21
-6.63629
0
LINE
8
BLACK
6
CONTINUOUS
10
2.20072
20
-6.63629
11
2.20447
21
-6.64379
0
LINE
8
BLACK
6
CONTINUOUS
10
2.20447
20
-6.64379
11
2.20447
21
-6.68503
0
LINE
8
BLACK
6
CONTINUOUS
10
2.3582
20
-6.60254
11
2.29071
21
-6.70378
0
LINE
8
BLACK
6
CONTINUOUS
10
2.45944
20
-6.60629
11
2.46694
21
-6.60629
0
LINE
8
BLACK
6
CONTINUOUS
10
2.46694
20
-6.60629
11
2.47444
21
-6.61004
0
LINE
8
BLACK
6
CONTINUOUS
10
2.47444
20
-6.61004
11
2.47819
21
-6.61379
0
LINE
8
BLACK
6
CONTINUOUS
10
2.47819
20
-6.61379
11
2.48194
21
-6.62129
0
LINE
8
BLACK
6
CONTINUOUS
10
2.48194
20
-6.62129
11
2.48569
21
-6.63629
0
LINE
8
BLACK
6
CONTINUOUS
10
2.48569
20
-6.63629
11
2.48569
21
-6.65503
0
LINE
8
BLACK
6
CONTINUOUS
10
2.48569
20
-6.65503
11
2.48194
21
-6.67003
0
LINE
8
BLACK
6
CONTINUOUS
10
2.48194
20
-6.67003
11
2.47819
21
-6.67753
0
LINE
8
BLACK
6
CONTINUOUS
10
2.47819
20
-6.67753
11
2.47444
21
-6.68128
0
LINE
8
BLACK
6
CONTINUOUS
10
2.47444
20
-6.68128
11
2.46694
21
-6.68503
0
LINE
8
BLACK
6
CONTINUOUS
10
2.46694
20
-6.68503
11
2.45944
21
-6.68503
0
LINE
8
BLACK
6
CONTINUOUS
10
2.45944
20
-6.68503
11
2.45194
21
-6.68128
0
LINE
8
BLACK
6
CONTINUOUS
10
2.45194
20
-6.68128
11
2.44819
21
-6.67753
0
LINE
8
BLACK
6
CONTINUOUS
10
2.44819
20
-6.67753
11
2.44444
21
-6.67003
0
LINE
8
BLACK
6
CONTINUOUS
10
2.44444
20
-6.67003
11
2.44069
21
-6.65503
0
LINE
8
BLACK
6
CONTINUOUS
10
2.44069
20
-6.65503
11
2.44069
21
-6.63629
0
LINE
8
BLACK
6
CONTINUOUS
10
2.44069
20
-6.63629
11
2.44444
21
-6.62129
0
LINE
8
BLACK
6
CONTINUOUS
10
2.44444
20
-6.62129
11
2.44819
21
-6.61379
0
LINE
8
BLACK
6
CONTINUOUS
10
2.44819
20
-6.61379
11
2.45194
21
-6.61004
0
LINE
8
BLACK
6
CONTINUOUS
10
2.45194
20
-6.61004
11
2.45944
21
-6.60629
0
LINE
8
BLACK
6
CONTINUOUS
10
2.51943
20
-6.67753
11
2.52318
21
-6.68128
0
LINE
8
BLACK
6
CONTINUOUS
10
2.52318
20
-6.68128
11
2.51943
21
-6.68503
0
LINE
8
BLACK
6
CONTINUOUS
10
2.51943
20
-6.68503
11
2.51568
21
-6.68128
0
LINE
8
BLACK
6
CONTINUOUS
10
2.51568
20
-6.68128
11
2.51943
21
-6.67753
0
LINE
8
BLACK
6
CONTINUOUS
10
2.51943
20
-6.67753
11
2.51943
21
-6.68503
0
LINE
8
BLACK
6
CONTINUOUS
10
2.57193
20
-6.60629
11
2.57942
21
-6.60629
0
LINE
8
BLACK
6
CONTINUOUS
10
2.57942
20
-6.60629
11
2.58692
21
-6.61004
0
LINE
8
BLACK
6
CONTINUOUS
10
2.58692
20
-6.61004
11
2.59067
21
-6.61379
0
LINE
8
BLACK
6
CONTINUOUS
10
2.59067
20
-6.61379
11
2.59442
21
-6.62129
0
LINE
8
BLACK
6
CONTINUOUS
10
2.59442
20
-6.62129
11
2.59817
21
-6.63629
0
LINE
8
BLACK
6
CONTINUOUS
10
2.59817
20
-6.63629
11
2.59817
21
-6.65503
0
LINE
8
BLACK
6
CONTINUOUS
10
2.59817
20
-6.65503
11
2.59442
21
-6.67003
0
LINE
8
BLACK
6
CONTINUOUS
10
2.59442
20
-6.67003
11
2.59067
21
-6.67753
0
LINE
8
BLACK
6
CONTINUOUS
10
2.59067
20
-6.67753
11
2.58692
21
-6.68128
0
LINE
8
BLACK
6
CONTINUOUS
10
2.58692
20
-6.68128
11
2.57942
21
-6.68503
0
LINE
8
BLACK
6
CONTINUOUS
10
2.57942
20
-6.68503
11
2.57193
21
-6.68503
0
LINE
8
BLACK
6
CONTINUOUS
10
2.57193
20
-6.68503
11
2.56443
21
-6.68128
0
LINE
8
BLACK
6
CONTINUOUS
10
2.56443
20
-6.68128
11
2.56068
21
-6.67753
0
LINE
8
BLACK
6
CONTINUOUS
10
2.56068
20
-6.67753
11
2.55693
21
-6.67003
0
LINE
8
BLACK
6
CONTINUOUS
10
2.55693
20
-6.67003
11
2.55318
21
-6.65503
0
LINE
8
BLACK
6
CONTINUOUS
10
2.55318
20
-6.65503
11
2.55318
21
-6.63629
0
LINE
8
BLACK
6
CONTINUOUS
10
2.55318
20
-6.63629
11
2.55693
21
-6.62129
0
LINE
8
BLACK
6
CONTINUOUS
10
2.55693
20
-6.62129
11
2.56068
21
-6.61379
0
LINE
8
BLACK
6
CONTINUOUS
10
2.56068
20
-6.61379
11
2.56443
21
-6.61004
0
LINE
8
BLACK
6
CONTINUOUS
10
2.56443
20
-6.61004
11
2.57193
21
-6.60629
0
LINE
8
BLACK
6
CONTINUOUS
10
2.62442
20
-6.60629
11
2.67316
21
-6.60629
0
LINE
8
BLACK
6
CONTINUOUS
10
2.67316
20
-6.60629
11
2.64692
21
-6.63629
0
LINE
8
BLACK
6
CONTINUOUS
10
2.64692
20
-6.63629
11
2.65816
21
-6.63629
0
LINE
8
BLACK
6
CONTINUOUS
10
2.65816
20
-6.63629
11
2.66566
21
-6.64004
0
LINE
8
BLACK
6
CONTINUOUS
10
2.66566
20
-6.64004
11
2.66941
21
-6.64379
0
LINE
8
BLACK
6
CONTINUOUS
10
2.66941
20
-6.64379
11
2.67316
21
-6.65128
0
LINE
8
BLACK
6
CONTINUOUS
10
2.67316
20
-6.65128
11
2.67316
21
-6.67003
0
LINE
8
BLACK
6
CONTINUOUS
10
2.67316
20
-6.67003
11
2.66941
21
-6.67753
0
LINE
8
BLACK
6
CONTINUOUS
10
2.66941
20
-6.67753
11
2.66566
21
-6.68128
0
LINE
8
BLACK
6
CONTINUOUS
10
2.66566
20
-6.68128
11
2.65816
21
-6.68503
0
LINE
8
BLACK
6
CONTINUOUS
10
2.65816
20
-6.68503
11
2.63567
21
-6.68503
0
LINE
8
BLACK
6
CONTINUOUS
10
2.63567
20
-6.68503
11
2.62817
21
-6.68128
0
LINE
8
BLACK
6
CONTINUOUS
10
2.62817
20
-6.68128
11
2.62442
21
-6.67753
0
LINE
8
BLACK
6
CONTINUOUS
10
2.71066
20
-6.68503
11
2.72566
21
-6.68503
0
LINE
8
BLACK
6
CONTINUOUS
10
2.72566
20
-6.68503
11
2.73316
21
-6.68128
0
LINE
8
BLACK
6
CONTINUOUS
10
2.73316
20
-6.68128
11
2.7369
21
-6.67753
0
LINE
8
BLACK
6
CONTINUOUS
10
2.7369
20
-6.67753
11
2.7444
21
-6.66628
0
LINE
8
BLACK
6
CONTINUOUS
10
2.7444
20
-6.66628
11
2.74815
21
-6.65128
0
LINE
8
BLACK
6
CONTINUOUS
10
2.74815
20
-6.65128
11
2.74815
21
-6.62129
0
LINE
8
BLACK
6
CONTINUOUS
10
2.74815
20
-6.62129
11
2.7444
21
-6.61379
0
LINE
8
BLACK
6
CONTINUOUS
10
2.7444
20
-6.61379
11
2.74065
21
-6.61004
0
LINE
8
BLACK
6
CONTINUOUS
10
2.74065
20
-6.61004
11
2.73316
21
-6.60629
0
LINE
8
BLACK
6
CONTINUOUS
10
2.73316
20
-6.60629
11
2.71816
21
-6.60629
0
LINE
8
BLACK
6
CONTINUOUS
10
2.71816
20
-6.60629
11
2.71066
21
-6.61004
0
LINE
8
BLACK
6
CONTINUOUS
10
2.71066
20
-6.61004
11
2.70691
21
-6.61379
0
LINE
8
BLACK
6
CONTINUOUS
10
2.70691
20
-6.61379
11
2.70316
21
-6.62129
0
LINE
8
BLACK
6
CONTINUOUS
10
2.70316
20
-6.62129
11
2.70316
21
-6.64004
0
LINE
8
BLACK
6
CONTINUOUS
10
2.70316
20
-6.64004
11
2.70691
21
-6.64753
0
LINE
8
BLACK
6
CONTINUOUS
10
2.70691
20
-6.64753
11
2.71066
21
-6.65128
0
LINE
8
BLACK
6
CONTINUOUS
10
2.71066
20
-6.65128
11
2.71816
21
-6.65503
0
LINE
8
BLACK
6
CONTINUOUS
10
2.71816
20
-6.65503
11
2.73316
21
-6.65503
0
LINE
8
BLACK
6
CONTINUOUS
10
2.73316
20
-6.65503
11
2.74065
21
-6.65128
0
LINE
8
BLACK
6
CONTINUOUS
10
2.74065
20
-6.65128
11
2.7444
21
-6.64753
0
LINE
8
BLACK
6
CONTINUOUS
10
2.7444
20
-6.64753
11
2.74815
21
-6.64004
0
LINE
8
BLACK
6
CONTINUOUS
10
2.81564
20
-6.63254
11
2.81564
21
-6.68503
0
LINE
8
BLACK
6
CONTINUOUS
10
2.7969
20
-6.60254
11
2.77815
21
-6.65878
0
LINE
8
BLACK
6
CONTINUOUS
10
2.77815
20
-6.65878
11
2.82689
21
-6.65878
0
LINE
8
BLACK
6
CONTINUOUS
10
2.85314
20
-6.60629
11
2.85314
21
-6.62129
0
LINE
8
BLACK
6
CONTINUOUS
10
2.88314
20
-6.60629
11
2.88314
21
-6.62129
0
LINE
8
BLACK
6
CONTINUOUS
10
2.99937
20
-6.71503
11
2.99562
21
-6.71128
0
LINE
8
BLACK
6
CONTINUOUS
10
2.99562
20
-6.71128
11
2.98812
21
-6.70003
0
LINE
8
BLACK
6
CONTINUOUS
10
2.98812
20
-6.70003
11
2.98437
21
-6.69253
0
LINE
8
BLACK
6
CONTINUOUS
10
2.98437
20
-6.69253
11
2.98062
21
-6.68128
0
LINE
8
BLACK
6
CONTINUOUS
10
2.98062
20
-6.68128
11
2.97687
21
-6.66253
0
LINE
8
BLACK
6
CONTINUOUS
10
2.97687
20
-6.66253
11
2.97687
21
-6.64753
0
LINE
8
BLACK
6
CONTINUOUS
10
2.97687
20
-6.64753
11
2.98062
21
-6.62879
0
LINE
8
BLACK
6
CONTINUOUS
10
2.98062
20
-6.62879
11
2.98437
21
-6.61754
0
LINE
8
BLACK
6
CONTINUOUS
10
2.98437
20
-6.61754
11
2.98812
21
-6.61004
0
LINE
8
BLACK
6
CONTINUOUS
10
2.98812
20
-6.61004
11
2.99562
21
-6.59879
0
LINE
8
BLACK
6
CONTINUOUS
10
2.99562
20
-6.59879
11
2.99937
21
-6.59504
0
LINE
8
BLACK
6
CONTINUOUS
10
3.06311
20
-6.63254
11
3.06311
21
-6.68503
0
LINE
8
BLACK
6
CONTINUOUS
10
3.04437
20
-6.60254
11
3.02562
21
-6.65878
0
LINE
8
BLACK
6
CONTINUOUS
10
3.02562
20
-6.65878
11
3.07436
21
-6.65878
0
LINE
8
BLACK
6
CONTINUOUS
10
3.16435
20
-6.68503
11
3.16435
21
-6.60629
0
LINE
8
BLACK
6
CONTINUOUS
10
3.1981
20
-6.68503
11
3.1981
21
-6.64379
0
LINE
8
BLACK
6
CONTINUOUS
10
3.1981
20
-6.64379
11
3.19435
21
-6.63629
0
LINE
8
BLACK
6
CONTINUOUS
10
3.19435
20
-6.63629
11
3.18685
21
-6.63254
0
LINE
8
BLACK
6
CONTINUOUS
10
3.18685
20
-6.63254
11
3.1756
21
-6.63254
0
LINE
8
BLACK
6
CONTINUOUS
10
3.1756
20
-6.63254
11
3.1681
21
-6.63629
0
LINE
8
BLACK
6
CONTINUOUS
10
3.1681
20
-6.63629
11
3.16435
21
-6.64004
0
LINE
8
BLACK
6
CONTINUOUS
10
3.24684
20
-6.68503
11
3.23934
21
-6.68128
0
LINE
8
BLACK
6
CONTINUOUS
10
3.23934
20
-6.68128
11
3.23559
21
-6.67753
0
LINE
8
BLACK
6
CONTINUOUS
10
3.23559
20
-6.67753
11
3.23184
21
-6.67003
0
LINE
8
BLACK
6
CONTINUOUS
10
3.23184
20
-6.67003
11
3.23184
21
-6.64753
0
LINE
8
BLACK
6
CONTINUOUS
10
3.23184
20
-6.64753
11
3.23559
21
-6.64004
0
LINE
8
BLACK
6
CONTINUOUS
10
3.23559
20
-6.64004
11
3.23934
21
-6.63629
0
LINE
8
BLACK
6
CONTINUOUS
10
3.23934
20
-6.63629
11
3.24684
21
-6.63254
0
LINE
8
BLACK
6
CONTINUOUS
10
3.24684
20
-6.63254
11
3.25809
21
-6.63254
0
LINE
8
BLACK
6
CONTINUOUS
10
3.25809
20
-6.63254
11
3.26559
21
-6.63629
0
LINE
8
BLACK
6
CONTINUOUS
10
3.26559
20
-6.63629
11
3.26934
21
-6.64004
0
LINE
8
BLACK
6
CONTINUOUS
10
3.26934
20
-6.64004
11
3.27309
21
-6.64753
0
LINE
8
BLACK
6
CONTINUOUS
10
3.27309
20
-6.64753
11
3.27309
21
-6.67003
0
LINE
8
BLACK
6
CONTINUOUS
10
3.27309
20
-6.67003
11
3.26934
21
-6.67753
0
LINE
8
BLACK
6
CONTINUOUS
10
3.26934
20
-6.67753
11
3.26559
21
-6.68128
0
LINE
8
BLACK
6
CONTINUOUS
10
3.26559
20
-6.68128
11
3.25809
21
-6.68503
0
LINE
8
BLACK
6
CONTINUOUS
10
3.25809
20
-6.68503
11
3.24684
21
-6.68503
0
LINE
8
BLACK
6
CONTINUOUS
10
3.31808
20
-6.68503
11
3.31058
21
-6.68128
0
LINE
8
BLACK
6
CONTINUOUS
10
3.31058
20
-6.68128
11
3.30683
21
-6.67378
0
LINE
8
BLACK
6
CONTINUOUS
10
3.30683
20
-6.67378
11
3.30683
21
-6.60629
0
LINE
8
BLACK
6
CONTINUOUS
10
3.37807
20
-6.68128
11
3.37058
21
-6.68503
0
LINE
8
BLACK
6
CONTINUOUS
10
3.37058
20
-6.68503
11
3.35558
21
-6.68503
0
LINE
8
BLACK
6
CONTINUOUS
10
3.35558
20
-6.68503
11
3.34808
21
-6.68128
0
LINE
8
BLACK
6
CONTINUOUS
10
3.34808
20
-6.68128
11
3.34433
21
-6.67378
0
LINE
8
BLACK
6
CONTINUOUS
10
3.34433
20
-6.67378
11
3.34433
21
-6.64379
0
LINE
8
BLACK
6
CONTINUOUS
10
3.34433
20
-6.64379
11
3.34808
21
-6.63629
0
LINE
8
BLACK
6
CONTINUOUS
10
3.34808
20
-6.63629
11
3.35558
21
-6.63254
0
LINE
8
BLACK
6
CONTINUOUS
10
3.35558
20
-6.63254
11
3.37058
21
-6.63254
0
LINE
8
BLACK
6
CONTINUOUS
10
3.37058
20
-6.63254
11
3.37807
21
-6.63629
0
LINE
8
BLACK
6
CONTINUOUS
10
3.37807
20
-6.63629
11
3.38182
21
-6.64379
0
LINE
8
BLACK
6
CONTINUOUS
10
3.38182
20
-6.64379
11
3.38182
21
-6.65128
0
LINE
8
BLACK
6
CONTINUOUS
10
3.38182
20
-6.65128
11
3.34433
21
-6.65878
0
LINE
8
BLACK
6
CONTINUOUS
10
3.41182
20
-6.68128
11
3.41932
21
-6.68503
0
LINE
8
BLACK
6
CONTINUOUS
10
3.41932
20
-6.68503
11
3.43432
21
-6.68503
0
LINE
8
BLACK
6
CONTINUOUS
10
3.43432
20
-6.68503
11
3.44182
21
-6.68128
0
LINE
8
BLACK
6
CONTINUOUS
10
3.44182
20
-6.68128
11
3.44557
21
-6.67378
0
LINE
8
BLACK
6
CONTINUOUS
10
3.44557
20
-6.67378
11
3.44557
21
-6.67003
0
LINE
8
BLACK
6
CONTINUOUS
10
3.44557
20
-6.67003
11
3.44182
21
-6.66253
0
LINE
8
BLACK
6
CONTINUOUS
10
3.44182
20
-6.66253
11
3.43432
21
-6.65878
0
LINE
8
BLACK
6
CONTINUOUS
10
3.43432
20
-6.65878
11
3.42307
21
-6.65878
0
LINE
8
BLACK
6
CONTINUOUS
10
3.42307
20
-6.65878
11
3.41557
21
-6.65503
0
LINE
8
BLACK
6
CONTINUOUS
10
3.41557
20
-6.65503
11
3.41182
21
-6.64753
0
LINE
8
BLACK
6
CONTINUOUS
10
3.41182
20
-6.64753
11
3.41182
21
-6.64379
0
LINE
8
BLACK
6
CONTINUOUS
10
3.41182
20
-6.64379
11
3.41557
21
-6.63629
0
LINE
8
BLACK
6
CONTINUOUS
10
3.41557
20
-6.63629
11
3.42307
21
-6.63254
0
LINE
8
BLACK
6
CONTINUOUS
10
3.42307
20
-6.63254
11
3.43432
21
-6.63254
0
LINE
8
BLACK
6
CONTINUOUS
10
3.43432
20
-6.63254
11
3.44182
21
-6.63629
0
LINE
8
BLACK
6
CONTINUOUS
10
3.47181
20
-6.71503
11
3.47556
21
-6.71128
0
LINE
8
BLACK
6
CONTINUOUS
10
3.47556
20
-6.71128
11
3.48306
21
-6.70003
0
LINE
8
BLACK
6
CONTINUOUS
10
3.48306
20
-6.70003
11
3.48681
21
-6.69253
0
LINE
8
BLACK
6
CONTINUOUS
10
3.48681
20
-6.69253
11
3.49056
21
-6.68128
0
LINE
8
BLACK
6
CONTINUOUS
10
3.49056
20
-6.68128
11
3.49431
21
-6.66253
0
LINE
8
BLACK
6
CONTINUOUS
10
3.49431
20
-6.66253
11
3.49431
21
-6.64753
0
LINE
8
BLACK
6
CONTINUOUS
10
3.49431
20
-6.64753
11
3.49056
21
-6.62879
0
LINE
8
BLACK
6
CONTINUOUS
10
3.49056
20
-6.62879
11
3.48681
21
-6.61754
0
LINE
8
BLACK
6
CONTINUOUS
10
3.48681
20
-6.61754
11
3.48306
21
-6.61004
0
LINE
8
BLACK
6
CONTINUOUS
10
3.48306
20
-6.61004
11
3.47556
21
-6.59879
0
LINE
8
BLACK
6
CONTINUOUS
10
3.47556
20
-6.59879
11
3.47181
21
-6.59504
0
LINE
8
BLACK
6
CONTINUOUS
10
1.58734
20
-6.76727
11
1.58734
21
-6.73943
0
LINE
8
BLACK
6
CONTINUOUS
10
1.58734
20
-6.73943
11
1.55951
21
-6.73943
0
LINE
8
BLACK
6
CONTINUOUS
10
1.55951
20
-6.73943
11
1.55951
21
-6.76727
0
LINE
8
BLACK
6
CONTINUOUS
10
1.55951
20
-6.76727
11
1.58734
21
-6.76727
0
LINE
8
BLACK
6
CONTINUOUS
10
1.73578
20
-6.78897
11
1.69079
21
-6.78897
0
LINE
8
BLACK
6
CONTINUOUS
10
1.71328
20
-6.78897
11
1.71328
21
-6.71023
0
LINE
8
BLACK
6
CONTINUOUS
10
1.71328
20
-6.71023
11
1.70578
21
-6.72148
0
LINE
8
BLACK
6
CONTINUOUS
10
1.70578
20
-6.72148
11
1.69828
21
-6.72897
0
LINE
8
BLACK
6
CONTINUOUS
10
1.69828
20
-6.72897
11
1.69079
21
-6.73272
0
LINE
8
BLACK
6
CONTINUOUS
10
1.76953
20
-6.78147
11
1.77328
21
-6.78522
0
LINE
8
BLACK
6
CONTINUOUS
10
1.77328
20
-6.78522
11
1.76953
21
-6.78897
0
LINE
8
BLACK
6
CONTINUOUS
10
1.76953
20
-6.78897
11
1.76578
21
-6.78522
0
LINE
8
BLACK
6
CONTINUOUS
10
1.76578
20
-6.78522
11
1.76953
21
-6.78147
0
LINE
8
BLACK
6
CONTINUOUS
10
1.76953
20
-6.78147
11
1.76953
21
-6.78897
0
LINE
8
BLACK
6
CONTINUOUS
10
1.82202
20
-6.71023
11
1.82952
21
-6.71023
0
LINE
8
BLACK
6
CONTINUOUS
10
1.82952
20
-6.71023
11
1.83702
21
-6.71398
0
LINE
8
BLACK
6
CONTINUOUS
10
1.83702
20
-6.71398
11
1.84077
21
-6.71773
0
LINE
8
BLACK
6
CONTINUOUS
10
1.84077
20
-6.71773
11
1.84452
21
-6.72522
0
LINE
8
BLACK
6
CONTINUOUS
10
1.84452
20
-6.72522
11
1.84827
21
-6.74022
0
LINE
8
BLACK
6
CONTINUOUS
10
1.84827
20
-6.74022
11
1.84827
21
-6.75897
0
LINE
8
BLACK
6
CONTINUOUS
10
1.84827
20
-6.75897
11
1.84452
21
-6.77397
0
LINE
8
BLACK
6
CONTINUOUS
10
1.84452
20
-6.77397
11
1.84077
21
-6.78147
0
LINE
8
BLACK
6
CONTINUOUS
10
1.84077
20
-6.78147
11
1.83702
21
-6.78522
0
LINE
8
BLACK
6
CONTINUOUS
10
1.83702
20
-6.78522
11
1.82952
21
-6.78897
0
LINE
8
BLACK
6
CONTINUOUS
10
1.82952
20
-6.78897
11
1.82202
21
-6.78897
0
LINE
8
BLACK
6
CONTINUOUS
10
1.82202
20
-6.78897
11
1.81452
21
-6.78522
0
LINE
8
BLACK
6
CONTINUOUS
10
1.81452
20
-6.78522
11
1.81077
21
-6.78147
0
LINE
8
BLACK
6
CONTINUOUS
10
1.81077
20
-6.78147
11
1.80702
21
-6.77397
0
LINE
8
BLACK
6
CONTINUOUS
10
1.80702
20
-6.77397
11
1.80327
21
-6.75897
0
LINE
8
BLACK
6
CONTINUOUS
10
1.80327
20
-6.75897
11
1.80327
21
-6.74022
0
LINE
8
BLACK
6
CONTINUOUS
10
1.80327
20
-6.74022
11
1.80702
21
-6.72522
0
LINE
8
BLACK
6
CONTINUOUS
10
1.80702
20
-6.72522
11
1.81077
21
-6.71773
0
LINE
8
BLACK
6
CONTINUOUS
10
1.81077
20
-6.71773
11
1.81452
21
-6.71398
0
LINE
8
BLACK
6
CONTINUOUS
10
1.81452
20
-6.71398
11
1.82202
21
-6.71023
0
LINE
8
BLACK
6
CONTINUOUS
10
1.89701
20
-6.71023
11
1.90451
21
-6.71023
0
LINE
8
BLACK
6
CONTINUOUS
10
1.90451
20
-6.71023
11
1.91201
21
-6.71398
0
LINE
8
BLACK
6
CONTINUOUS
10
1.91201
20
-6.71398
11
1.91576
21
-6.71773
0
LINE
8
BLACK
6
CONTINUOUS
10
1.91576
20
-6.71773
11
1.91951
21
-6.72522
0
LINE
8
BLACK
6
CONTINUOUS
10
1.91951
20
-6.72522
11
1.92326
21
-6.74022
0
LINE
8
BLACK
6
CONTINUOUS
10
1.92326
20
-6.74022
11
1.92326
21
-6.75897
0
LINE
8
BLACK
6
CONTINUOUS
10
1.92326
20
-6.75897
11
1.91951
21
-6.77397
0
LINE
8
BLACK
6
CONTINUOUS
10
1.91951
20
-6.77397
11
1.91576
21
-6.78147
0
LINE
8
BLACK
6
CONTINUOUS
10
1.91576
20
-6.78147
11
1.91201
21
-6.78522
0
LINE
8
BLACK
6
CONTINUOUS
10
1.91201
20
-6.78522
11
1.90451
21
-6.78897
0
LINE
8
BLACK
6
CONTINUOUS
10
1.90451
20
-6.78897
11
1.89701
21
-6.78897
0
LINE
8
BLACK
6
CONTINUOUS
10
1.89701
20
-6.78897
11
1.88951
21
-6.78522
0
LINE
8
BLACK
6
CONTINUOUS
10
1.88951
20
-6.78522
11
1.88576
21
-6.78147
0
LINE
8
BLACK
6
CONTINUOUS
10
1.88576
20
-6.78147
11
1.88201
21
-6.77397
0
LINE
8
BLACK
6
CONTINUOUS
10
1.88201
20
-6.77397
11
1.87826
21
-6.75897
0
LINE
8
BLACK
6
CONTINUOUS
10
1.87826
20
-6.75897
11
1.87826
21
-6.74022
0
LINE
8
BLACK
6
CONTINUOUS
10
1.87826
20
-6.74022
11
1.88201
21
-6.72522
0
LINE
8
BLACK
6
CONTINUOUS
10
1.88201
20
-6.72522
11
1.88576
21
-6.71773
0
LINE
8
BLACK
6
CONTINUOUS
10
1.88576
20
-6.71773
11
1.88951
21
-6.71398
0
LINE
8
BLACK
6
CONTINUOUS
10
1.88951
20
-6.71398
11
1.89701
21
-6.71023
0
LINE
8
BLACK
6
CONTINUOUS
10
1.972
20
-6.71023
11
1.9795
21
-6.71023
0
LINE
8
BLACK
6
CONTINUOUS
10
1.9795
20
-6.71023
11
1.987
21
-6.71398
0
LINE
8
BLACK
6
CONTINUOUS
10
1.987
20
-6.71398
11
1.99075
21
-6.71773
0
LINE
8
BLACK
6
CONTINUOUS
10
1.99075
20
-6.71773
11
1.9945
21
-6.72522
0
LINE
8
BLACK
6
CONTINUOUS
10
1.9945
20
-6.72522
11
1.99825
21
-6.74022
0
LINE
8
BLACK
6
CONTINUOUS
10
1.99825
20
-6.74022
11
1.99825
21
-6.75897
0
LINE
8
BLACK
6
CONTINUOUS
10
1.99825
20
-6.75897
11
1.9945
21
-6.77397
0
LINE
8
BLACK
6
CONTINUOUS
10
1.9945
20
-6.77397
11
1.99075
21
-6.78147
0
LINE
8
BLACK
6
CONTINUOUS
10
1.99075
20
-6.78147
11
1.987
21
-6.78522
0
LINE
8
BLACK
6
CONTINUOUS
10
1.987
20
-6.78522
11
1.9795
21
-6.78897
0
LINE
8
BLACK
6
CONTINUOUS
10
1.9795
20
-6.78897
11
1.972
21
-6.78897
0
LINE
8
BLACK
6
CONTINUOUS
10
1.972
20
-6.78897
11
1.9645
21
-6.78522
0
LINE
8
BLACK
6
CONTINUOUS
10
1.9645
20
-6.78522
11
1.96075
21
-6.78147
0
LINE
8
BLACK
6
CONTINUOUS
10
1.96075
20
-6.78147
11
1.957
21
-6.77397
0
LINE
8
BLACK
6
CONTINUOUS
10
1.957
20
-6.77397
11
1.95325
21
-6.75897
0
LINE
8
BLACK
6
CONTINUOUS
10
1.95325
20
-6.75897
11
1.95325
21
-6.74022
0
LINE
8
BLACK
6
CONTINUOUS
10
1.95325
20
-6.74022
11
1.957
21
-6.72522
0
LINE
8
BLACK
6
CONTINUOUS
10
1.957
20
-6.72522
11
1.96075
21
-6.71773
0
LINE
8
BLACK
6
CONTINUOUS
10
1.96075
20
-6.71773
11
1.9645
21
-6.71398
0
LINE
8
BLACK
6
CONTINUOUS
10
1.9645
20
-6.71398
11
1.972
21
-6.71023
0
LINE
8
BLACK
6
CONTINUOUS
10
2.03199
20
-6.78897
11
2.03199
21
-6.73647
0
LINE
8
BLACK
6
CONTINUOUS
10
2.03199
20
-6.74397
11
2.03574
21
-6.74022
0
LINE
8
BLACK
6
CONTINUOUS
10
2.03574
20
-6.74022
11
2.04324
21
-6.73647
0
LINE
8
BLACK
6
CONTINUOUS
10
2.04324
20
-6.73647
11
2.05449
21
-6.73647
0
LINE
8
BLACK
6
CONTINUOUS
10
2.05449
20
-6.73647
11
2.06199
21
-6.74022
0
LINE
8
BLACK
6
CONTINUOUS
10
2.06199
20
-6.74022
11
2.06574
21
-6.74772
0
LINE
8
BLACK
6
CONTINUOUS
10
2.06574
20
-6.74772
11
2.06574
21
-6.78897
0
LINE
8
BLACK
6
CONTINUOUS
10
2.06574
20
-6.74772
11
2.06949
21
-6.74022
0
LINE
8
BLACK
6
CONTINUOUS
10
2.06949
20
-6.74022
11
2.07699
21
-6.73647
0
LINE
8
BLACK
6
CONTINUOUS
10
2.07699
20
-6.73647
11
2.08824
21
-6.73647
0
LINE
8
BLACK
6
CONTINUOUS
10
2.08824
20
-6.73647
11
2.09573
21
-6.74022
0
LINE
8
BLACK
6
CONTINUOUS
10
2.09573
20
-6.74022
11
2.09948
21
-6.74772
0
LINE
8
BLACK
6
CONTINUOUS
10
2.09948
20
-6.74772
11
2.09948
21
-6.78897
0
LINE
8
BLACK
6
CONTINUOUS
10
2.13698
20
-6.78897
11
2.13698
21
-6.73647
0
LINE
8
BLACK
6
CONTINUOUS
10
2.13698
20
-6.74397
11
2.14073
21
-6.74022
0
LINE
8
BLACK
6
CONTINUOUS
10
2.14073
20
-6.74022
11
2.14823
21
-6.73647
0
LINE
8
BLACK
6
CONTINUOUS
10
2.14823
20
-6.73647
11
2.15948
21
-6.73647
0
LINE
8
BLACK
6
CONTINUOUS
10
2.15948
20
-6.73647
11
2.16698
21
-6.74022
0
LINE
8
BLACK
6
CONTINUOUS
10
2.16698
20
-6.74022
11
2.17073
21
-6.74772
0
LINE
8
BLACK
6
CONTINUOUS
10
2.17073
20
-6.74772
11
2.17073
21
-6.78897
0
LINE
8
BLACK
6
CONTINUOUS
10
2.17073
20
-6.74772
11
2.17448
21
-6.74022
0
LINE
8
BLACK
6
CONTINUOUS
10
2.17448
20
-6.74022
11
2.18197
21
-6.73647
0
LINE
8
BLACK
6
CONTINUOUS
10
2.18197
20
-6.73647
11
2.19322
21
-6.73647
0
LINE
8
BLACK
6
CONTINUOUS
10
2.19322
20
-6.73647
11
2.20072
21
-6.74022
0
LINE
8
BLACK
6
CONTINUOUS
10
2.20072
20
-6.74022
11
2.20447
21
-6.74772
0
LINE
8
BLACK
6
CONTINUOUS
10
2.20447
20
-6.74772
11
2.20447
21
-6.78897
0
LINE
8
BLACK
6
CONTINUOUS
10
2.3582
20
-6.70648
11
2.29071
21
-6.80771
0
LINE
8
BLACK
6
CONTINUOUS
10
2.45944
20
-6.71023
11
2.46694
21
-6.71023
0
LINE
8
BLACK
6
CONTINUOUS
10
2.46694
20
-6.71023
11
2.47444
21
-6.71398
0
LINE
8
BLACK
6
CONTINUOUS
10
2.47444
20
-6.71398
11
2.47819
21
-6.71773
0
LINE
8
BLACK
6
CONTINUOUS
10
2.47819
20
-6.71773
11
2.48194
21
-6.72522
0
LINE
8
BLACK
6
CONTINUOUS
10
2.48194
20
-6.72522
11
2.48569
21
-6.74022
0
LINE
8
BLACK
6
CONTINUOUS
10
2.48569
20
-6.74022
11
2.48569
21
-6.75897
0
LINE
8
BLACK
6
CONTINUOUS
10
2.48569
20
-6.75897
11
2.48194
21
-6.77397
0
LINE
8
BLACK
6
CONTINUOUS
10
2.48194
20
-6.77397
11
2.47819
21
-6.78147
0
LINE
8
BLACK
6
CONTINUOUS
10
2.47819
20
-6.78147
11
2.47444
21
-6.78522
0
LINE
8
BLACK
6
CONTINUOUS
10
2.47444
20
-6.78522
11
2.46694
21
-6.78897
0
LINE
8
BLACK
6
CONTINUOUS
10
2.46694
20
-6.78897
11
2.45944
21
-6.78897
0
LINE
8
BLACK
6
CONTINUOUS
10
2.45944
20
-6.78897
11
2.45194
21
-6.78522
0
LINE
8
BLACK
6
CONTINUOUS
10
2.45194
20
-6.78522
11
2.44819
21
-6.78147
0
LINE
8
BLACK
6
CONTINUOUS
10
2.44819
20
-6.78147
11
2.44444
21
-6.77397
0
LINE
8
BLACK
6
CONTINUOUS
10
2.44444
20
-6.77397
11
2.44069
21
-6.75897
0
LINE
8
BLACK
6
CONTINUOUS
10
2.44069
20
-6.75897
11
2.44069
21
-6.74022
0
LINE
8
BLACK
6
CONTINUOUS
10
2.44069
20
-6.74022
11
2.44444
21
-6.72522
0
LINE
8
BLACK
6
CONTINUOUS
10
2.44444
20
-6.72522
11
2.44819
21
-6.71773
0
LINE
8
BLACK
6
CONTINUOUS
10
2.44819
20
-6.71773
11
2.45194
21
-6.71398
0
LINE
8
BLACK
6
CONTINUOUS
10
2.45194
20
-6.71398
11
2.45944
21
-6.71023
0
LINE
8
BLACK
6
CONTINUOUS
10
2.51943
20
-6.78147
11
2.52318
21
-6.78522
0
LINE
8
BLACK
6
CONTINUOUS
10
2.52318
20
-6.78522
11
2.51943
21
-6.78897
0
LINE
8
BLACK
6
CONTINUOUS
10
2.51943
20
-6.78897
11
2.51568
21
-6.78522
0
LINE
8
BLACK
6
CONTINUOUS
10
2.51568
20
-6.78522
11
2.51943
21
-6.78147
0
LINE
8
BLACK
6
CONTINUOUS
10
2.51943
20
-6.78147
11
2.51943
21
-6.78897
0
LINE
8
BLACK
6
CONTINUOUS
10
2.57193
20
-6.71023
11
2.57942
21
-6.71023
0
LINE
8
BLACK
6
CONTINUOUS
10
2.57942
20
-6.71023
11
2.58692
21
-6.71398
0
LINE
8
BLACK
6
CONTINUOUS
10
2.58692
20
-6.71398
11
2.59067
21
-6.71773
0
LINE
8
BLACK
6
CONTINUOUS
10
2.59067
20
-6.71773
11
2.59442
21
-6.72522
0
LINE
8
BLACK
6
CONTINUOUS
10
2.59442
20
-6.72522
11
2.59817
21
-6.74022
0
LINE
8
BLACK
6
CONTINUOUS
10
2.59817
20
-6.74022
11
2.59817
21
-6.75897
0
LINE
8
BLACK
6
CONTINUOUS
10
2.59817
20
-6.75897
11
2.59442
21
-6.77397
0
LINE
8
BLACK
6
CONTINUOUS
10
2.59442
20
-6.77397
11
2.59067
21
-6.78147
0
LINE
8
BLACK
6
CONTINUOUS
10
2.59067
20
-6.78147
11
2.58692
21
-6.78522
0
LINE
8
BLACK
6
CONTINUOUS
10
2.58692
20
-6.78522
11
2.57942
21
-6.78897
0
LINE
8
BLACK
6
CONTINUOUS
10
2.57942
20
-6.78897
11
2.57193
21
-6.78897
0
LINE
8
BLACK
6
CONTINUOUS
10
2.57193
20
-6.78897
11
2.56443
21
-6.78522
0
LINE
8
BLACK
6
CONTINUOUS
10
2.56443
20
-6.78522
11
2.56068
21
-6.78147
0
LINE
8
BLACK
6
CONTINUOUS
10
2.56068
20
-6.78147
11
2.55693
21
-6.77397
0
LINE
8
BLACK
6
CONTINUOUS
10
2.55693
20
-6.77397
11
2.55318
21
-6.75897
0
LINE
8
BLACK
6
CONTINUOUS
10
2.55318
20
-6.75897
11
2.55318
21
-6.74022
0
LINE
8
BLACK
6
CONTINUOUS
10
2.55318
20
-6.74022
11
2.55693
21
-6.72522
0
LINE
8
BLACK
6
CONTINUOUS
10
2.55693
20
-6.72522
11
2.56068
21
-6.71773
0
LINE
8
BLACK
6
CONTINUOUS
10
2.56068
20
-6.71773
11
2.56443
21
-6.71398
0
LINE
8
BLACK
6
CONTINUOUS
10
2.56443
20
-6.71398
11
2.57193
21
-6.71023
0
LINE
8
BLACK
6
CONTINUOUS
10
2.62442
20
-6.71023
11
2.67316
21
-6.71023
0
LINE
8
BLACK
6
CONTINUOUS
10
2.67316
20
-6.71023
11
2.64692
21
-6.74022
0
LINE
8
BLACK
6
CONTINUOUS
10
2.64692
20
-6.74022
11
2.65816
21
-6.74022
0
LINE
8
BLACK
6
CONTINUOUS
10
2.65816
20
-6.74022
11
2.66566
21
-6.74397
0
LINE
8
BLACK
6
CONTINUOUS
10
2.66566
20
-6.74397
11
2.66941
21
-6.74772
0
LINE
8
BLACK
6
CONTINUOUS
10
2.66941
20
-6.74772
11
2.67316
21
-6.75522
0
LINE
8
BLACK
6
CONTINUOUS
10
2.67316
20
-6.75522
11
2.67316
21
-6.77397
0
LINE
8
BLACK
6
CONTINUOUS
10
2.67316
20
-6.77397
11
2.66941
21
-6.78147
0
LINE
8
BLACK
6
CONTINUOUS
10
2.66941
20
-6.78147
11
2.66566
21
-6.78522
0
LINE
8
BLACK
6
CONTINUOUS
10
2.66566
20
-6.78522
11
2.65816
21
-6.78897
0
LINE
8
BLACK
6
CONTINUOUS
10
2.65816
20
-6.78897
11
2.63567
21
-6.78897
0
LINE
8
BLACK
6
CONTINUOUS
10
2.63567
20
-6.78897
11
2.62817
21
-6.78522
0
LINE
8
BLACK
6
CONTINUOUS
10
2.62817
20
-6.78522
11
2.62442
21
-6.78147
0
LINE
8
BLACK
6
CONTINUOUS
10
2.71066
20
-6.78897
11
2.72566
21
-6.78897
0
LINE
8
BLACK
6
CONTINUOUS
10
2.72566
20
-6.78897
11
2.73316
21
-6.78522
0
LINE
8
BLACK
6
CONTINUOUS
10
2.73316
20
-6.78522
11
2.7369
21
-6.78147
0
LINE
8
BLACK
6
CONTINUOUS
10
2.7369
20
-6.78147
11
2.7444
21
-6.77022
0
LINE
8
BLACK
6
CONTINUOUS
10
2.7444
20
-6.77022
11
2.74815
21
-6.75522
0
LINE
8
BLACK
6
CONTINUOUS
10
2.74815
20
-6.75522
11
2.74815
21
-6.72522
0
LINE
8
BLACK
6
CONTINUOUS
10
2.74815
20
-6.72522
11
2.7444
21
-6.71773
0
LINE
8
BLACK
6
CONTINUOUS
10
2.7444
20
-6.71773
11
2.74065
21
-6.71398
0
LINE
8
BLACK
6
CONTINUOUS
10
2.74065
20
-6.71398
11
2.73316
21
-6.71023
0
LINE
8
BLACK
6
CONTINUOUS
10
2.73316
20
-6.71023
11
2.71816
21
-6.71023
0
LINE
8
BLACK
6
CONTINUOUS
10
2.71816
20
-6.71023
11
2.71066
21
-6.71398
0
LINE
8
BLACK
6
CONTINUOUS
10
2.71066
20
-6.71398
11
2.70691
21
-6.71773
0
LINE
8
BLACK
6
CONTINUOUS
10
2.70691
20
-6.71773
11
2.70316
21
-6.72522
0
LINE
8
BLACK
6
CONTINUOUS
10
2.70316
20
-6.72522
11
2.70316
21
-6.74397
0
LINE
8
BLACK
6
CONTINUOUS
10
2.70316
20
-6.74397
11
2.70691
21
-6.75147
0
LINE
8
BLACK
6
CONTINUOUS
10
2.70691
20
-6.75147
11
2.71066
21
-6.75522
0
LINE
8
BLACK
6
CONTINUOUS
10
2.71066
20
-6.75522
11
2.71816
21
-6.75897
0
LINE
8
BLACK
6
CONTINUOUS
10
2.71816
20
-6.75897
11
2.73316
21
-6.75897
0
LINE
8
BLACK
6
CONTINUOUS
10
2.73316
20
-6.75897
11
2.74065
21
-6.75522
0
LINE
8
BLACK
6
CONTINUOUS
10
2.74065
20
-6.75522
11
2.7444
21
-6.75147
0
LINE
8
BLACK
6
CONTINUOUS
10
2.7444
20
-6.75147
11
2.74815
21
-6.74397
0
LINE
8
BLACK
6
CONTINUOUS
10
2.81564
20
-6.73647
11
2.81564
21
-6.78897
0
LINE
8
BLACK
6
CONTINUOUS
10
2.7969
20
-6.70648
11
2.77815
21
-6.76272
0
LINE
8
BLACK
6
CONTINUOUS
10
2.77815
20
-6.76272
11
2.82689
21
-6.76272
0
LINE
8
BLACK
6
CONTINUOUS
10
2.85314
20
-6.71023
11
2.85314
21
-6.72522
0
LINE
8
BLACK
6
CONTINUOUS
10
2.88314
20
-6.71023
11
2.88314
21
-6.72522
0
LINE
8
BLACK
6
CONTINUOUS
10
2.99937
20
-6.81896
11
2.99562
21
-6.81521
0
LINE
8
BLACK
6
CONTINUOUS
10
2.99562
20
-6.81521
11
2.98812
21
-6.80397
0
LINE
8
BLACK
6
CONTINUOUS
10
2.98812
20
-6.80397
11
2.98437
21
-6.79647
0
LINE
8
BLACK
6
CONTINUOUS
10
2.98437
20
-6.79647
11
2.98062
21
-6.78522
0
LINE
8
BLACK
6
CONTINUOUS
10
2.98062
20
-6.78522
11
2.97687
21
-6.76647
0
LINE
8
BLACK
6
CONTINUOUS
10
2.97687
20
-6.76647
11
2.97687
21
-6.75147
0
LINE
8
BLACK
6
CONTINUOUS
10
2.97687
20
-6.75147
11
2.98062
21
-6.73272
0
LINE
8
BLACK
6
CONTINUOUS
10
2.98062
20
-6.73272
11
2.98437
21
-6.72148
0
LINE
8
BLACK
6
CONTINUOUS
10
2.98437
20
-6.72148
11
2.98812
21
-6.71398
0
LINE
8
BLACK
6
CONTINUOUS
10
2.98812
20
-6.71398
11
2.99562
21
-6.70273
0
LINE
8
BLACK
6
CONTINUOUS
10
2.99562
20
-6.70273
11
2.99937
21
-6.69898
0
LINE
8
BLACK
6
CONTINUOUS
10
3.04062
20
-6.74397
11
3.03312
21
-6.74022
0
LINE
8
BLACK
6
CONTINUOUS
10
3.03312
20
-6.74022
11
3.02937
21
-6.73647
0
LINE
8
BLACK
6
CONTINUOUS
10
3.02937
20
-6.73647
11
3.02562
21
-6.72897
0
LINE
8
BLACK
6
CONTINUOUS
10
3.02562
20
-6.72897
11
3.02562
21
-6.72522
0
LINE
8
BLACK
6
CONTINUOUS
10
3.02562
20
-6.72522
11
3.02937
21
-6.71773
0
LINE
8
BLACK
6
CONTINUOUS
10
3.02937
20
-6.71773
11
3.03312
21
-6.71398
0
LINE
8
BLACK
6
CONTINUOUS
10
3.03312
20
-6.71398
11
3.04062
21
-6.71023
0
LINE
8
BLACK
6
CONTINUOUS
10
3.04062
20
-6.71023
11
3.05561
21
-6.71023
0
LINE
8
BLACK
6
CONTINUOUS
10
3.05561
20
-6.71023
11
3.06311
21
-6.71398
0
LINE
8
BLACK
6
CONTINUOUS
10
3.06311
20
-6.71398
11
3.06686
21
-6.71773
0
LINE
8
BLACK
6
CONTINUOUS
10
3.06686
20
-6.71773
11
3.07061
21
-6.72522
0
LINE
8
BLACK
6
CONTINUOUS
10
3.07061
20
-6.72522
11
3.07061
21
-6.72897
0
LINE
8
BLACK
6
CONTINUOUS
10
3.07061
20
-6.72897
11
3.06686
21
-6.73647
0
LINE
8
BLACK
6
CONTINUOUS
10
3.06686
20
-6.73647
11
3.06311
21
-6.74022
0
LINE
8
BLACK
6
CONTINUOUS
10
3.06311
20
-6.74022
11
3.05561
21
-6.74397
0
LINE
8
BLACK
6
CONTINUOUS
10
3.05561
20
-6.74397
11
3.04062
21
-6.74397
0
LINE
8
BLACK
6
CONTINUOUS
10
3.04062
20
-6.74397
11
3.03312
21
-6.74772
0
LINE
8
BLACK
6
CONTINUOUS
10
3.03312
20
-6.74772
11
3.02937
21
-6.75147
0
LINE
8
BLACK
6
CONTINUOUS
10
3.02937
20
-6.75147
11
3.02562
21
-6.75897
0
LINE
8
BLACK
6
CONTINUOUS
10
3.02562
20
-6.75897
11
3.02562
21
-6.77397
0
LINE
8
BLACK
6
CONTINUOUS
10
3.02562
20
-6.77397
11
3.02937
21
-6.78147
0
LINE
8
BLACK
6
CONTINUOUS
10
3.02937
20
-6.78147
11
3.03312
21
-6.78522
0
LINE
8
BLACK
6
CONTINUOUS
10
3.03312
20
-6.78522
11
3.04062
21
-6.78897
0
LINE
8
BLACK
6
CONTINUOUS
10
3.04062
20
-6.78897
11
3.05561
21
-6.78897
0
LINE
8
BLACK
6
CONTINUOUS
10
3.05561
20
-6.78897
11
3.06311
21
-6.78522
0
LINE
8
BLACK
6
CONTINUOUS
10
3.06311
20
-6.78522
11
3.06686
21
-6.78147
0
LINE
8
BLACK
6
CONTINUOUS
10
3.06686
20
-6.78147
11
3.07061
21
-6.77397
0
LINE
8
BLACK
6
CONTINUOUS
10
3.07061
20
-6.77397
11
3.07061
21
-6.75897
0
LINE
8
BLACK
6
CONTINUOUS
10
3.07061
20
-6.75897
11
3.06686
21
-6.75147
0
LINE
8
BLACK
6
CONTINUOUS
10
3.06686
20
-6.75147
11
3.06311
21
-6.74772
0
LINE
8
BLACK
6
CONTINUOUS
10
3.06311
20
-6.74772
11
3.05561
21
-6.74397
0
LINE
8
BLACK
6
CONTINUOUS
10
3.16435
20
-6.78897
11
3.16435
21
-6.71023
0
LINE
8
BLACK
6
CONTINUOUS
10
3.1981
20
-6.78897
11
3.1981
21
-6.74772
0
LINE
8
BLACK
6
CONTINUOUS
10
3.1981
20
-6.74772
11
3.19435
21
-6.74022
0
LINE
8
BLACK
6
CONTINUOUS
10
3.19435
20
-6.74022
11
3.18685
21
-6.73647
0
LINE
8
BLACK
6
CONTINUOUS
10
3.18685
20
-6.73647
11
3.1756
21
-6.73647
0
LINE
8
BLACK
6
CONTINUOUS
10
3.1756
20
-6.73647
11
3.1681
21
-6.74022
0
LINE
8
BLACK
6
CONTINUOUS
10
3.1681
20
-6.74022
11
3.16435
21
-6.74397
0
LINE
8
BLACK
6
CONTINUOUS
10
3.24684
20
-6.78897
11
3.23934
21
-6.78522
0
LINE
8
BLACK
6
CONTINUOUS
10
3.23934
20
-6.78522
11
3.23559
21
-6.78147
0
LINE
8
BLACK
6
CONTINUOUS
10
3.23559
20
-6.78147
11
3.23184
21
-6.77397
0
LINE
8
BLACK
6
CONTINUOUS
10
3.23184
20
-6.77397
11
3.23184
21
-6.75147
0
LINE
8
BLACK
6
CONTINUOUS
10
3.23184
20
-6.75147
11
3.23559
21
-6.74397
0
LINE
8
BLACK
6
CONTINUOUS
10
3.23559
20
-6.74397
11
3.23934
21
-6.74022
0
LINE
8
BLACK
6
CONTINUOUS
10
3.23934
20
-6.74022
11
3.24684
21
-6.73647
0
LINE
8
BLACK
6
CONTINUOUS
10
3.24684
20
-6.73647
11
3.25809
21
-6.73647
0
LINE
8
BLACK
6
CONTINUOUS
10
3.25809
20
-6.73647
11
3.26559
21
-6.74022
0
LINE
8
BLACK
6
CONTINUOUS
10
3.26559
20
-6.74022
11
3.26934
21
-6.74397
0
LINE
8
BLACK
6
CONTINUOUS
10
3.26934
20
-6.74397
11
3.27309
21
-6.75147
0
LINE
8
BLACK
6
CONTINUOUS
10
3.27309
20
-6.75147
11
3.27309
21
-6.77397
0
LINE
8
BLACK
6
CONTINUOUS
10
3.27309
20
-6.77397
11
3.26934
21
-6.78147
0
LINE
8
BLACK
6
CONTINUOUS
10
3.26934
20
-6.78147
11
3.26559
21
-6.78522
0
LINE
8
BLACK
6
CONTINUOUS
10
3.26559
20
-6.78522
11
3.25809
21
-6.78897
0
LINE
8
BLACK
6
CONTINUOUS
10
3.25809
20
-6.78897
11
3.24684
21
-6.78897
0
LINE
8
BLACK
6
CONTINUOUS
10
3.31808
20
-6.78897
11
3.31058
21
-6.78522
0
LINE
8
BLACK
6
CONTINUOUS
10
3.31058
20
-6.78522
11
3.30683
21
-6.77772
0
LINE
8
BLACK
6
CONTINUOUS
10
3.30683
20
-6.77772
11
3.30683
21
-6.71023
0
LINE
8
BLACK
6
CONTINUOUS
10
3.37807
20
-6.78522
11
3.37058
21
-6.78897
0
LINE
8
BLACK
6
CONTINUOUS
10
3.37058
20
-6.78897
11
3.35558
21
-6.78897
0
LINE
8
BLACK
6
CONTINUOUS
10
3.35558
20
-6.78897
11
3.34808
21
-6.78522
0
LINE
8
BLACK
6
CONTINUOUS
10
3.34808
20
-6.78522
11
3.34433
21
-6.77772
0
LINE
8
BLACK
6
CONTINUOUS
10
3.34433
20
-6.77772
11
3.34433
21
-6.74772
0
LINE
8
BLACK
6
CONTINUOUS
10
3.34433
20
-6.74772
11
3.34808
21
-6.74022
0
LINE
8
BLACK
6
CONTINUOUS
10
3.34808
20
-6.74022
11
3.35558
21
-6.73647
0
LINE
8
BLACK
6
CONTINUOUS
10
3.35558
20
-6.73647
11
3.37058
21
-6.73647
0
LINE
8
BLACK
6
CONTINUOUS
10
3.37058
20
-6.73647
11
3.37807
21
-6.74022
0
LINE
8
BLACK
6
CONTINUOUS
10
3.37807
20
-6.74022
11
3.38182
21
-6.74772
0
LINE
8
BLACK
6
CONTINUOUS
10
3.38182
20
-6.74772
11
3.38182
21
-6.75522
0
LINE
8
BLACK
6
CONTINUOUS
10
3.38182
20
-6.75522
11
3.34433
21
-6.76272
0
LINE
8
BLACK
6
CONTINUOUS
10
3.41182
20
-6.78522
11
3.41932
21
-6.78897
0
LINE
8
BLACK
6
CONTINUOUS
10
3.41932
20
-6.78897
11
3.43432
21
-6.78897
0
LINE
8
BLACK
6
CONTINUOUS
10
3.43432
20
-6.78897
11
3.44182
21
-6.78522
0
LINE
8
BLACK
6
CONTINUOUS
10
3.44182
20
-6.78522
11
3.44557
21
-6.77772
0
LINE
8
BLACK
6
CONTINUOUS
10
3.44557
20
-6.77772
11
3.44557
21
-6.77397
0
LINE
8
BLACK
6
CONTINUOUS
10
3.44557
20
-6.77397
11
3.44182
21
-6.76647
0
LINE
8
BLACK
6
CONTINUOUS
10
3.44182
20
-6.76647
11
3.43432
21
-6.76272
0
LINE
8
BLACK
6
CONTINUOUS
10
3.43432
20
-6.76272
11
3.42307
21
-6.76272
0
LINE
8
BLACK
6
CONTINUOUS
10
3.42307
20
-6.76272
11
3.41557
21
-6.75897
0
LINE
8
BLACK
6
CONTINUOUS
10
3.41557
20
-6.75897
11
3.41182
21
-6.75147
0
LINE
8
BLACK
6
CONTINUOUS
10
3.41182
20
-6.75147
11
3.41182
21
-6.74772
0
LINE
8
BLACK
6
CONTINUOUS
10
3.41182
20
-6.74772
11
3.41557
21
-6.74022
0
LINE
8
BLACK
6
CONTINUOUS
10
3.41557
20
-6.74022
11
3.42307
21
-6.73647
0
LINE
8
BLACK
6
CONTINUOUS
10
3.42307
20
-6.73647
11
3.43432
21
-6.73647
0
LINE
8
BLACK
6
CONTINUOUS
10
3.43432
20
-6.73647
11
3.44182
21
-6.74022
0
LINE
8
BLACK
6
CONTINUOUS
10
3.47181
20
-6.81896
11
3.47556
21
-6.81521
0
LINE
8
BLACK
6
CONTINUOUS
10
3.47556
20
-6.81521
11
3.48306
21
-6.80397
0
LINE
8
BLACK
6
CONTINUOUS
10
3.48306
20
-6.80397
11
3.48681
21
-6.79647
0
LINE
8
BLACK
6
CONTINUOUS
10
3.48681
20
-6.79647
11
3.49056
21
-6.78522
0
LINE
8
BLACK
6
CONTINUOUS
10
3.49056
20
-6.78522
11
3.49431
21
-6.76647
0
LINE
8
BLACK
6
CONTINUOUS
10
3.49431
20
-6.76647
11
3.49431
21
-6.75147
0
LINE
8
BLACK
6
CONTINUOUS
10
3.49431
20
-6.75147
11
3.49056
21
-6.73272
0
LINE
8
BLACK
6
CONTINUOUS
10
3.49056
20
-6.73272
11
3.48681
21
-6.72148
0
LINE
8
BLACK
6
CONTINUOUS
10
3.48681
20
-6.72148
11
3.48306
21
-6.71398
0
LINE
8
BLACK
6
CONTINUOUS
10
3.48306
20
-6.71398
11
3.47556
21
-6.70273
0
LINE
8
BLACK
6
CONTINUOUS
10
3.47556
20
-6.70273
11
3.47181
21
-6.69898
0
LINE
8
BLACK
6
CONTINUOUS
10
1.56949
20
-6.88091
11
1.59311
21
-6.85728
0
LINE
8
BLACK
6
CONTINUOUS
10
1.59311
20
-6.85728
11
1.56949
21
-6.83366
0
LINE
8
BLACK
6
CONTINUOUS
10
1.56949
20
-6.83366
11
1.54587
21
-6.85728
0
LINE
8
BLACK
6
CONTINUOUS
10
1.54587
20
-6.85728
11
1.56949
21
-6.88091
0
LINE
8
BLACK
6
CONTINUOUS
10
1.73578
20
-6.8929
11
1.69079
21
-6.8929
0
LINE
8
BLACK
6
CONTINUOUS
10
1.71328
20
-6.8929
11
1.71328
21
-6.81416
0
LINE
8
BLACK
6
CONTINUOUS
10
1.71328
20
-6.81416
11
1.70578
21
-6.82541
0
LINE
8
BLACK
6
CONTINUOUS
10
1.70578
20
-6.82541
11
1.69828
21
-6.83291
0
LINE
8
BLACK
6
CONTINUOUS
10
1.69828
20
-6.83291
11
1.69079
21
-6.83666
0
LINE
8
BLACK
6
CONTINUOUS
10
1.76953
20
-6.8854
11
1.77328
21
-6.88915
0
LINE
8
BLACK
6
CONTINUOUS
10
1.77328
20
-6.88915
11
1.76953
21
-6.8929
0
LINE
8
BLACK
6
CONTINUOUS
10
1.76953
20
-6.8929
11
1.76578
21
-6.88915
0
LINE
8
BLACK
6
CONTINUOUS
10
1.76578
20
-6.88915
11
1.76953
21
-6.8854
0
LINE
8
BLACK
6
CONTINUOUS
10
1.76953
20
-6.8854
11
1.76953
21
-6.8929
0
LINE
8
BLACK
6
CONTINUOUS
10
1.80327
20
-6.82166
11
1.80702
21
-6.81791
0
LINE
8
BLACK
6
CONTINUOUS
10
1.80702
20
-6.81791
11
1.81452
21
-6.81416
0
LINE
8
BLACK
6
CONTINUOUS
10
1.81452
20
-6.81416
11
1.83327
21
-6.81416
0
LINE
8
BLACK
6
CONTINUOUS
10
1.83327
20
-6.81416
11
1.84077
21
-6.81791
0
LINE
8
BLACK
6
CONTINUOUS
10
1.84077
20
-6.81791
11
1.84452
21
-6.82166
0
LINE
8
BLACK
6
CONTINUOUS
10
1.84452
20
-6.82166
11
1.84827
21
-6.82916
0
LINE
8
BLACK
6
CONTINUOUS
10
1.84827
20
-6.82916
11
1.84827
21
-6.83666
0
LINE
8
BLACK
6
CONTINUOUS
10
1.84827
20
-6.83666
11
1.84452
21
-6.84791
0
LINE
8
BLACK
6
CONTINUOUS
10
1.84452
20
-6.84791
11
1.79952
21
-6.8929
0
LINE
8
BLACK
6
CONTINUOUS
10
1.79952
20
-6.8929
11
1.84827
21
-6.8929
0
LINE
8
BLACK
6
CONTINUOUS
10
1.89701
20
-6.81416
11
1.90451
21
-6.81416
0
LINE
8
BLACK
6
CONTINUOUS
10
1.90451
20
-6.81416
11
1.91201
21
-6.81791
0
LINE
8
BLACK
6
CONTINUOUS
10
1.91201
20
-6.81791
11
1.91576
21
-6.82166
0
LINE
8
BLACK
6
CONTINUOUS
10
1.91576
20
-6.82166
11
1.91951
21
-6.82916
0
LINE
8
BLACK
6
CONTINUOUS
10
1.91951
20
-6.82916
11
1.92326
21
-6.84416
0
LINE
8
BLACK
6
CONTINUOUS
10
1.92326
20
-6.84416
11
1.92326
21
-6.86291
0
LINE
8
BLACK
6
CONTINUOUS
10
1.92326
20
-6.86291
11
1.91951
21
-6.87791
0
LINE
8
BLACK
6
CONTINUOUS
10
1.91951
20
-6.87791
11
1.91576
21
-6.8854
0
LINE
8
BLACK
6
CONTINUOUS
10
1.91576
20
-6.8854
11
1.91201
21
-6.88915
0
LINE
8
BLACK
6
CONTINUOUS
10
1.91201
20
-6.88915
11
1.90451
21
-6.8929
0
LINE
8
BLACK
6
CONTINUOUS
10
1.90451
20
-6.8929
11
1.89701
21
-6.8929
0
LINE
8
BLACK
6
CONTINUOUS
10
1.89701
20
-6.8929
11
1.88951
21
-6.88915
0
LINE
8
BLACK
6
CONTINUOUS
10
1.88951
20
-6.88915
11
1.88576
21
-6.8854
0
LINE
8
BLACK
6
CONTINUOUS
10
1.88576
20
-6.8854
11
1.88201
21
-6.87791
0
LINE
8
BLACK
6
CONTINUOUS
10
1.88201
20
-6.87791
11
1.87826
21
-6.86291
0
LINE
8
BLACK
6
CONTINUOUS
10
1.87826
20
-6.86291
11
1.87826
21
-6.84416
0
LINE
8
BLACK
6
CONTINUOUS
10
1.87826
20
-6.84416
11
1.88201
21
-6.82916
0
LINE
8
BLACK
6
CONTINUOUS
10
1.88201
20
-6.82916
11
1.88576
21
-6.82166
0
LINE
8
BLACK
6
CONTINUOUS
10
1.88576
20
-6.82166
11
1.88951
21
-6.81791
0
LINE
8
BLACK
6
CONTINUOUS
10
1.88951
20
-6.81791
11
1.89701
21
-6.81416
0
LINE
8
BLACK
6
CONTINUOUS
10
1.972
20
-6.81416
11
1.9795
21
-6.81416
0
LINE
8
BLACK
6
CONTINUOUS
10
1.9795
20
-6.81416
11
1.987
21
-6.81791
0
LINE
8
BLACK
6
CONTINUOUS
10
1.987
20
-6.81791
11
1.99075
21
-6.82166
0
LINE
8
BLACK
6
CONTINUOUS
10
1.99075
20
-6.82166
11
1.9945
21
-6.82916
0
LINE
8
BLACK
6
CONTINUOUS
10
1.9945
20
-6.82916
11
1.99825
21
-6.84416
0
LINE
8
BLACK
6
CONTINUOUS
10
1.99825
20
-6.84416
11
1.99825
21
-6.86291
0
LINE
8
BLACK
6
CONTINUOUS
10
1.99825
20
-6.86291
11
1.9945
21
-6.87791
0
LINE
8
BLACK
6
CONTINUOUS
10
1.9945
20
-6.87791
11
1.99075
21
-6.8854
0
LINE
8
BLACK
6
CONTINUOUS
10
1.99075
20
-6.8854
11
1.987
21
-6.88915
0
LINE
8
BLACK
6
CONTINUOUS
10
1.987
20
-6.88915
11
1.9795
21
-6.8929
0
LINE
8
BLACK
6
CONTINUOUS
10
1.9795
20
-6.8929
11
1.972
21
-6.8929
0
LINE
8
BLACK
6
CONTINUOUS
10
1.972
20
-6.8929
11
1.9645
21
-6.88915
0
LINE
8
BLACK
6
CONTINUOUS
10
1.9645
20
-6.88915
11
1.96075
21
-6.8854
0
LINE
8
BLACK
6
CONTINUOUS
10
1.96075
20
-6.8854
11
1.957
21
-6.87791
0
LINE
8
BLACK
6
CONTINUOUS
10
1.957
20
-6.87791
11
1.95325
21
-6.86291
0
LINE
8
BLACK
6
CONTINUOUS
10
1.95325
20
-6.86291
11
1.95325
21
-6.84416
0
LINE
8
BLACK
6
CONTINUOUS
10
1.95325
20
-6.84416
11
1.957
21
-6.82916
0
LINE
8
BLACK
6
CONTINUOUS
10
1.957
20
-6.82916
11
1.96075
21
-6.82166
0
LINE
8
BLACK
6
CONTINUOUS
10
1.96075
20
-6.82166
11
1.9645
21
-6.81791
0
LINE
8
BLACK
6
CONTINUOUS
10
1.9645
20
-6.81791
11
1.972
21
-6.81416
0
LINE
8
BLACK
6
CONTINUOUS
10
2.03199
20
-6.8929
11
2.03199
21
-6.84041
0
LINE
8
BLACK
6
CONTINUOUS
10
2.03199
20
-6.84791
11
2.03574
21
-6.84416
0
LINE
8
BLACK
6
CONTINUOUS
10
2.03574
20
-6.84416
11
2.04324
21
-6.84041
0
LINE
8
BLACK
6
CONTINUOUS
10
2.04324
20
-6.84041
11
2.05449
21
-6.84041
0
LINE
8
BLACK
6
CONTINUOUS
10
2.05449
20
-6.84041
11
2.06199
21
-6.84416
0
LINE
8
BLACK
6
CONTINUOUS
10
2.06199
20
-6.84416
11
2.06574
21
-6.85166
0
LINE
8
BLACK
6
CONTINUOUS
10
2.06574
20
-6.85166
11
2.06574
21
-6.8929
0
LINE
8
BLACK
6
CONTINUOUS
10
2.06574
20
-6.85166
11
2.06949
21
-6.84416
0
LINE
8
BLACK
6
CONTINUOUS
10
2.06949
20
-6.84416
11
2.07699
21
-6.84041
0
LINE
8
BLACK
6
CONTINUOUS
10
2.07699
20
-6.84041
11
2.08824
21
-6.84041
0
LINE
8
BLACK
6
CONTINUOUS
10
2.08824
20
-6.84041
11
2.09573
21
-6.84416
0
LINE
8
BLACK
6
CONTINUOUS
10
2.09573
20
-6.84416
11
2.09948
21
-6.85166
0
LINE
8
BLACK
6
CONTINUOUS
10
2.09948
20
-6.85166
11
2.09948
21
-6.8929
0
LINE
8
BLACK
6
CONTINUOUS
10
2.13698
20
-6.8929
11
2.13698
21
-6.84041
0
LINE
8
BLACK
6
CONTINUOUS
10
2.13698
20
-6.84791
11
2.14073
21
-6.84416
0
LINE
8
BLACK
6
CONTINUOUS
10
2.14073
20
-6.84416
11
2.14823
21
-6.84041
0
LINE
8
BLACK
6
CONTINUOUS
10
2.14823
20
-6.84041
11
2.15948
21
-6.84041
0
LINE
8
BLACK
6
CONTINUOUS
10
2.15948
20
-6.84041
11
2.16698
21
-6.84416
0
LINE
8
BLACK
6
CONTINUOUS
10
2.16698
20
-6.84416
11
2.17073
21
-6.85166
0
LINE
8
BLACK
6
CONTINUOUS
10
2.17073
20
-6.85166
11
2.17073
21
-6.8929
0
LINE
8
BLACK
6
CONTINUOUS
10
2.17073
20
-6.85166
11
2.17448
21
-6.84416
0
LINE
8
BLACK
6
CONTINUOUS
10
2.17448
20
-6.84416
11
2.18197
21
-6.84041
0
LINE
8
BLACK
6
CONTINUOUS
10
2.18197
20
-6.84041
11
2.19322
21
-6.84041
0
LINE
8
BLACK
6
CONTINUOUS
10
2.19322
20
-6.84041
11
2.20072
21
-6.84416
0
LINE
8
BLACK
6
CONTINUOUS
10
2.20072
20
-6.84416
11
2.20447
21
-6.85166
0
LINE
8
BLACK
6
CONTINUOUS
10
2.20447
20
-6.85166
11
2.20447
21
-6.8929
0
LINE
8
BLACK
6
CONTINUOUS
10
2.3582
20
-6.81041
11
2.29071
21
-6.91165
0
LINE
8
BLACK
6
CONTINUOUS
10
2.45944
20
-6.81416
11
2.46694
21
-6.81416
0
LINE
8
BLACK
6
CONTINUOUS
10
2.46694
20
-6.81416
11
2.47444
21
-6.81791
0
LINE
8
BLACK
6
CONTINUOUS
10
2.47444
20
-6.81791
11
2.47819
21
-6.82166
0
LINE
8
BLACK
6
CONTINUOUS
10
2.47819
20
-6.82166
11
2.48194
21
-6.82916
0
LINE
8
BLACK
6
CONTINUOUS
10
2.48194
20
-6.82916
11
2.48569
21
-6.84416
0
LINE
8
BLACK
6
CONTINUOUS
10
2.48569
20
-6.84416
11
2.48569
21
-6.86291
0
LINE
8
BLACK
6
CONTINUOUS
10
2.48569
20
-6.86291
11
2.48194
21
-6.87791
0
LINE
8
BLACK
6
CONTINUOUS
10
2.48194
20
-6.87791
11
2.47819
21
-6.8854
0
LINE
8
BLACK
6
CONTINUOUS
10
2.47819
20
-6.8854
11
2.47444
21
-6.88915
0
LINE
8
BLACK
6
CONTINUOUS
10
2.47444
20
-6.88915
11
2.46694
21
-6.8929
0
LINE
8
BLACK
6
CONTINUOUS
10
2.46694
20
-6.8929
11
2.45944
21
-6.8929
0
LINE
8
BLACK
6
CONTINUOUS
10
2.45944
20
-6.8929
11
2.45194
21
-6.88915
0
LINE
8
BLACK
6
CONTINUOUS
10
2.45194
20
-6.88915
11
2.44819
21
-6.8854
0
LINE
8
BLACK
6
CONTINUOUS
10
2.44819
20
-6.8854
11
2.44444
21
-6.87791
0
LINE
8
BLACK
6
CONTINUOUS
10
2.44444
20
-6.87791
11
2.44069
21
-6.86291
0
LINE
8
BLACK
6
CONTINUOUS
10
2.44069
20
-6.86291
11
2.44069
21
-6.84416
0
LINE
8
BLACK
6
CONTINUOUS
10
2.44069
20
-6.84416
11
2.44444
21
-6.82916
0
LINE
8
BLACK
6
CONTINUOUS
10
2.44444
20
-6.82916
11
2.44819
21
-6.82166
0
LINE
8
BLACK
6
CONTINUOUS
10
2.44819
20
-6.82166
11
2.45194
21
-6.81791
0
LINE
8
BLACK
6
CONTINUOUS
10
2.45194
20
-6.81791
11
2.45944
21
-6.81416
0
LINE
8
BLACK
6
CONTINUOUS
10
2.51943
20
-6.8854
11
2.52318
21
-6.88915
0
LINE
8
BLACK
6
CONTINUOUS
10
2.52318
20
-6.88915
11
2.51943
21
-6.8929
0
LINE
8
BLACK
6
CONTINUOUS
10
2.51943
20
-6.8929
11
2.51568
21
-6.88915
0
LINE
8
BLACK
6
CONTINUOUS
10
2.51568
20
-6.88915
11
2.51943
21
-6.8854
0
LINE
8
BLACK
6
CONTINUOUS
10
2.51943
20
-6.8854
11
2.51943
21
-6.8929
0
LINE
8
BLACK
6
CONTINUOUS
10
2.57193
20
-6.81416
11
2.57942
21
-6.81416
0
LINE
8
BLACK
6
CONTINUOUS
10
2.57942
20
-6.81416
11
2.58692
21
-6.81791
0
LINE
8
BLACK
6
CONTINUOUS
10
2.58692
20
-6.81791
11
2.59067
21
-6.82166
0
LINE
8
BLACK
6
CONTINUOUS
10
2.59067
20
-6.82166
11
2.59442
21
-6.82916
0
LINE
8
BLACK
6
CONTINUOUS
10
2.59442
20
-6.82916
11
2.59817
21
-6.84416
0
LINE
8
BLACK
6
CONTINUOUS
10
2.59817
20
-6.84416
11
2.59817
21
-6.86291
0
LINE
8
BLACK
6
CONTINUOUS
10
2.59817
20
-6.86291
11
2.59442
21
-6.87791
0
LINE
8
BLACK
6
CONTINUOUS
10
2.59442
20
-6.87791
11
2.59067
21
-6.8854
0
LINE
8
BLACK
6
CONTINUOUS
10
2.59067
20
-6.8854
11
2.58692
21
-6.88915
0
LINE
8
BLACK
6
CONTINUOUS
10
2.58692
20
-6.88915
11
2.57942
21
-6.8929
0
LINE
8
BLACK
6
CONTINUOUS
10
2.57942
20
-6.8929
11
2.57193
21
-6.8929
0
LINE
8
BLACK
6
CONTINUOUS
10
2.57193
20
-6.8929
11
2.56443
21
-6.88915
0
LINE
8
BLACK
6
CONTINUOUS
10
2.56443
20
-6.88915
11
2.56068
21
-6.8854
0
LINE
8
BLACK
6
CONTINUOUS
10
2.56068
20
-6.8854
11
2.55693
21
-6.87791
0
LINE
8
BLACK
6
CONTINUOUS
10
2.55693
20
-6.87791
11
2.55318
21
-6.86291
0
LINE
8
BLACK
6
CONTINUOUS
10
2.55318
20
-6.86291
11
2.55318
21
-6.84416
0
LINE
8
BLACK
6
CONTINUOUS
10
2.55318
20
-6.84416
11
2.55693
21
-6.82916
0
LINE
8
BLACK
6
CONTINUOUS
10
2.55693
20
-6.82916
11
2.56068
21
-6.82166
0
LINE
8
BLACK
6
CONTINUOUS
10
2.56068
20
-6.82166
11
2.56443
21
-6.81791
0
LINE
8
BLACK
6
CONTINUOUS
10
2.56443
20
-6.81791
11
2.57193
21
-6.81416
0
LINE
8
BLACK
6
CONTINUOUS
10
2.66566
20
-6.84041
11
2.66566
21
-6.8929
0
LINE
8
BLACK
6
CONTINUOUS
10
2.64692
20
-6.81041
11
2.62817
21
-6.86666
0
LINE
8
BLACK
6
CONTINUOUS
10
2.62817
20
-6.86666
11
2.67691
21
-6.86666
0
LINE
8
BLACK
6
CONTINUOUS
10
2.69941
20
-6.81416
11
2.7519
21
-6.81416
0
LINE
8
BLACK
6
CONTINUOUS
10
2.7519
20
-6.81416
11
2.71816
21
-6.8929
0
LINE
8
BLACK
6
CONTINUOUS
10
2.77815
20
-6.82166
11
2.7819
21
-6.81791
0
LINE
8
BLACK
6
CONTINUOUS
10
2.7819
20
-6.81791
11
2.7894
21
-6.81416
0
LINE
8
BLACK
6
CONTINUOUS
10
2.7894
20
-6.81416
11
2.80815
21
-6.81416
0
LINE
8
BLACK
6
CONTINUOUS
10
2.80815
20
-6.81416
11
2.81564
21
-6.81791
0
LINE
8
BLACK
6
CONTINUOUS
10
2.81564
20
-6.81791
11
2.81939
21
-6.82166
0
LINE
8
BLACK
6
CONTINUOUS
10
2.81939
20
-6.82166
11
2.82314
21
-6.82916
0
LINE
8
BLACK
6
CONTINUOUS
10
2.82314
20
-6.82916
11
2.82314
21
-6.83666
0
LINE
8
BLACK
6
CONTINUOUS
10
2.82314
20
-6.83666
11
2.81939
21
-6.84791
0
LINE
8
BLACK
6
CONTINUOUS
10
2.81939
20
-6.84791
11
2.7744
21
-6.8929
0
LINE
8
BLACK
6
CONTINUOUS
10
2.7744
20
-6.8929
11
2.82314
21
-6.8929
0
LINE
8
BLACK
6
CONTINUOUS
10
2.85314
20
-6.81416
11
2.85314
21
-6.82916
0
LINE
8
BLACK
6
CONTINUOUS
10
2.88314
20
-6.81416
11
2.88314
21
-6.82916
0
LINE
8
BLACK
6
CONTINUOUS
10
2.99937
20
-6.9229
11
2.99562
21
-6.91915
0
LINE
8
BLACK
6
CONTINUOUS
10
2.99562
20
-6.91915
11
2.98812
21
-6.9079
0
LINE
8
BLACK
6
CONTINUOUS
10
2.98812
20
-6.9079
11
2.98437
21
-6.9004
0
LINE
8
BLACK
6
CONTINUOUS
10
2.98437
20
-6.9004
11
2.98062
21
-6.88915
0
LINE
8
BLACK
6
CONTINUOUS
10
2.98062
20
-6.88915
11
2.97687
21
-6.87041
0
LINE
8
BLACK
6
CONTINUOUS
10
2.97687
20
-6.87041
11
2.97687
21
-6.85541
0
LINE
8
BLACK
6
CONTINUOUS
10
2.97687
20
-6.85541
11
2.98062
21
-6.83666
0
LINE
8
BLACK
6
CONTINUOUS
10
2.98062
20
-6.83666
11
2.98437
21
-6.82541
0
LINE
8
BLACK
6
CONTINUOUS
10
2.98437
20
-6.82541
11
2.98812
21
-6.81791
0
LINE
8
BLACK
6
CONTINUOUS
10
2.98812
20
-6.81791
11
2.99562
21
-6.80666
0
LINE
8
BLACK
6
CONTINUOUS
10
2.99562
20
-6.80666
11
2.99937
21
-6.80292
0
LINE
8
BLACK
6
CONTINUOUS
10
3.06311
20
-6.81416
11
3.04812
21
-6.81416
0
LINE
8
BLACK
6
CONTINUOUS
10
3.04812
20
-6.81416
11
3.04062
21
-6.81791
0
LINE
8
BLACK
6
CONTINUOUS
10
3.04062
20
-6.81791
11
3.03687
21
-6.82166
0
LINE
8
BLACK
6
CONTINUOUS
10
3.03687
20
-6.82166
11
3.02937
21
-6.83291
0
LINE
8
BLACK
6
CONTINUOUS
10
3.02937
20
-6.83291
11
3.02562
21
-6.84791
0
LINE
8
BLACK
6
CONTINUOUS
10
3.02562
20
-6.84791
11
3.02562
21
-6.87791
0
LINE
8
BLACK
6
CONTINUOUS
10
3.02562
20
-6.87791
11
3.02937
21
-6.8854
0
LINE
8
BLACK
6
CONTINUOUS
10
3.02937
20
-6.8854
11
3.03312
21
-6.88915
0
LINE
8
BLACK
6
CONTINUOUS
10
3.03312
20
-6.88915
11
3.04062
21
-6.8929
0
LINE
8
BLACK
6
CONTINUOUS
10
3.04062
20
-6.8929
11
3.05561
21
-6.8929
0
LINE
8
BLACK
6
CONTINUOUS
10
3.05561
20
-6.8929
11
3.06311
21
-6.88915
0
LINE
8
BLACK
6
CONTINUOUS
10
3.06311
20
-6.88915
11
3.06686
21
-6.8854
0
LINE
8
BLACK
6
CONTINUOUS
10
3.06686
20
-6.8854
11
3.07061
21
-6.87791
0
LINE
8
BLACK
6
CONTINUOUS
10
3.07061
20
-6.87791
11
3.07061
21
-6.85916
0
LINE
8
BLACK
6
CONTINUOUS
10
3.07061
20
-6.85916
11
3.06686
21
-6.85166
0
LINE
8
BLACK
6
CONTINUOUS
10
3.06686
20
-6.85166
11
3.06311
21
-6.84791
0
LINE
8
BLACK
6
CONTINUOUS
10
3.06311
20
-6.84791
11
3.05561
21
-6.84416
0
LINE
8
BLACK
6
CONTINUOUS
10
3.05561
20
-6.84416
11
3.04062
21
-6.84416
0
LINE
8
BLACK
6
CONTINUOUS
10
3.04062
20
-6.84416
11
3.03312
21
-6.84791
0
LINE
8
BLACK
6
CONTINUOUS
10
3.03312
20
-6.84791
11
3.02937
21
-6.85166
0
LINE
8
BLACK
6
CONTINUOUS
10
3.02937
20
-6.85166
11
3.02562
21
-6.85916
0
LINE
8
BLACK
6
CONTINUOUS
10
3.16435
20
-6.8929
11
3.16435
21
-6.81416
0
LINE
8
BLACK
6
CONTINUOUS
10
3.1981
20
-6.8929
11
3.1981
21
-6.85166
0
LINE
8
BLACK
6
CONTINUOUS
10
3.1981
20
-6.85166
11
3.19435
21
-6.84416
0
LINE
8
BLACK
6
CONTINUOUS
10
3.19435
20
-6.84416
11
3.18685
21
-6.84041
0
LINE
8
BLACK
6
CONTINUOUS
10
3.18685
20
-6.84041
11
3.1756
21
-6.84041
0
LINE
8
BLACK
6
CONTINUOUS
10
3.1756
20
-6.84041
11
3.1681
21
-6.84416
0
LINE
8
BLACK
6
CONTINUOUS
10
3.1681
20
-6.84416
11
3.16435
21
-6.84791
0
LINE
8
BLACK
6
CONTINUOUS
10
3.24684
20
-6.8929
11
3.23934
21
-6.88915
0
LINE
8
BLACK
6
CONTINUOUS
10
3.23934
20
-6.88915
11
3.23559
21
-6.8854
0
LINE
8
BLACK
6
CONTINUOUS
10
3.23559
20
-6.8854
11
3.23184
21
-6.87791
0
LINE
8
BLACK
6
CONTINUOUS
10
3.23184
20
-6.87791
11
3.23184
21
-6.85541
0
LINE
8
BLACK
6
CONTINUOUS
10
3.23184
20
-6.85541
11
3.23559
21
-6.84791
0
LINE
8
BLACK
6
CONTINUOUS
10
3.23559
20
-6.84791
11
3.23934
21
-6.84416
0
LINE
8
BLACK
6
CONTINUOUS
10
3.23934
20
-6.84416
11
3.24684
21
-6.84041
0
LINE
8
BLACK
6
CONTINUOUS
10
3.24684
20
-6.84041
11
3.25809
21
-6.84041
0
LINE
8
BLACK
6
CONTINUOUS
10
3.25809
20
-6.84041
11
3.26559
21
-6.84416
0
LINE
8
BLACK
6
CONTINUOUS
10
3.26559
20
-6.84416
11
3.26934
21
-6.84791
0
LINE
8
BLACK
6
CONTINUOUS
10
3.26934
20
-6.84791
11
3.27309
21
-6.85541
0
LINE
8
BLACK
6
CONTINUOUS
10
3.27309
20
-6.85541
11
3.27309
21
-6.87791
0
LINE
8
BLACK
6
CONTINUOUS
10
3.27309
20
-6.87791
11
3.26934
21
-6.8854
0
LINE
8
BLACK
6
CONTINUOUS
10
3.26934
20
-6.8854
11
3.26559
21
-6.88915
0
LINE
8
BLACK
6
CONTINUOUS
10
3.26559
20
-6.88915
11
3.25809
21
-6.8929
0
LINE
8
BLACK
6
CONTINUOUS
10
3.25809
20
-6.8929
11
3.24684
21
-6.8929
0
LINE
8
BLACK
6
CONTINUOUS
10
3.31808
20
-6.8929
11
3.31058
21
-6.88915
0
LINE
8
BLACK
6
CONTINUOUS
10
3.31058
20
-6.88915
11
3.30683
21
-6.88166
0
LINE
8
BLACK
6
CONTINUOUS
10
3.30683
20
-6.88166
11
3.30683
21
-6.81416
0
LINE
8
BLACK
6
CONTINUOUS
10
3.37807
20
-6.88915
11
3.37058
21
-6.8929
0
LINE
8
BLACK
6
CONTINUOUS
10
3.37058
20
-6.8929
11
3.35558
21
-6.8929
0
LINE
8
BLACK
6
CONTINUOUS
10
3.35558
20
-6.8929
11
3.34808
21
-6.88915
0
LINE
8
BLACK
6
CONTINUOUS
10
3.34808
20
-6.88915
11
3.34433
21
-6.88166
0
LINE
8
BLACK
6
CONTINUOUS
10
3.34433
20
-6.88166
11
3.34433
21
-6.85166
0
LINE
8
BLACK
6
CONTINUOUS
10
3.34433
20
-6.85166
11
3.34808
21
-6.84416
0
LINE
8
BLACK
6
CONTINUOUS
10
3.34808
20
-6.84416
11
3.35558
21
-6.84041
0
LINE
8
BLACK
6
CONTINUOUS
10
3.35558
20
-6.84041
11
3.37058
21
-6.84041
0
LINE
8
BLACK
6
CONTINUOUS
10
3.37058
20
-6.84041
11
3.37807
21
-6.84416
0
LINE
8
BLACK
6
CONTINUOUS
10
3.37807
20
-6.84416
11
3.38182
21
-6.85166
0
LINE
8
BLACK
6
CONTINUOUS
10
3.38182
20
-6.85166
11
3.38182
21
-6.85916
0
LINE
8
BLACK
6
CONTINUOUS
10
3.38182
20
-6.85916
11
3.34433
21
-6.86666
0
LINE
8
BLACK
6
CONTINUOUS
10
3.41182
20
-6.88915
11
3.41932
21
-6.8929
0
LINE
8
BLACK
6
CONTINUOUS
10
3.41932
20
-6.8929
11
3.43432
21
-6.8929
0
LINE
8
BLACK
6
CONTINUOUS
10
3.43432
20
-6.8929
11
3.44182
21
-6.88915
0
LINE
8
BLACK
6
CONTINUOUS
10
3.44182
20
-6.88915
11
3.44557
21
-6.88166
0
LINE
8
BLACK
6
CONTINUOUS
10
3.44557
20
-6.88166
11
3.44557
21
-6.87791
0
LINE
8
BLACK
6
CONTINUOUS
10
3.44557
20
-6.87791
11
3.44182
21
-6.87041
0
LINE
8
BLACK
6
CONTINUOUS
10
3.44182
20
-6.87041
11
3.43432
21
-6.86666
0
LINE
8
BLACK
6
CONTINUOUS
10
3.43432
20
-6.86666
11
3.42307
21
-6.86666
0
LINE
8
BLACK
6
CONTINUOUS
10
3.42307
20
-6.86666
11
3.41557
21
-6.86291
0
LINE
8
BLACK
6
CONTINUOUS
10
3.41557
20
-6.86291
11
3.41182
21
-6.85541
0
LINE
8
BLACK
6
CONTINUOUS
10
3.41182
20
-6.85541
11
3.41182
21
-6.85166
0
LINE
8
BLACK
6
CONTINUOUS
10
3.41182
20
-6.85166
11
3.41557
21
-6.84416
0
LINE
8
BLACK
6
CONTINUOUS
10
3.41557
20
-6.84416
11
3.42307
21
-6.84041
0
LINE
8
BLACK
6
CONTINUOUS
10
3.42307
20
-6.84041
11
3.43432
21
-6.84041
0
LINE
8
BLACK
6
CONTINUOUS
10
3.43432
20
-6.84041
11
3.44182
21
-6.84416
0
LINE
8
BLACK
6
CONTINUOUS
10
3.47181
20
-6.9229
11
3.47556
21
-6.91915
0
LINE
8
BLACK
6
CONTINUOUS
10
3.47556
20
-6.91915
11
3.48306
21
-6.9079
0
LINE
8
BLACK
6
CONTINUOUS
10
3.48306
20
-6.9079
11
3.48681
21
-6.9004
0
LINE
8
BLACK
6
CONTINUOUS
10
3.48681
20
-6.9004
11
3.49056
21
-6.88915
0
LINE
8
BLACK
6
CONTINUOUS
10
3.49056
20
-6.88915
11
3.49431
21
-6.87041
0
LINE
8
BLACK
6
CONTINUOUS
10
3.49431
20
-6.87041
11
3.49431
21
-6.85541
0
LINE
8
BLACK
6
CONTINUOUS
10
3.49431
20
-6.85541
11
3.49056
21
-6.83666
0
LINE
8
BLACK
6
CONTINUOUS
10
3.49056
20
-6.83666
11
3.48681
21
-6.82541
0
LINE
8
BLACK
6
CONTINUOUS
10
3.48681
20
-6.82541
11
3.48306
21
-6.81791
0
LINE
8
BLACK
6
CONTINUOUS
10
3.48306
20
-6.81791
11
3.47556
21
-6.80666
0
LINE
8
BLACK
6
CONTINUOUS
10
3.47556
20
-6.80666
11
3.47181
21
-6.80292
  0
ENDSEC
  0
EOF
