  0
SECTION
  2
HEADER
  9
$ANGBASE
  50
0.0
  9
$ANGDIR
  70
1
  9
$MEASUREMENT
  70
0
  0
ENDSEC
  0
SECTION
  2
TABLES
  0
TABLE
  2
LTYPE
  70
4
  0
LTYPE
  5
40F
  2
CONTINUOUS
  70
0
  3
Solid line
  72
65
  73
0
  40
0.0
  0
LTYPE
  5
410
  2
DASHDOT
 70
0
  3
Dash Dot ____ _ ____ _
 72
65
 73
4
 40
2.0
 49
1.25
 49
-0.25
 49
0.25
 49
-0.25
  0
LTYPE
  5
411
  2
DASHED
 70
0
  3
Dashed __ __ __ __ __
 72
65
 73
2
 40
0.75
 49
0.5
 49
-0.25
  0
LTYPE
  5
43B
  2
DOTTED
 70
0
  3
Dotted .  .  .  .
 72
65
 73
2
 40
0.2
 49
0.0
 49
-0.2
  0
ENDTAB
  0
TABLE
  2
STYLE
  70
4
  0
STYLE
  2
KICAD
  70
0
  40
0
  41
1
  42
1
  50
0
  71
0
  3
isocp.shx
  0
STYLE
  2
KICADB
  70
0
  40
0
  41
1
  42
1
  50
0
  71
0
  3
isocp.shx
  0
STYLE
  2
KICADI
  70
0
  40
0
  41
1
  42
1
  50
15
  71
0
  3
isocp.shx
  0
STYLE
  2
KICADBI
  70
0
  40
0
  41
1
  42
1
  50
15
  71
0
  3
isocp.shx
  0
ENDTAB
  0
TABLE
  2
LAYER
  70
1
  0
LAYER
  2
BLACK
  70
0
  62
7
  6
CONTINUOUS
  0
ENDTAB
  0
ENDSEC
  0
SECTION
  2
ENTITIES
0
LINE
8
BLACK
6
CONTINUOUS
10
1.59369
20
-6.18899
11
1.59311
21
-6.1876
0
LINE
8
BLACK
6
CONTINUOUS
10
1.59311
20
-6.1876
11
1.59311
21
-3.7876
0
LINE
8
BLACK
6
CONTINUOUS
10
1.59311
20
-3.7876
11
1.59369
21
-3.78621
0
LINE
8
BLACK
6
CONTINUOUS
10
1.59369
20
-3.78621
11
1.59508
21
-3.78563
0
LINE
8
BLACK
6
CONTINUOUS
10
1.59508
20
-3.78563
11
4.84508
21
-3.78563
0
LINE
8
BLACK
6
CONTINUOUS
10
4.84508
20
-3.78563
11
4.84647
21
-3.78621
0
LINE
8
BLACK
6
CONTINUOUS
10
4.84647
20
-3.78621
11
4.84705
21
-3.7876
0
LINE
8
BLACK
6
CONTINUOUS
10
4.84705
20
-3.7876
11
4.84705
21
-6.1876
0
LINE
8
BLACK
6
CONTINUOUS
10
4.84705
20
-6.1876
11
4.84647
21
-6.18899
0
LINE
8
BLACK
6
CONTINUOUS
10
4.84647
20
-6.18899
11
4.84508
21
-6.18957
0
LINE
8
BLACK
6
CONTINUOUS
10
4.84508
20
-6.18957
11
1.59508
21
-6.18957
0
LINE
8
BLACK
6
CONTINUOUS
10
1.59508
20
-6.18957
11
1.59369
21
-6.18899
0
LINE
8
BLACK
6
CONTINUOUS
10
1.59705
20
-3.78957
11
1.59705
21
-6.18563
0
LINE
8
BLACK
6
CONTINUOUS
10
1.59705
20
-6.18563
11
4.84311
21
-6.18563
0
LINE
8
BLACK
6
CONTINUOUS
10
4.84311
20
-6.18563
11
4.84311
21
-3.78957
0
LINE
8
BLACK
6
CONTINUOUS
10
4.84311
20
-3.78957
11
1.59705
21
-3.78957
0
LINE
8
BLACK
6
CONTINUOUS
10
4.50588
20
-5.95926
11
4.50969
21
-5.94573
0
LINE
8
BLACK
6
CONTINUOUS
10
4.50969
20
-5.94573
11
4.51493
21
-5.93269
0
LINE
8
BLACK
6
CONTINUOUS
10
4.51493
20
-5.93269
11
4.52155
21
-5.9203
0
LINE
8
BLACK
6
CONTINUOUS
10
4.52155
20
-5.9203
11
4.52947
21
-5.90869
0
LINE
8
BLACK
6
CONTINUOUS
10
4.52947
20
-5.90869
11
4.53859
21
-5.898
0
LINE
8
BLACK
6
CONTINUOUS
10
4.53859
20
-5.898
11
4.54882
21
-5.88837
0
LINE
8
BLACK
6
CONTINUOUS
10
4.54882
20
-5.88837
11
4.56003
21
-5.87989
0
LINE
8
BLACK
6
CONTINUOUS
10
4.56003
20
-5.87989
11
4.57208
21
-5.87267
0
LINE
8
BLACK
6
CONTINUOUS
10
4.57208
20
-5.87267
11
4.58485
21
-5.8668
0
LINE
8
BLACK
6
CONTINUOUS
10
4.58485
20
-5.8668
11
4.59818
21
-5.86234
0
LINE
8
BLACK
6
CONTINUOUS
10
4.59818
20
-5.86234
11
4.61191
21
-5.85935
0
LINE
8
BLACK
6
CONTINUOUS
10
4.61191
20
-5.85935
11
4.62588
21
-5.85786
0
LINE
8
BLACK
6
CONTINUOUS
10
4.62588
20
-5.85786
11
4.63993
21
-5.85788
0
LINE
8
BLACK
6
CONTINUOUS
10
4.63993
20
-5.85788
11
4.6539
21
-5.85942
0
LINE
8
BLACK
6
CONTINUOUS
10
4.6539
20
-5.85942
11
4.66762
21
-5.86246
0
LINE
8
BLACK
6
CONTINUOUS
10
4.66762
20
-5.86246
11
4.68093
21
-5.86697
0
LINE
8
BLACK
6
CONTINUOUS
10
4.68093
20
-5.86697
11
4.69367
21
-5.87288
0
LINE
8
BLACK
6
CONTINUOUS
10
4.69367
20
-5.87288
11
4.7057
21
-5.88014
0
LINE
8
BLACK
6
CONTINUOUS
10
4.7057
20
-5.88014
11
4.71688
21
-5.88866
0
LINE
8
BLACK
6
CONTINUOUS
10
4.71688
20
-5.88866
11
4.72707
21
-5.89833
0
LINE
8
BLACK
6
CONTINUOUS
10
4.72707
20
-5.89833
11
4.73616
21
-5.90905
0
LINE
8
BLACK
6
CONTINUOUS
10
4.73616
20
-5.90905
11
4.74404
21
-5.92068
0
LINE
8
BLACK
6
CONTINUOUS
10
4.74404
20
-5.92068
11
4.75062
21
-5.9331
0
LINE
8
BLACK
6
CONTINUOUS
10
4.75062
20
-5.9331
11
4.75581
21
-5.94616
0
LINE
8
BLACK
6
CONTINUOUS
10
4.75581
20
-5.94616
11
4.75957
21
-5.9597
0
LINE
8
BLACK
6
CONTINUOUS
10
4.75957
20
-5.9597
11
4.76184
21
-5.97357
0
LINE
8
BLACK
6
CONTINUOUS
10
4.76184
20
-5.97357
11
4.7626
21
-5.9876
0
LINE
8
BLACK
6
CONTINUOUS
10
4.7626
20
-5.9876
11
4.7626
21
-5.98851
0
LINE
8
BLACK
6
CONTINUOUS
10
4.7626
20
-5.98851
11
4.76174
21
-6.00253
0
LINE
8
BLACK
6
CONTINUOUS
10
4.76174
20
-6.00253
11
4.75937
21
-6.01638
0
LINE
8
BLACK
6
CONTINUOUS
10
4.75937
20
-6.01638
11
4.75552
21
-6.0299
0
LINE
8
BLACK
6
CONTINUOUS
10
4.75552
20
-6.0299
11
4.75023
21
-6.04292
0
LINE
8
BLACK
6
CONTINUOUS
10
4.75023
20
-6.04292
11
4.74357
21
-6.05529
0
LINE
8
BLACK
6
CONTINUOUS
10
4.74357
20
-6.05529
11
4.73561
21
-6.06687
0
LINE
8
BLACK
6
CONTINUOUS
10
4.73561
20
-6.06687
11
4.72645
21
-6.07752
0
LINE
8
BLACK
6
CONTINUOUS
10
4.72645
20
-6.07752
11
4.71619
21
-6.08712
0
LINE
8
BLACK
6
CONTINUOUS
10
4.71619
20
-6.08712
11
4.70495
21
-6.09556
0
LINE
8
BLACK
6
CONTINUOUS
10
4.70495
20
-6.09556
11
4.69287
21
-6.10274
0
LINE
8
BLACK
6
CONTINUOUS
10
4.69287
20
-6.10274
11
4.68008
21
-6.10856
0
LINE
8
BLACK
6
CONTINUOUS
10
4.68008
20
-6.10856
11
4.66674
21
-6.11297
0
LINE
8
BLACK
6
CONTINUOUS
10
4.66674
20
-6.11297
11
4.653
21
-6.11592
0
LINE
8
BLACK
6
CONTINUOUS
10
4.653
20
-6.11592
11
4.63902
21
-6.11736
0
LINE
8
BLACK
6
CONTINUOUS
10
4.63902
20
-6.11736
11
4.62497
21
-6.11729
0
LINE
8
BLACK
6
CONTINUOUS
10
4.62497
20
-6.11729
11
4.61101
21
-6.1157
0
LINE
8
BLACK
6
CONTINUOUS
10
4.61101
20
-6.1157
11
4.5973
21
-6.11261
0
LINE
8
BLACK
6
CONTINUOUS
10
4.5973
20
-6.11261
11
4.58401
21
-6.10806
0
LINE
8
BLACK
6
CONTINUOUS
10
4.58401
20
-6.10806
11
4.57128
21
-6.1021
0
LINE
8
BLACK
6
CONTINUOUS
10
4.57128
20
-6.1021
11
4.55928
21
-6.0948
0
LINE
8
BLACK
6
CONTINUOUS
10
4.55928
20
-6.0948
11
4.54813
21
-6.08624
0
LINE
8
BLACK
6
CONTINUOUS
10
4.54813
20
-6.08624
11
4.53797
21
-6.07654
0
LINE
8
BLACK
6
CONTINUOUS
10
4.53797
20
-6.07654
11
4.52892
21
-6.06579
0
LINE
8
BLACK
6
CONTINUOUS
10
4.52892
20
-6.06579
11
4.52108
21
-6.05412
0
LINE
8
BLACK
6
CONTINUOUS
10
4.52108
20
-6.05412
11
4.51455
21
-6.04168
0
LINE
8
BLACK
6
CONTINUOUS
10
4.51455
20
-6.04168
11
4.5094
21
-6.02861
0
LINE
8
BLACK
6
CONTINUOUS
10
4.5094
20
-6.02861
11
4.50569
21
-6.01505
0
LINE
8
BLACK
6
CONTINUOUS
10
4.50569
20
-6.01505
11
4.50347
21
-6.00118
0
LINE
8
BLACK
6
CONTINUOUS
10
4.50347
20
-6.00118
11
4.50276
21
-5.98714
0
LINE
8
BLACK
6
CONTINUOUS
10
4.50276
20
-5.98714
11
4.50283
21
-5.98589
0
LINE
8
BLACK
6
CONTINUOUS
10
4.50283
20
-5.98589
11
4.50357
21
-5.97312
0
LINE
8
BLACK
6
CONTINUOUS
10
4.50357
20
-5.97312
11
4.50588
21
-5.95926
0
LINE
8
BLACK
6
CONTINUOUS
10
4.51311
20
-6.01301
11
4.51669
21
-6.02618
0
LINE
8
BLACK
6
CONTINUOUS
10
4.51669
20
-6.02618
11
4.52171
21
-6.03887
0
LINE
8
BLACK
6
CONTINUOUS
10
4.52171
20
-6.03887
11
4.52812
21
-6.05092
0
LINE
8
BLACK
6
CONTINUOUS
10
4.52812
20
-6.05092
11
4.53583
21
-6.06218
0
LINE
8
BLACK
6
CONTINUOUS
10
4.53583
20
-6.06218
11
4.54475
21
-6.07251
0
LINE
8
BLACK
6
CONTINUOUS
10
4.54475
20
-6.07251
11
4.55476
21
-6.08179
0
LINE
8
BLACK
6
CONTINUOUS
10
4.55476
20
-6.08179
11
4.56574
21
-6.08988
0
LINE
8
BLACK
6
CONTINUOUS
10
4.56574
20
-6.08988
11
4.57756
21
-6.09671
0
LINE
8
BLACK
6
CONTINUOUS
10
4.57756
20
-6.09671
11
4.59007
21
-6.10217
0
LINE
8
BLACK
6
CONTINUOUS
10
4.59007
20
-6.10217
11
4.6031
21
-6.10621
0
LINE
8
BLACK
6
CONTINUOUS
10
4.6031
20
-6.10621
11
4.61651
21
-6.10876
0
LINE
8
BLACK
6
CONTINUOUS
10
4.61651
20
-6.10876
11
4.63012
21
-6.10981
0
LINE
8
BLACK
6
CONTINUOUS
10
4.63012
20
-6.10981
11
4.64376
21
-6.10933
0
LINE
8
BLACK
6
CONTINUOUS
10
4.64376
20
-6.10933
11
4.65726
21
-6.10734
0
LINE
8
BLACK
6
CONTINUOUS
10
4.65726
20
-6.10734
11
4.67045
21
-6.10386
0
LINE
8
BLACK
6
CONTINUOUS
10
4.67045
20
-6.10386
11
4.68317
21
-6.09892
0
LINE
8
BLACK
6
CONTINUOUS
10
4.68317
20
-6.09892
11
4.69527
21
-6.0926
0
LINE
8
BLACK
6
CONTINUOUS
10
4.69527
20
-6.0926
11
4.70658
21
-6.08497
0
LINE
8
BLACK
6
CONTINUOUS
10
4.70658
20
-6.08497
11
4.71698
21
-6.07612
0
LINE
8
BLACK
6
CONTINUOUS
10
4.71698
20
-6.07612
11
4.72632
21
-6.06617
0
LINE
8
BLACK
6
CONTINUOUS
10
4.72632
20
-6.06617
11
4.73449
21
-6.05524
0
LINE
8
BLACK
6
CONTINUOUS
10
4.73449
20
-6.05524
11
4.7414
21
-6.04347
0
LINE
8
BLACK
6
CONTINUOUS
10
4.7414
20
-6.04347
11
4.74695
21
-6.03101
0
LINE
8
BLACK
6
CONTINUOUS
10
4.74695
20
-6.03101
11
4.75108
21
-6.018
0
LINE
8
BLACK
6
CONTINUOUS
10
4.75108
20
-6.018
11
4.75373
21
-6.00461
0
LINE
8
BLACK
6
CONTINUOUS
10
4.75373
20
-6.00461
11
4.75487
21
-5.99101
0
LINE
8
BLACK
6
CONTINUOUS
10
4.75487
20
-5.99101
11
4.75492
21
-5.9876
0
LINE
8
BLACK
6
CONTINUOUS
10
4.75492
20
-5.9876
11
4.75415
21
-5.97397
0
LINE
8
BLACK
6
CONTINUOUS
10
4.75415
20
-5.97397
11
4.75188
21
-5.96052
0
LINE
8
BLACK
6
CONTINUOUS
10
4.75188
20
-5.96052
11
4.74812
21
-5.9474
0
LINE
8
BLACK
6
CONTINUOUS
10
4.74812
20
-5.9474
11
4.74292
21
-5.93478
0
LINE
8
BLACK
6
CONTINUOUS
10
4.74292
20
-5.93478
11
4.73634
21
-5.92282
0
LINE
8
BLACK
6
CONTINUOUS
10
4.73634
20
-5.92282
11
4.72848
21
-5.91167
0
LINE
8
BLACK
6
CONTINUOUS
10
4.72848
20
-5.91167
11
4.71941
21
-5.90146
0
LINE
8
BLACK
6
CONTINUOUS
10
4.71941
20
-5.90146
11
4.70927
21
-5.89233
0
LINE
8
BLACK
6
CONTINUOUS
10
4.70927
20
-5.89233
11
4.69818
21
-5.88439
0
LINE
8
BLACK
6
CONTINUOUS
10
4.69818
20
-5.88439
11
4.68626
21
-5.87773
0
LINE
8
BLACK
6
CONTINUOUS
10
4.68626
20
-5.87773
11
4.67368
21
-5.87244
0
LINE
8
BLACK
6
CONTINUOUS
10
4.67368
20
-5.87244
11
4.66059
21
-5.86859
0
LINE
8
BLACK
6
CONTINUOUS
10
4.66059
20
-5.86859
11
4.64715
21
-5.86622
0
LINE
8
BLACK
6
CONTINUOUS
10
4.64715
20
-5.86622
11
4.63353
21
-5.86536
0
LINE
8
BLACK
6
CONTINUOUS
10
4.63353
20
-5.86536
11
4.6199
21
-5.86603
0
LINE
8
BLACK
6
CONTINUOUS
10
4.6199
20
-5.86603
11
4.60643
21
-5.86821
0
LINE
8
BLACK
6
CONTINUOUS
10
4.60643
20
-5.86821
11
4.59328
21
-5.87188
0
LINE
8
BLACK
6
CONTINUOUS
10
4.59328
20
-5.87188
11
4.58063
21
-5.87699
0
LINE
8
BLACK
6
CONTINUOUS
10
4.58063
20
-5.87699
11
4.56863
21
-5.88348
0
LINE
8
BLACK
6
CONTINUOUS
10
4.56863
20
-5.88348
11
4.55742
21
-5.89127
0
LINE
8
BLACK
6
CONTINUOUS
10
4.55742
20
-5.89127
11
4.54715
21
-5.90026
0
LINE
8
BLACK
6
CONTINUOUS
10
4.54715
20
-5.90026
11
4.53795
21
-5.91034
0
LINE
8
BLACK
6
CONTINUOUS
10
4.53795
20
-5.91034
11
4.52993
21
-5.92138
0
LINE
8
BLACK
6
CONTINUOUS
10
4.52993
20
-5.92138
11
4.52319
21
-5.93325
0
LINE
8
BLACK
6
CONTINUOUS
10
4.52319
20
-5.93325
11
4.51781
21
-5.94579
0
LINE
8
BLACK
6
CONTINUOUS
10
4.51781
20
-5.94579
11
4.51387
21
-5.95885
0
LINE
8
BLACK
6
CONTINUOUS
10
4.51387
20
-5.95885
11
4.5114
21
-5.97228
0
LINE
8
BLACK
6
CONTINUOUS
10
4.5114
20
-5.97228
11
4.51045
21
-5.98589
0
LINE
8
BLACK
6
CONTINUOUS
10
4.51045
20
-5.98589
11
4.51102
21
-5.99953
0
LINE
8
BLACK
6
CONTINUOUS
10
4.51102
20
-5.99953
11
4.51311
21
-6.01301
0
LINE
8
BLACK
6
CONTINUOUS
10
1.66829
20
-5.95926
11
1.67209
21
-5.94573
0
LINE
8
BLACK
6
CONTINUOUS
10
1.67209
20
-5.94573
11
1.67733
21
-5.93269
0
LINE
8
BLACK
6
CONTINUOUS
10
1.67733
20
-5.93269
11
1.68395
21
-5.9203
0
LINE
8
BLACK
6
CONTINUOUS
10
1.68395
20
-5.9203
11
1.69187
21
-5.90869
0
LINE
8
BLACK
6
CONTINUOUS
10
1.69187
20
-5.90869
11
1.70099
21
-5.898
0
LINE
8
BLACK
6
CONTINUOUS
10
1.70099
20
-5.898
11
1.71122
21
-5.88837
0
LINE
8
BLACK
6
CONTINUOUS
10
1.71122
20
-5.88837
11
1.72243
21
-5.87989
0
LINE
8
BLACK
6
CONTINUOUS
10
1.72243
20
-5.87989
11
1.73449
21
-5.87267
0
LINE
8
BLACK
6
CONTINUOUS
10
1.73449
20
-5.87267
11
1.74725
21
-5.8668
0
LINE
8
BLACK
6
CONTINUOUS
10
1.74725
20
-5.8668
11
1.76058
21
-5.86234
0
LINE
8
BLACK
6
CONTINUOUS
10
1.76058
20
-5.86234
11
1.77431
21
-5.85935
0
LINE
8
BLACK
6
CONTINUOUS
10
1.77431
20
-5.85935
11
1.78828
21
-5.85786
0
LINE
8
BLACK
6
CONTINUOUS
10
1.78828
20
-5.85786
11
1.80233
21
-5.85788
0
LINE
8
BLACK
6
CONTINUOUS
10
1.80233
20
-5.85788
11
1.8163
21
-5.85942
0
LINE
8
BLACK
6
CONTINUOUS
10
1.8163
20
-5.85942
11
1.83002
21
-5.86246
0
LINE
8
BLACK
6
CONTINUOUS
10
1.83002
20
-5.86246
11
1.84333
21
-5.86697
0
LINE
8
BLACK
6
CONTINUOUS
10
1.84333
20
-5.86697
11
1.85607
21
-5.87288
0
LINE
8
BLACK
6
CONTINUOUS
10
1.85607
20
-5.87288
11
1.86811
21
-5.88014
0
LINE
8
BLACK
6
CONTINUOUS
10
1.86811
20
-5.88014
11
1.87928
21
-5.88866
0
LINE
8
BLACK
6
CONTINUOUS
10
1.87928
20
-5.88866
11
1.88948
21
-5.89833
0
LINE
8
BLACK
6
CONTINUOUS
10
1.88948
20
-5.89833
11
1.89856
21
-5.90905
0
LINE
8
BLACK
6
CONTINUOUS
10
1.89856
20
-5.90905
11
1.90644
21
-5.92068
0
LINE
8
BLACK
6
CONTINUOUS
10
1.90644
20
-5.92068
11
1.91302
21
-5.9331
0
LINE
8
BLACK
6
CONTINUOUS
10
1.91302
20
-5.9331
11
1.91821
21
-5.94616
0
LINE
8
BLACK
6
CONTINUOUS
10
1.91821
20
-5.94616
11
1.92197
21
-5.9597
0
LINE
8
BLACK
6
CONTINUOUS
10
1.92197
20
-5.9597
11
1.92424
21
-5.97357
0
LINE
8
BLACK
6
CONTINUOUS
10
1.92424
20
-5.97357
11
1.925
21
-5.9876
0
LINE
8
BLACK
6
CONTINUOUS
10
1.925
20
-5.9876
11
1.925
21
-5.98851
0
LINE
8
BLACK
6
CONTINUOUS
10
1.925
20
-5.98851
11
1.92414
21
-6.00253
0
LINE
8
BLACK
6
CONTINUOUS
10
1.92414
20
-6.00253
11
1.92177
21
-6.01638
0
LINE
8
BLACK
6
CONTINUOUS
10
1.92177
20
-6.01638
11
1.91792
21
-6.0299
0
LINE
8
BLACK
6
CONTINUOUS
10
1.91792
20
-6.0299
11
1.91263
21
-6.04292
0
LINE
8
BLACK
6
CONTINUOUS
10
1.91263
20
-6.04292
11
1.90597
21
-6.05529
0
LINE
8
BLACK
6
CONTINUOUS
10
1.90597
20
-6.05529
11
1.89801
21
-6.06687
0
LINE
8
BLACK
6
CONTINUOUS
10
1.89801
20
-6.06687
11
1.88885
21
-6.07752
0
LINE
8
BLACK
6
CONTINUOUS
10
1.88885
20
-6.07752
11
1.87859
21
-6.08712
0
LINE
8
BLACK
6
CONTINUOUS
10
1.87859
20
-6.08712
11
1.86735
21
-6.09556
0
LINE
8
BLACK
6
CONTINUOUS
10
1.86735
20
-6.09556
11
1.85527
21
-6.10274
0
LINE
8
BLACK
6
CONTINUOUS
10
1.85527
20
-6.10274
11
1.84248
21
-6.10856
0
LINE
8
BLACK
6
CONTINUOUS
10
1.84248
20
-6.10856
11
1.82914
21
-6.11297
0
LINE
8
BLACK
6
CONTINUOUS
10
1.82914
20
-6.11297
11
1.8154
21
-6.11592
0
LINE
8
BLACK
6
CONTINUOUS
10
1.8154
20
-6.11592
11
1.80143
21
-6.11736
0
LINE
8
BLACK
6
CONTINUOUS
10
1.80143
20
-6.11736
11
1.78737
21
-6.11729
0
LINE
8
BLACK
6
CONTINUOUS
10
1.78737
20
-6.11729
11
1.77341
21
-6.1157
0
LINE
8
BLACK
6
CONTINUOUS
10
1.77341
20
-6.1157
11
1.7597
21
-6.11261
0
LINE
8
BLACK
6
CONTINUOUS
10
1.7597
20
-6.11261
11
1.74641
21
-6.10806
0
LINE
8
BLACK
6
CONTINUOUS
10
1.74641
20
-6.10806
11
1.73368
21
-6.1021
0
LINE
8
BLACK
6
CONTINUOUS
10
1.73368
20
-6.1021
11
1.72168
21
-6.0948
0
LINE
8
BLACK
6
CONTINUOUS
10
1.72168
20
-6.0948
11
1.71053
21
-6.08624
0
LINE
8
BLACK
6
CONTINUOUS
10
1.71053
20
-6.08624
11
1.70037
21
-6.07654
0
LINE
8
BLACK
6
CONTINUOUS
10
1.70037
20
-6.07654
11
1.69132
21
-6.06579
0
LINE
8
BLACK
6
CONTINUOUS
10
1.69132
20
-6.06579
11
1.68348
21
-6.05412
0
LINE
8
BLACK
6
CONTINUOUS
10
1.68348
20
-6.05412
11
1.67695
21
-6.04168
0
LINE
8
BLACK
6
CONTINUOUS
10
1.67695
20
-6.04168
11
1.6718
21
-6.02861
0
LINE
8
BLACK
6
CONTINUOUS
10
1.6718
20
-6.02861
11
1.66809
21
-6.01505
0
LINE
8
BLACK
6
CONTINUOUS
10
1.66809
20
-6.01505
11
1.66587
21
-6.00118
0
LINE
8
BLACK
6
CONTINUOUS
10
1.66587
20
-6.00118
11
1.66516
21
-5.98714
0
LINE
8
BLACK
6
CONTINUOUS
10
1.66516
20
-5.98714
11
1.66523
21
-5.98589
0
LINE
8
BLACK
6
CONTINUOUS
10
1.66523
20
-5.98589
11
1.66597
21
-5.97312
0
LINE
8
BLACK
6
CONTINUOUS
10
1.66597
20
-5.97312
11
1.66829
21
-5.95926
0
LINE
8
BLACK
6
CONTINUOUS
10
1.67551
20
-6.01301
11
1.67909
21
-6.02618
0
LINE
8
BLACK
6
CONTINUOUS
10
1.67909
20
-6.02618
11
1.68411
21
-6.03887
0
LINE
8
BLACK
6
CONTINUOUS
10
1.68411
20
-6.03887
11
1.69052
21
-6.05092
0
LINE
8
BLACK
6
CONTINUOUS
10
1.69052
20
-6.05092
11
1.69823
21
-6.06218
0
LINE
8
BLACK
6
CONTINUOUS
10
1.69823
20
-6.06218
11
1.70715
21
-6.07251
0
LINE
8
BLACK
6
CONTINUOUS
10
1.70715
20
-6.07251
11
1.71716
21
-6.08179
0
LINE
8
BLACK
6
CONTINUOUS
10
1.71716
20
-6.08179
11
1.72814
21
-6.08988
0
LINE
8
BLACK
6
CONTINUOUS
10
1.72814
20
-6.08988
11
1.73996
21
-6.09671
0
LINE
8
BLACK
6
CONTINUOUS
10
1.73996
20
-6.09671
11
1.75247
21
-6.10217
0
LINE
8
BLACK
6
CONTINUOUS
10
1.75247
20
-6.10217
11
1.76551
21
-6.10621
0
LINE
8
BLACK
6
CONTINUOUS
10
1.76551
20
-6.10621
11
1.77891
21
-6.10876
0
LINE
8
BLACK
6
CONTINUOUS
10
1.77891
20
-6.10876
11
1.79252
21
-6.10981
0
LINE
8
BLACK
6
CONTINUOUS
10
1.79252
20
-6.10981
11
1.80616
21
-6.10933
0
LINE
8
BLACK
6
CONTINUOUS
10
1.80616
20
-6.10933
11
1.81966
21
-6.10734
0
LINE
8
BLACK
6
CONTINUOUS
10
1.81966
20
-6.10734
11
1.83285
21
-6.10386
0
LINE
8
BLACK
6
CONTINUOUS
10
1.83285
20
-6.10386
11
1.84558
21
-6.09892
0
LINE
8
BLACK
6
CONTINUOUS
10
1.84558
20
-6.09892
11
1.85767
21
-6.0926
0
LINE
8
BLACK
6
CONTINUOUS
10
1.85767
20
-6.0926
11
1.86898
21
-6.08497
0
LINE
8
BLACK
6
CONTINUOUS
10
1.86898
20
-6.08497
11
1.87938
21
-6.07612
0
LINE
8
BLACK
6
CONTINUOUS
10
1.87938
20
-6.07612
11
1.88872
21
-6.06617
0
LINE
8
BLACK
6
CONTINUOUS
10
1.88872
20
-6.06617
11
1.89689
21
-6.05524
0
LINE
8
BLACK
6
CONTINUOUS
10
1.89689
20
-6.05524
11
1.9038
21
-6.04347
0
LINE
8
BLACK
6
CONTINUOUS
10
1.9038
20
-6.04347
11
1.90935
21
-6.03101
0
LINE
8
BLACK
6
CONTINUOUS
10
1.90935
20
-6.03101
11
1.91348
21
-6.018
0
LINE
8
BLACK
6
CONTINUOUS
10
1.91348
20
-6.018
11
1.91613
21
-6.00461
0
LINE
8
BLACK
6
CONTINUOUS
10
1.91613
20
-6.00461
11
1.91727
21
-5.99101
0
LINE
8
BLACK
6
CONTINUOUS
10
1.91727
20
-5.99101
11
1.91732
21
-5.9876
0
LINE
8
BLACK
6
CONTINUOUS
10
1.91732
20
-5.9876
11
1.91656
21
-5.97397
0
LINE
8
BLACK
6
CONTINUOUS
10
1.91656
20
-5.97397
11
1.91428
21
-5.96052
0
LINE
8
BLACK
6
CONTINUOUS
10
1.91428
20
-5.96052
11
1.91052
21
-5.9474
0
LINE
8
BLACK
6
CONTINUOUS
10
1.91052
20
-5.9474
11
1.90532
21
-5.93478
0
LINE
8
BLACK
6
CONTINUOUS
10
1.90532
20
-5.93478
11
1.89874
21
-5.92282
0
LINE
8
BLACK
6
CONTINUOUS
10
1.89874
20
-5.92282
11
1.89088
21
-5.91167
0
LINE
8
BLACK
6
CONTINUOUS
10
1.89088
20
-5.91167
11
1.88182
21
-5.90146
0
LINE
8
BLACK
6
CONTINUOUS
10
1.88182
20
-5.90146
11
1.87167
21
-5.89233
0
LINE
8
BLACK
6
CONTINUOUS
10
1.87167
20
-5.89233
11
1.86058
21
-5.88439
0
LINE
8
BLACK
6
CONTINUOUS
10
1.86058
20
-5.88439
11
1.84867
21
-5.87773
0
LINE
8
BLACK
6
CONTINUOUS
10
1.84867
20
-5.87773
11
1.83608
21
-5.87244
0
LINE
8
BLACK
6
CONTINUOUS
10
1.83608
20
-5.87244
11
1.82299
21
-5.86859
0
LINE
8
BLACK
6
CONTINUOUS
10
1.82299
20
-5.86859
11
1.80955
21
-5.86622
0
LINE
8
BLACK
6
CONTINUOUS
10
1.80955
20
-5.86622
11
1.79593
21
-5.86536
0
LINE
8
BLACK
6
CONTINUOUS
10
1.79593
20
-5.86536
11
1.7823
21
-5.86603
0
LINE
8
BLACK
6
CONTINUOUS
10
1.7823
20
-5.86603
11
1.76883
21
-5.86821
0
LINE
8
BLACK
6
CONTINUOUS
10
1.76883
20
-5.86821
11
1.75569
21
-5.87188
0
LINE
8
BLACK
6
CONTINUOUS
10
1.75569
20
-5.87188
11
1.74303
21
-5.87699
0
LINE
8
BLACK
6
CONTINUOUS
10
1.74303
20
-5.87699
11
1.73103
21
-5.88348
0
LINE
8
BLACK
6
CONTINUOUS
10
1.73103
20
-5.88348
11
1.71982
21
-5.89127
0
LINE
8
BLACK
6
CONTINUOUS
10
1.71982
20
-5.89127
11
1.70955
21
-5.90026
0
LINE
8
BLACK
6
CONTINUOUS
10
1.70955
20
-5.90026
11
1.70035
21
-5.91034
0
LINE
8
BLACK
6
CONTINUOUS
10
1.70035
20
-5.91034
11
1.69233
21
-5.92138
0
LINE
8
BLACK
6
CONTINUOUS
10
1.69233
20
-5.92138
11
1.68559
21
-5.93325
0
LINE
8
BLACK
6
CONTINUOUS
10
1.68559
20
-5.93325
11
1.68021
21
-5.94579
0
LINE
8
BLACK
6
CONTINUOUS
10
1.68021
20
-5.94579
11
1.67627
21
-5.95885
0
LINE
8
BLACK
6
CONTINUOUS
10
1.67627
20
-5.95885
11
1.6738
21
-5.97228
0
LINE
8
BLACK
6
CONTINUOUS
10
1.6738
20
-5.97228
11
1.67285
21
-5.98589
0
LINE
8
BLACK
6
CONTINUOUS
10
1.67285
20
-5.98589
11
1.67342
21
-5.99953
0
LINE
8
BLACK
6
CONTINUOUS
10
1.67342
20
-5.99953
11
1.67551
21
-6.01301
0
LINE
8
BLACK
6
CONTINUOUS
10
4.50588
20
-3.95926
11
4.50969
21
-3.94573
0
LINE
8
BLACK
6
CONTINUOUS
10
4.50969
20
-3.94573
11
4.51493
21
-3.93269
0
LINE
8
BLACK
6
CONTINUOUS
10
4.51493
20
-3.93269
11
4.52155
21
-3.9203
0
LINE
8
BLACK
6
CONTINUOUS
10
4.52155
20
-3.9203
11
4.52947
21
-3.90869
0
LINE
8
BLACK
6
CONTINUOUS
10
4.52947
20
-3.90869
11
4.53859
21
-3.898
0
LINE
8
BLACK
6
CONTINUOUS
10
4.53859
20
-3.898
11
4.54882
21
-3.88837
0
LINE
8
BLACK
6
CONTINUOUS
10
4.54882
20
-3.88837
11
4.56003
21
-3.87989
0
LINE
8
BLACK
6
CONTINUOUS
10
4.56003
20
-3.87989
11
4.57208
21
-3.87267
0
LINE
8
BLACK
6
CONTINUOUS
10
4.57208
20
-3.87267
11
4.58485
21
-3.8668
0
LINE
8
BLACK
6
CONTINUOUS
10
4.58485
20
-3.8668
11
4.59818
21
-3.86234
0
LINE
8
BLACK
6
CONTINUOUS
10
4.59818
20
-3.86234
11
4.61191
21
-3.85935
0
LINE
8
BLACK
6
CONTINUOUS
10
4.61191
20
-3.85935
11
4.62588
21
-3.85786
0
LINE
8
BLACK
6
CONTINUOUS
10
4.62588
20
-3.85786
11
4.63993
21
-3.85788
0
LINE
8
BLACK
6
CONTINUOUS
10
4.63993
20
-3.85788
11
4.6539
21
-3.85942
0
LINE
8
BLACK
6
CONTINUOUS
10
4.6539
20
-3.85942
11
4.66762
21
-3.86246
0
LINE
8
BLACK
6
CONTINUOUS
10
4.66762
20
-3.86246
11
4.68093
21
-3.86697
0
LINE
8
BLACK
6
CONTINUOUS
10
4.68093
20
-3.86697
11
4.69367
21
-3.87288
0
LINE
8
BLACK
6
CONTINUOUS
10
4.69367
20
-3.87288
11
4.7057
21
-3.88014
0
LINE
8
BLACK
6
CONTINUOUS
10
4.7057
20
-3.88014
11
4.71688
21
-3.88866
0
LINE
8
BLACK
6
CONTINUOUS
10
4.71688
20
-3.88866
11
4.72707
21
-3.89833
0
LINE
8
BLACK
6
CONTINUOUS
10
4.72707
20
-3.89833
11
4.73616
21
-3.90905
0
LINE
8
BLACK
6
CONTINUOUS
10
4.73616
20
-3.90905
11
4.74404
21
-3.92068
0
LINE
8
BLACK
6
CONTINUOUS
10
4.74404
20
-3.92068
11
4.75062
21
-3.9331
0
LINE
8
BLACK
6
CONTINUOUS
10
4.75062
20
-3.9331
11
4.75581
21
-3.94616
0
LINE
8
BLACK
6
CONTINUOUS
10
4.75581
20
-3.94616
11
4.75957
21
-3.9597
0
LINE
8
BLACK
6
CONTINUOUS
10
4.75957
20
-3.9597
11
4.76184
21
-3.97357
0
LINE
8
BLACK
6
CONTINUOUS
10
4.76184
20
-3.97357
11
4.7626
21
-3.9876
0
LINE
8
BLACK
6
CONTINUOUS
10
4.7626
20
-3.9876
11
4.7626
21
-3.98851
0
LINE
8
BLACK
6
CONTINUOUS
10
4.7626
20
-3.98851
11
4.76174
21
-4.00253
0
LINE
8
BLACK
6
CONTINUOUS
10
4.76174
20
-4.00253
11
4.75937
21
-4.01638
0
LINE
8
BLACK
6
CONTINUOUS
10
4.75937
20
-4.01638
11
4.75552
21
-4.0299
0
LINE
8
BLACK
6
CONTINUOUS
10
4.75552
20
-4.0299
11
4.75023
21
-4.04292
0
LINE
8
BLACK
6
CONTINUOUS
10
4.75023
20
-4.04292
11
4.74357
21
-4.05529
0
LINE
8
BLACK
6
CONTINUOUS
10
4.74357
20
-4.05529
11
4.73561
21
-4.06687
0
LINE
8
BLACK
6
CONTINUOUS
10
4.73561
20
-4.06687
11
4.72645
21
-4.07752
0
LINE
8
BLACK
6
CONTINUOUS
10
4.72645
20
-4.07752
11
4.71619
21
-4.08712
0
LINE
8
BLACK
6
CONTINUOUS
10
4.71619
20
-4.08712
11
4.70495
21
-4.09556
0
LINE
8
BLACK
6
CONTINUOUS
10
4.70495
20
-4.09556
11
4.69287
21
-4.10274
0
LINE
8
BLACK
6
CONTINUOUS
10
4.69287
20
-4.10274
11
4.68008
21
-4.10856
0
LINE
8
BLACK
6
CONTINUOUS
10
4.68008
20
-4.10856
11
4.66674
21
-4.11297
0
LINE
8
BLACK
6
CONTINUOUS
10
4.66674
20
-4.11297
11
4.653
21
-4.11592
0
LINE
8
BLACK
6
CONTINUOUS
10
4.653
20
-4.11592
11
4.63902
21
-4.11736
0
LINE
8
BLACK
6
CONTINUOUS
10
4.63902
20
-4.11736
11
4.62497
21
-4.11729
0
LINE
8
BLACK
6
CONTINUOUS
10
4.62497
20
-4.11729
11
4.61101
21
-4.1157
0
LINE
8
BLACK
6
CONTINUOUS
10
4.61101
20
-4.1157
11
4.5973
21
-4.11261
0
LINE
8
BLACK
6
CONTINUOUS
10
4.5973
20
-4.11261
11
4.58401
21
-4.10806
0
LINE
8
BLACK
6
CONTINUOUS
10
4.58401
20
-4.10806
11
4.57128
21
-4.1021
0
LINE
8
BLACK
6
CONTINUOUS
10
4.57128
20
-4.1021
11
4.55928
21
-4.0948
0
LINE
8
BLACK
6
CONTINUOUS
10
4.55928
20
-4.0948
11
4.54813
21
-4.08624
0
LINE
8
BLACK
6
CONTINUOUS
10
4.54813
20
-4.08624
11
4.53797
21
-4.07654
0
LINE
8
BLACK
6
CONTINUOUS
10
4.53797
20
-4.07654
11
4.52892
21
-4.06579
0
LINE
8
BLACK
6
CONTINUOUS
10
4.52892
20
-4.06579
11
4.52108
21
-4.05412
0
LINE
8
BLACK
6
CONTINUOUS
10
4.52108
20
-4.05412
11
4.51455
21
-4.04168
0
LINE
8
BLACK
6
CONTINUOUS
10
4.51455
20
-4.04168
11
4.5094
21
-4.02861
0
LINE
8
BLACK
6
CONTINUOUS
10
4.5094
20
-4.02861
11
4.50569
21
-4.01505
0
LINE
8
BLACK
6
CONTINUOUS
10
4.50569
20
-4.01505
11
4.50347
21
-4.00118
0
LINE
8
BLACK
6
CONTINUOUS
10
4.50347
20
-4.00118
11
4.50276
21
-3.98714
0
LINE
8
BLACK
6
CONTINUOUS
10
4.50276
20
-3.98714
11
4.50283
21
-3.98589
0
LINE
8
BLACK
6
CONTINUOUS
10
4.50283
20
-3.98589
11
4.50357
21
-3.97312
0
LINE
8
BLACK
6
CONTINUOUS
10
4.50357
20
-3.97312
11
4.50588
21
-3.95926
0
LINE
8
BLACK
6
CONTINUOUS
10
4.51311
20
-4.01301
11
4.51669
21
-4.02618
0
LINE
8
BLACK
6
CONTINUOUS
10
4.51669
20
-4.02618
11
4.52171
21
-4.03887
0
LINE
8
BLACK
6
CONTINUOUS
10
4.52171
20
-4.03887
11
4.52812
21
-4.05092
0
LINE
8
BLACK
6
CONTINUOUS
10
4.52812
20
-4.05092
11
4.53583
21
-4.06218
0
LINE
8
BLACK
6
CONTINUOUS
10
4.53583
20
-4.06218
11
4.54475
21
-4.07251
0
LINE
8
BLACK
6
CONTINUOUS
10
4.54475
20
-4.07251
11
4.55476
21
-4.08179
0
LINE
8
BLACK
6
CONTINUOUS
10
4.55476
20
-4.08179
11
4.56574
21
-4.08988
0
LINE
8
BLACK
6
CONTINUOUS
10
4.56574
20
-4.08988
11
4.57756
21
-4.09671
0
LINE
8
BLACK
6
CONTINUOUS
10
4.57756
20
-4.09671
11
4.59007
21
-4.10217
0
LINE
8
BLACK
6
CONTINUOUS
10
4.59007
20
-4.10217
11
4.6031
21
-4.10621
0
LINE
8
BLACK
6
CONTINUOUS
10
4.6031
20
-4.10621
11
4.61651
21
-4.10876
0
LINE
8
BLACK
6
CONTINUOUS
10
4.61651
20
-4.10876
11
4.63012
21
-4.10981
0
LINE
8
BLACK
6
CONTINUOUS
10
4.63012
20
-4.10981
11
4.64376
21
-4.10933
0
LINE
8
BLACK
6
CONTINUOUS
10
4.64376
20
-4.10933
11
4.65726
21
-4.10734
0
LINE
8
BLACK
6
CONTINUOUS
10
4.65726
20
-4.10734
11
4.67045
21
-4.10386
0
LINE
8
BLACK
6
CONTINUOUS
10
4.67045
20
-4.10386
11
4.68317
21
-4.09892
0
LINE
8
BLACK
6
CONTINUOUS
10
4.68317
20
-4.09892
11
4.69527
21
-4.0926
0
LINE
8
BLACK
6
CONTINUOUS
10
4.69527
20
-4.0926
11
4.70658
21
-4.08497
0
LINE
8
BLACK
6
CONTINUOUS
10
4.70658
20
-4.08497
11
4.71698
21
-4.07612
0
LINE
8
BLACK
6
CONTINUOUS
10
4.71698
20
-4.07612
11
4.72632
21
-4.06617
0
LINE
8
BLACK
6
CONTINUOUS
10
4.72632
20
-4.06617
11
4.73449
21
-4.05524
0
LINE
8
BLACK
6
CONTINUOUS
10
4.73449
20
-4.05524
11
4.7414
21
-4.04347
0
LINE
8
BLACK
6
CONTINUOUS
10
4.7414
20
-4.04347
11
4.74695
21
-4.03101
0
LINE
8
BLACK
6
CONTINUOUS
10
4.74695
20
-4.03101
11
4.75108
21
-4.018
0
LINE
8
BLACK
6
CONTINUOUS
10
4.75108
20
-4.018
11
4.75373
21
-4.00461
0
LINE
8
BLACK
6
CONTINUOUS
10
4.75373
20
-4.00461
11
4.75487
21
-3.99101
0
LINE
8
BLACK
6
CONTINUOUS
10
4.75487
20
-3.99101
11
4.75492
21
-3.9876
0
LINE
8
BLACK
6
CONTINUOUS
10
4.75492
20
-3.9876
11
4.75415
21
-3.97397
0
LINE
8
BLACK
6
CONTINUOUS
10
4.75415
20
-3.97397
11
4.75188
21
-3.96052
0
LINE
8
BLACK
6
CONTINUOUS
10
4.75188
20
-3.96052
11
4.74812
21
-3.9474
0
LINE
8
BLACK
6
CONTINUOUS
10
4.74812
20
-3.9474
11
4.74292
21
-3.93478
0
LINE
8
BLACK
6
CONTINUOUS
10
4.74292
20
-3.93478
11
4.73634
21
-3.92282
0
LINE
8
BLACK
6
CONTINUOUS
10
4.73634
20
-3.92282
11
4.72848
21
-3.91167
0
LINE
8
BLACK
6
CONTINUOUS
10
4.72848
20
-3.91167
11
4.71941
21
-3.90146
0
LINE
8
BLACK
6
CONTINUOUS
10
4.71941
20
-3.90146
11
4.70927
21
-3.89233
0
LINE
8
BLACK
6
CONTINUOUS
10
4.70927
20
-3.89233
11
4.69818
21
-3.88439
0
LINE
8
BLACK
6
CONTINUOUS
10
4.69818
20
-3.88439
11
4.68626
21
-3.87773
0
LINE
8
BLACK
6
CONTINUOUS
10
4.68626
20
-3.87773
11
4.67368
21
-3.87244
0
LINE
8
BLACK
6
CONTINUOUS
10
4.67368
20
-3.87244
11
4.66059
21
-3.86859
0
LINE
8
BLACK
6
CONTINUOUS
10
4.66059
20
-3.86859
11
4.64715
21
-3.86622
0
LINE
8
BLACK
6
CONTINUOUS
10
4.64715
20
-3.86622
11
4.63353
21
-3.86536
0
LINE
8
BLACK
6
CONTINUOUS
10
4.63353
20
-3.86536
11
4.6199
21
-3.86603
0
LINE
8
BLACK
6
CONTINUOUS
10
4.6199
20
-3.86603
11
4.60643
21
-3.86821
0
LINE
8
BLACK
6
CONTINUOUS
10
4.60643
20
-3.86821
11
4.59328
21
-3.87188
0
LINE
8
BLACK
6
CONTINUOUS
10
4.59328
20
-3.87188
11
4.58063
21
-3.87699
0
LINE
8
BLACK
6
CONTINUOUS
10
4.58063
20
-3.87699
11
4.56863
21
-3.88348
0
LINE
8
BLACK
6
CONTINUOUS
10
4.56863
20
-3.88348
11
4.55742
21
-3.89127
0
LINE
8
BLACK
6
CONTINUOUS
10
4.55742
20
-3.89127
11
4.54715
21
-3.90026
0
LINE
8
BLACK
6
CONTINUOUS
10
4.54715
20
-3.90026
11
4.53795
21
-3.91034
0
LINE
8
BLACK
6
CONTINUOUS
10
4.53795
20
-3.91034
11
4.52993
21
-3.92138
0
LINE
8
BLACK
6
CONTINUOUS
10
4.52993
20
-3.92138
11
4.52319
21
-3.93325
0
LINE
8
BLACK
6
CONTINUOUS
10
4.52319
20
-3.93325
11
4.51781
21
-3.94579
0
LINE
8
BLACK
6
CONTINUOUS
10
4.51781
20
-3.94579
11
4.51387
21
-3.95885
0
LINE
8
BLACK
6
CONTINUOUS
10
4.51387
20
-3.95885
11
4.5114
21
-3.97228
0
LINE
8
BLACK
6
CONTINUOUS
10
4.5114
20
-3.97228
11
4.51045
21
-3.98589
0
LINE
8
BLACK
6
CONTINUOUS
10
4.51045
20
-3.98589
11
4.51102
21
-3.99953
0
LINE
8
BLACK
6
CONTINUOUS
10
4.51102
20
-3.99953
11
4.51311
21
-4.01301
0
LINE
8
BLACK
6
CONTINUOUS
10
1.66829
20
-3.95926
11
1.67209
21
-3.94573
0
LINE
8
BLACK
6
CONTINUOUS
10
1.67209
20
-3.94573
11
1.67733
21
-3.93269
0
LINE
8
BLACK
6
CONTINUOUS
10
1.67733
20
-3.93269
11
1.68395
21
-3.9203
0
LINE
8
BLACK
6
CONTINUOUS
10
1.68395
20
-3.9203
11
1.69187
21
-3.90869
0
LINE
8
BLACK
6
CONTINUOUS
10
1.69187
20
-3.90869
11
1.70099
21
-3.898
0
LINE
8
BLACK
6
CONTINUOUS
10
1.70099
20
-3.898
11
1.71122
21
-3.88837
0
LINE
8
BLACK
6
CONTINUOUS
10
1.71122
20
-3.88837
11
1.72243
21
-3.87989
0
LINE
8
BLACK
6
CONTINUOUS
10
1.72243
20
-3.87989
11
1.73449
21
-3.87267
0
LINE
8
BLACK
6
CONTINUOUS
10
1.73449
20
-3.87267
11
1.74725
21
-3.8668
0
LINE
8
BLACK
6
CONTINUOUS
10
1.74725
20
-3.8668
11
1.76058
21
-3.86234
0
LINE
8
BLACK
6
CONTINUOUS
10
1.76058
20
-3.86234
11
1.77431
21
-3.85935
0
LINE
8
BLACK
6
CONTINUOUS
10
1.77431
20
-3.85935
11
1.78828
21
-3.85786
0
LINE
8
BLACK
6
CONTINUOUS
10
1.78828
20
-3.85786
11
1.80233
21
-3.85788
0
LINE
8
BLACK
6
CONTINUOUS
10
1.80233
20
-3.85788
11
1.8163
21
-3.85942
0
LINE
8
BLACK
6
CONTINUOUS
10
1.8163
20
-3.85942
11
1.83002
21
-3.86246
0
LINE
8
BLACK
6
CONTINUOUS
10
1.83002
20
-3.86246
11
1.84333
21
-3.86697
0
LINE
8
BLACK
6
CONTINUOUS
10
1.84333
20
-3.86697
11
1.85607
21
-3.87288
0
LINE
8
BLACK
6
CONTINUOUS
10
1.85607
20
-3.87288
11
1.86811
21
-3.88014
0
LINE
8
BLACK
6
CONTINUOUS
10
1.86811
20
-3.88014
11
1.87928
21
-3.88866
0
LINE
8
BLACK
6
CONTINUOUS
10
1.87928
20
-3.88866
11
1.88948
21
-3.89833
0
LINE
8
BLACK
6
CONTINUOUS
10
1.88948
20
-3.89833
11
1.89856
21
-3.90905
0
LINE
8
BLACK
6
CONTINUOUS
10
1.89856
20
-3.90905
11
1.90644
21
-3.92068
0
LINE
8
BLACK
6
CONTINUOUS
10
1.90644
20
-3.92068
11
1.91302
21
-3.9331
0
LINE
8
BLACK
6
CONTINUOUS
10
1.91302
20
-3.9331
11
1.91821
21
-3.94616
0
LINE
8
BLACK
6
CONTINUOUS
10
1.91821
20
-3.94616
11
1.92197
21
-3.9597
0
LINE
8
BLACK
6
CONTINUOUS
10
1.92197
20
-3.9597
11
1.92424
21
-3.97357
0
LINE
8
BLACK
6
CONTINUOUS
10
1.92424
20
-3.97357
11
1.925
21
-3.9876
0
LINE
8
BLACK
6
CONTINUOUS
10
1.925
20
-3.9876
11
1.925
21
-3.98851
0
LINE
8
BLACK
6
CONTINUOUS
10
1.925
20
-3.98851
11
1.92414
21
-4.00253
0
LINE
8
BLACK
6
CONTINUOUS
10
1.92414
20
-4.00253
11
1.92177
21
-4.01638
0
LINE
8
BLACK
6
CONTINUOUS
10
1.92177
20
-4.01638
11
1.91792
21
-4.0299
0
LINE
8
BLACK
6
CONTINUOUS
10
1.91792
20
-4.0299
11
1.91263
21
-4.04292
0
LINE
8
BLACK
6
CONTINUOUS
10
1.91263
20
-4.04292
11
1.90597
21
-4.05529
0
LINE
8
BLACK
6
CONTINUOUS
10
1.90597
20
-4.05529
11
1.89801
21
-4.06687
0
LINE
8
BLACK
6
CONTINUOUS
10
1.89801
20
-4.06687
11
1.88885
21
-4.07752
0
LINE
8
BLACK
6
CONTINUOUS
10
1.88885
20
-4.07752
11
1.87859
21
-4.08712
0
LINE
8
BLACK
6
CONTINUOUS
10
1.87859
20
-4.08712
11
1.86735
21
-4.09556
0
LINE
8
BLACK
6
CONTINUOUS
10
1.86735
20
-4.09556
11
1.85527
21
-4.10274
0
LINE
8
BLACK
6
CONTINUOUS
10
1.85527
20
-4.10274
11
1.84248
21
-4.10856
0
LINE
8
BLACK
6
CONTINUOUS
10
1.84248
20
-4.10856
11
1.82914
21
-4.11297
0
LINE
8
BLACK
6
CONTINUOUS
10
1.82914
20
-4.11297
11
1.8154
21
-4.11592
0
LINE
8
BLACK
6
CONTINUOUS
10
1.8154
20
-4.11592
11
1.80143
21
-4.11736
0
LINE
8
BLACK
6
CONTINUOUS
10
1.80143
20
-4.11736
11
1.78737
21
-4.11729
0
LINE
8
BLACK
6
CONTINUOUS
10
1.78737
20
-4.11729
11
1.77341
21
-4.1157
0
LINE
8
BLACK
6
CONTINUOUS
10
1.77341
20
-4.1157
11
1.7597
21
-4.11261
0
LINE
8
BLACK
6
CONTINUOUS
10
1.7597
20
-4.11261
11
1.74641
21
-4.10806
0
LINE
8
BLACK
6
CONTINUOUS
10
1.74641
20
-4.10806
11
1.73368
21
-4.1021
0
LINE
8
BLACK
6
CONTINUOUS
10
1.73368
20
-4.1021
11
1.72168
21
-4.0948
0
LINE
8
BLACK
6
CONTINUOUS
10
1.72168
20
-4.0948
11
1.71053
21
-4.08624
0
LINE
8
BLACK
6
CONTINUOUS
10
1.71053
20
-4.08624
11
1.70037
21
-4.07654
0
LINE
8
BLACK
6
CONTINUOUS
10
1.70037
20
-4.07654
11
1.69132
21
-4.06579
0
LINE
8
BLACK
6
CONTINUOUS
10
1.69132
20
-4.06579
11
1.68348
21
-4.05412
0
LINE
8
BLACK
6
CONTINUOUS
10
1.68348
20
-4.05412
11
1.67695
21
-4.04168
0
LINE
8
BLACK
6
CONTINUOUS
10
1.67695
20
-4.04168
11
1.6718
21
-4.02861
0
LINE
8
BLACK
6
CONTINUOUS
10
1.6718
20
-4.02861
11
1.66809
21
-4.01505
0
LINE
8
BLACK
6
CONTINUOUS
10
1.66809
20
-4.01505
11
1.66587
21
-4.00118
0
LINE
8
BLACK
6
CONTINUOUS
10
1.66587
20
-4.00118
11
1.66516
21
-3.98714
0
LINE
8
BLACK
6
CONTINUOUS
10
1.66516
20
-3.98714
11
1.66523
21
-3.98589
0
LINE
8
BLACK
6
CONTINUOUS
10
1.66523
20
-3.98589
11
1.66597
21
-3.97312
0
LINE
8
BLACK
6
CONTINUOUS
10
1.66597
20
-3.97312
11
1.66829
21
-3.95926
0
LINE
8
BLACK
6
CONTINUOUS
10
1.67551
20
-4.01301
11
1.67909
21
-4.02618
0
LINE
8
BLACK
6
CONTINUOUS
10
1.67909
20
-4.02618
11
1.68411
21
-4.03887
0
LINE
8
BLACK
6
CONTINUOUS
10
1.68411
20
-4.03887
11
1.69052
21
-4.05092
0
LINE
8
BLACK
6
CONTINUOUS
10
1.69052
20
-4.05092
11
1.69823
21
-4.06218
0
LINE
8
BLACK
6
CONTINUOUS
10
1.69823
20
-4.06218
11
1.70715
21
-4.07251
0
LINE
8
BLACK
6
CONTINUOUS
10
1.70715
20
-4.07251
11
1.71716
21
-4.08179
0
LINE
8
BLACK
6
CONTINUOUS
10
1.71716
20
-4.08179
11
1.72814
21
-4.08988
0
LINE
8
BLACK
6
CONTINUOUS
10
1.72814
20
-4.08988
11
1.73996
21
-4.09671
0
LINE
8
BLACK
6
CONTINUOUS
10
1.73996
20
-4.09671
11
1.75247
21
-4.10217
0
LINE
8
BLACK
6
CONTINUOUS
10
1.75247
20
-4.10217
11
1.76551
21
-4.10621
0
LINE
8
BLACK
6
CONTINUOUS
10
1.76551
20
-4.10621
11
1.77891
21
-4.10876
0
LINE
8
BLACK
6
CONTINUOUS
10
1.77891
20
-4.10876
11
1.79252
21
-4.10981
0
LINE
8
BLACK
6
CONTINUOUS
10
1.79252
20
-4.10981
11
1.80616
21
-4.10933
0
LINE
8
BLACK
6
CONTINUOUS
10
1.80616
20
-4.10933
11
1.81966
21
-4.10734
0
LINE
8
BLACK
6
CONTINUOUS
10
1.81966
20
-4.10734
11
1.83285
21
-4.10386
0
LINE
8
BLACK
6
CONTINUOUS
10
1.83285
20
-4.10386
11
1.84558
21
-4.09892
0
LINE
8
BLACK
6
CONTINUOUS
10
1.84558
20
-4.09892
11
1.85767
21
-4.0926
0
LINE
8
BLACK
6
CONTINUOUS
10
1.85767
20
-4.0926
11
1.86898
21
-4.08497
0
LINE
8
BLACK
6
CONTINUOUS
10
1.86898
20
-4.08497
11
1.87938
21
-4.07612
0
LINE
8
BLACK
6
CONTINUOUS
10
1.87938
20
-4.07612
11
1.88872
21
-4.06617
0
LINE
8
BLACK
6
CONTINUOUS
10
1.88872
20
-4.06617
11
1.89689
21
-4.05524
0
LINE
8
BLACK
6
CONTINUOUS
10
1.89689
20
-4.05524
11
1.9038
21
-4.04347
0
LINE
8
BLACK
6
CONTINUOUS
10
1.9038
20
-4.04347
11
1.90935
21
-4.03101
0
LINE
8
BLACK
6
CONTINUOUS
10
1.90935
20
-4.03101
11
1.91348
21
-4.018
0
LINE
8
BLACK
6
CONTINUOUS
10
1.91348
20
-4.018
11
1.91613
21
-4.00461
0
LINE
8
BLACK
6
CONTINUOUS
10
1.91613
20
-4.00461
11
1.91727
21
-3.99101
0
LINE
8
BLACK
6
CONTINUOUS
10
1.91727
20
-3.99101
11
1.91732
21
-3.9876
0
LINE
8
BLACK
6
CONTINUOUS
10
1.91732
20
-3.9876
11
1.91656
21
-3.97397
0
LINE
8
BLACK
6
CONTINUOUS
10
1.91656
20
-3.97397
11
1.91428
21
-3.96052
0
LINE
8
BLACK
6
CONTINUOUS
10
1.91428
20
-3.96052
11
1.91052
21
-3.9474
0
LINE
8
BLACK
6
CONTINUOUS
10
1.91052
20
-3.9474
11
1.90532
21
-3.93478
0
LINE
8
BLACK
6
CONTINUOUS
10
1.90532
20
-3.93478
11
1.89874
21
-3.92282
0
LINE
8
BLACK
6
CONTINUOUS
10
1.89874
20
-3.92282
11
1.89088
21
-3.91167
0
LINE
8
BLACK
6
CONTINUOUS
10
1.89088
20
-3.91167
11
1.88182
21
-3.90146
0
LINE
8
BLACK
6
CONTINUOUS
10
1.88182
20
-3.90146
11
1.87167
21
-3.89233
0
LINE
8
BLACK
6
CONTINUOUS
10
1.87167
20
-3.89233
11
1.86058
21
-3.88439
0
LINE
8
BLACK
6
CONTINUOUS
10
1.86058
20
-3.88439
11
1.84867
21
-3.87773
0
LINE
8
BLACK
6
CONTINUOUS
10
1.84867
20
-3.87773
11
1.83608
21
-3.87244
0
LINE
8
BLACK
6
CONTINUOUS
10
1.83608
20
-3.87244
11
1.82299
21
-3.86859
0
LINE
8
BLACK
6
CONTINUOUS
10
1.82299
20
-3.86859
11
1.80955
21
-3.86622
0
LINE
8
BLACK
6
CONTINUOUS
10
1.80955
20
-3.86622
11
1.79593
21
-3.86536
0
LINE
8
BLACK
6
CONTINUOUS
10
1.79593
20
-3.86536
11
1.7823
21
-3.86603
0
LINE
8
BLACK
6
CONTINUOUS
10
1.7823
20
-3.86603
11
1.76883
21
-3.86821
0
LINE
8
BLACK
6
CONTINUOUS
10
1.76883
20
-3.86821
11
1.75569
21
-3.87188
0
LINE
8
BLACK
6
CONTINUOUS
10
1.75569
20
-3.87188
11
1.74303
21
-3.87699
0
LINE
8
BLACK
6
CONTINUOUS
10
1.74303
20
-3.87699
11
1.73103
21
-3.88348
0
LINE
8
BLACK
6
CONTINUOUS
10
1.73103
20
-3.88348
11
1.71982
21
-3.89127
0
LINE
8
BLACK
6
CONTINUOUS
10
1.71982
20
-3.89127
11
1.70955
21
-3.90026
0
LINE
8
BLACK
6
CONTINUOUS
10
1.70955
20
-3.90026
11
1.70035
21
-3.91034
0
LINE
8
BLACK
6
CONTINUOUS
10
1.70035
20
-3.91034
11
1.69233
21
-3.92138
0
LINE
8
BLACK
6
CONTINUOUS
10
1.69233
20
-3.92138
11
1.68559
21
-3.93325
0
LINE
8
BLACK
6
CONTINUOUS
10
1.68559
20
-3.93325
11
1.68021
21
-3.94579
0
LINE
8
BLACK
6
CONTINUOUS
10
1.68021
20
-3.94579
11
1.67627
21
-3.95885
0
LINE
8
BLACK
6
CONTINUOUS
10
1.67627
20
-3.95885
11
1.6738
21
-3.97228
0
LINE
8
BLACK
6
CONTINUOUS
10
1.6738
20
-3.97228
11
1.67285
21
-3.98589
0
LINE
8
BLACK
6
CONTINUOUS
10
1.67285
20
-3.98589
11
1.67342
21
-3.99953
0
LINE
8
BLACK
6
CONTINUOUS
10
1.67342
20
-3.99953
11
1.67551
21
-4.01301
  0
ENDSEC
  0
EOF
